G04 EAGLE Gerber X2 export*
G75*
%MOMM*%
%FSLAX34Y34*%
%LPD*%
%AMOC8*
5,1,8,0,0,1.08239X$1,22.5*%
G01*
%ADD10C,0.254000*%
%ADD11R,3.600000X2.600000*%
%ADD12C,1.320800*%
%ADD13P,1.429621X8X292.500000*%
%ADD14C,1.308000*%
%ADD15P,1.415766X8X333.500000*%
%ADD16P,1.415766X8X253.500000*%
%ADD17R,1.400000X4.000000*%
%ADD18P,1.429621X8X262.500000*%
%ADD19P,1.429621X8X324.500000*%
%ADD20C,0.609600*%
%ADD21C,0.304800*%
%ADD22C,0.756400*%
%ADD23C,1.016000*%

G36*
X338773Y8262D02*
X338773Y8262D01*
X338849Y8260D01*
X339018Y8282D01*
X339189Y8296D01*
X339263Y8314D01*
X339338Y8324D01*
X339502Y8373D01*
X339668Y8414D01*
X339737Y8444D01*
X339811Y8466D01*
X339964Y8542D01*
X340121Y8609D01*
X340185Y8650D01*
X340254Y8683D01*
X340393Y8782D01*
X340537Y8874D01*
X340594Y8925D01*
X340656Y8969D01*
X340777Y9089D01*
X340905Y9203D01*
X340953Y9262D01*
X341007Y9316D01*
X341108Y9454D01*
X341215Y9587D01*
X341252Y9653D01*
X341297Y9714D01*
X341374Y9867D01*
X341459Y10015D01*
X341485Y10087D01*
X341520Y10155D01*
X341571Y10318D01*
X341630Y10478D01*
X341645Y10553D01*
X341668Y10625D01*
X341680Y10730D01*
X341725Y10962D01*
X341732Y11198D01*
X341744Y11303D01*
X341744Y58697D01*
X341738Y58773D01*
X341740Y58849D01*
X341718Y59018D01*
X341704Y59189D01*
X341686Y59263D01*
X341676Y59338D01*
X341627Y59502D01*
X341586Y59668D01*
X341556Y59737D01*
X341534Y59811D01*
X341458Y59964D01*
X341391Y60121D01*
X341350Y60185D01*
X341317Y60254D01*
X341218Y60393D01*
X341126Y60537D01*
X341075Y60594D01*
X341031Y60656D01*
X340911Y60777D01*
X340797Y60905D01*
X340738Y60953D01*
X340684Y61007D01*
X340546Y61108D01*
X340413Y61215D01*
X340347Y61252D01*
X340286Y61297D01*
X340133Y61374D01*
X339985Y61459D01*
X339913Y61485D01*
X339845Y61520D01*
X339682Y61571D01*
X339522Y61630D01*
X339447Y61645D01*
X339375Y61668D01*
X339270Y61680D01*
X339038Y61725D01*
X338802Y61732D01*
X338697Y61744D01*
X336437Y61744D01*
X336288Y61732D01*
X336202Y61735D01*
X334970Y61640D01*
X334880Y61668D01*
X334800Y61677D01*
X334668Y61709D01*
X334397Y61728D01*
X333245Y62205D01*
X333102Y62251D01*
X333024Y62287D01*
X331849Y62670D01*
X331777Y62731D01*
X331706Y62770D01*
X331597Y62849D01*
X331353Y62971D01*
X330472Y63853D01*
X330358Y63950D01*
X330299Y64013D01*
X329360Y64817D01*
X329317Y64900D01*
X329266Y64963D01*
X329195Y65079D01*
X329017Y65285D01*
X328873Y65634D01*
X328868Y65642D01*
X328865Y65652D01*
X328758Y65857D01*
X328648Y66073D01*
X328642Y66081D01*
X328637Y66089D01*
X328612Y66120D01*
X328355Y66470D01*
X328261Y66561D01*
X328212Y66622D01*
X326897Y67937D01*
X326897Y75150D01*
X326889Y75247D01*
X326891Y75344D01*
X326873Y75444D01*
X326857Y75641D01*
X326790Y75915D01*
X326786Y75932D01*
X326786Y75936D01*
X326785Y75938D01*
X326772Y76016D01*
X323811Y86001D01*
X323633Y86461D01*
X323587Y86539D01*
X323565Y86593D01*
X319308Y94401D01*
X319256Y94480D01*
X319213Y94564D01*
X319149Y94643D01*
X319038Y94814D01*
X318852Y95016D01*
X318787Y95097D01*
X302227Y111657D01*
X301985Y111863D01*
X301916Y111929D01*
X301539Y112216D01*
X301123Y112481D01*
X301040Y112517D01*
X300990Y112548D01*
X291032Y117222D01*
X290606Y117382D01*
X290582Y117392D01*
X285334Y118905D01*
X285270Y118918D01*
X285228Y118933D01*
X285091Y118967D01*
X285061Y118972D01*
X285040Y118980D01*
X283258Y119393D01*
X283065Y119470D01*
X282971Y119490D01*
X282913Y119512D01*
X282348Y119653D01*
X282317Y119658D01*
X282286Y119668D01*
X282200Y119678D01*
X281861Y119734D01*
X281699Y119734D01*
X281609Y119744D01*
X281358Y119744D01*
X280613Y120053D01*
X280253Y120169D01*
X280186Y120194D01*
X279405Y120389D01*
X279203Y120538D01*
X279176Y120555D01*
X279152Y120575D01*
X279077Y120617D01*
X278784Y120799D01*
X278634Y120861D01*
X278555Y120905D01*
X278323Y121001D01*
X277754Y121571D01*
X277465Y121816D01*
X277413Y121865D01*
X276766Y122344D01*
X276637Y122559D01*
X276618Y122585D01*
X276604Y122613D01*
X276550Y122680D01*
X276350Y122960D01*
X276235Y123075D01*
X276178Y123146D01*
X276001Y123324D01*
X275693Y124068D01*
X275520Y124405D01*
X275490Y124470D01*
X275076Y125161D01*
X275039Y125409D01*
X275032Y125439D01*
X275029Y125471D01*
X275005Y125554D01*
X274927Y125889D01*
X274865Y126039D01*
X274840Y126126D01*
X274744Y126358D01*
X274744Y127164D01*
X274740Y127222D01*
X274740Y127251D01*
X274732Y127315D01*
X274714Y127541D01*
X274711Y127612D01*
X274592Y128409D01*
X274653Y128652D01*
X274658Y128683D01*
X274668Y128714D01*
X274678Y128800D01*
X274734Y129139D01*
X274734Y129301D01*
X274744Y129391D01*
X274744Y205642D01*
X276001Y208677D01*
X278323Y210999D01*
X281358Y212256D01*
X288697Y212256D01*
X288773Y212262D01*
X288849Y212260D01*
X289018Y212282D01*
X289189Y212296D01*
X289263Y212314D01*
X289338Y212324D01*
X289502Y212373D01*
X289668Y212414D01*
X289737Y212444D01*
X289811Y212466D01*
X289964Y212542D01*
X290121Y212609D01*
X290185Y212650D01*
X290254Y212683D01*
X290393Y212782D01*
X290537Y212874D01*
X290594Y212925D01*
X290656Y212969D01*
X290777Y213089D01*
X290905Y213203D01*
X290953Y213262D01*
X291007Y213316D01*
X291108Y213454D01*
X291215Y213587D01*
X291252Y213653D01*
X291297Y213714D01*
X291374Y213867D01*
X291459Y214015D01*
X291485Y214087D01*
X291520Y214155D01*
X291571Y214318D01*
X291630Y214478D01*
X291645Y214553D01*
X291668Y214625D01*
X291680Y214730D01*
X291725Y214962D01*
X291732Y215198D01*
X291744Y215303D01*
X291744Y272480D01*
X291729Y272663D01*
X291731Y272760D01*
X291487Y275412D01*
X293647Y281403D01*
X298143Y285913D01*
X300028Y286598D01*
X300098Y286630D01*
X300171Y286654D01*
X300322Y286733D01*
X300477Y286804D01*
X300540Y286847D01*
X300609Y286882D01*
X300691Y286948D01*
X300886Y287079D01*
X301059Y287242D01*
X301142Y287307D01*
X311121Y297287D01*
X311242Y297429D01*
X311368Y297566D01*
X311401Y297616D01*
X311441Y297663D01*
X311537Y297822D01*
X311639Y297978D01*
X311664Y298033D01*
X311695Y298085D01*
X311764Y298258D01*
X311840Y298428D01*
X311856Y298487D01*
X311878Y298543D01*
X311919Y298725D01*
X311966Y298905D01*
X311972Y298966D01*
X311985Y299025D01*
X311996Y299211D01*
X312013Y299396D01*
X312009Y299457D01*
X312013Y299518D01*
X311993Y299703D01*
X311981Y299888D01*
X311967Y299948D01*
X311961Y300008D01*
X311911Y300187D01*
X311869Y300369D01*
X311846Y300425D01*
X311830Y300484D01*
X311752Y300653D01*
X311681Y300825D01*
X311650Y300877D01*
X311624Y300932D01*
X311520Y301087D01*
X311423Y301245D01*
X311383Y301291D01*
X311349Y301342D01*
X311222Y301477D01*
X311099Y301618D01*
X311053Y301657D01*
X311011Y301701D01*
X310863Y301814D01*
X310720Y301933D01*
X310668Y301964D01*
X310620Y302001D01*
X310455Y302089D01*
X310295Y302184D01*
X310249Y302200D01*
X310185Y302235D01*
X309718Y302395D01*
X309678Y302401D01*
X309652Y302411D01*
X307677Y302867D01*
X307029Y303904D01*
X306902Y304074D01*
X306779Y304248D01*
X306755Y304272D01*
X306735Y304299D01*
X306582Y304447D01*
X306433Y304599D01*
X306405Y304619D01*
X306380Y304643D01*
X306206Y304764D01*
X306034Y304889D01*
X306003Y304904D01*
X305975Y304924D01*
X305783Y305016D01*
X305593Y305111D01*
X305561Y305122D01*
X305530Y305136D01*
X305326Y305196D01*
X305123Y305260D01*
X305095Y305263D01*
X305056Y305274D01*
X304567Y305334D01*
X304493Y305331D01*
X304445Y305336D01*
X288700Y305336D01*
X288576Y305326D01*
X288500Y305329D01*
X285927Y305161D01*
X285439Y305089D01*
X285380Y305070D01*
X285338Y305064D01*
X280367Y303732D01*
X280313Y303712D01*
X280257Y303700D01*
X280230Y303688D01*
X280199Y303680D01*
X280075Y303627D01*
X279902Y303566D01*
X279802Y303510D01*
X279745Y303486D01*
X279699Y303456D01*
X279632Y303427D01*
X275175Y300854D01*
X275128Y300821D01*
X275077Y300795D01*
X274996Y300730D01*
X274769Y300574D01*
X274623Y300433D01*
X274544Y300370D01*
X270905Y296731D01*
X270868Y296687D01*
X270826Y296648D01*
X270764Y296565D01*
X270586Y296355D01*
X270481Y296181D01*
X270421Y296100D01*
X267848Y291643D01*
X267823Y291591D01*
X267792Y291543D01*
X267754Y291446D01*
X267636Y291197D01*
X267580Y291002D01*
X267543Y290908D01*
X266211Y285937D01*
X266123Y285452D01*
X266121Y285389D01*
X266114Y285347D01*
X265945Y282774D01*
X265947Y282650D01*
X265939Y282575D01*
X265939Y231048D01*
X263527Y223625D01*
X258939Y217311D01*
X254302Y213941D01*
X254300Y213940D01*
X254299Y213939D01*
X254119Y213784D01*
X253928Y213620D01*
X253926Y213618D01*
X253925Y213617D01*
X253767Y213429D01*
X253610Y213242D01*
X253609Y213241D01*
X253608Y213239D01*
X253603Y213230D01*
X253357Y212819D01*
X253313Y212707D01*
X253278Y212642D01*
X252482Y210720D01*
X249909Y208147D01*
X246548Y206755D01*
X229702Y206755D01*
X226341Y208147D01*
X223768Y210720D01*
X222744Y213193D01*
X222645Y213386D01*
X222549Y213583D01*
X222532Y213606D01*
X222519Y213632D01*
X222390Y213807D01*
X222263Y213985D01*
X222243Y214006D01*
X222226Y214029D01*
X222070Y214181D01*
X221916Y214336D01*
X221893Y214353D01*
X221873Y214373D01*
X221694Y214498D01*
X221518Y214627D01*
X221492Y214640D01*
X221469Y214656D01*
X221272Y214751D01*
X221077Y214849D01*
X221050Y214858D01*
X221024Y214870D01*
X220815Y214932D01*
X220607Y214997D01*
X220583Y215000D01*
X220551Y215010D01*
X220062Y215071D01*
X219981Y215068D01*
X219929Y215074D01*
X213893Y215074D01*
X213855Y215071D01*
X213817Y215073D01*
X213609Y215051D01*
X213402Y215034D01*
X213365Y215025D01*
X213327Y215021D01*
X213125Y214965D01*
X212923Y214915D01*
X212888Y214900D01*
X212851Y214890D01*
X212661Y214803D01*
X212469Y214721D01*
X212437Y214700D01*
X212403Y214684D01*
X212229Y214567D01*
X212053Y214456D01*
X212025Y214430D01*
X211993Y214409D01*
X211841Y214266D01*
X211685Y214127D01*
X211662Y214097D01*
X211634Y214071D01*
X211506Y213905D01*
X211376Y213743D01*
X211357Y213710D01*
X211333Y213680D01*
X211234Y213495D01*
X211132Y213314D01*
X211118Y213278D01*
X211100Y213245D01*
X211033Y213047D01*
X210960Y212852D01*
X210953Y212814D01*
X210940Y212778D01*
X210905Y212572D01*
X210865Y212368D01*
X210864Y212330D01*
X210858Y212292D01*
X210856Y212082D01*
X210850Y211874D01*
X210855Y211837D01*
X210855Y211798D01*
X210887Y211592D01*
X210914Y211385D01*
X210925Y211349D01*
X210931Y211311D01*
X210996Y211113D01*
X211057Y210913D01*
X211074Y210879D01*
X211085Y210843D01*
X211182Y210657D01*
X211274Y210470D01*
X211296Y210439D01*
X211313Y210405D01*
X211371Y210332D01*
X211559Y210068D01*
X211680Y209945D01*
X211739Y209872D01*
X215553Y206058D01*
X218256Y199532D01*
X218256Y70358D01*
X216999Y67323D01*
X214677Y65001D01*
X211642Y63744D01*
X189358Y63744D01*
X186323Y65001D01*
X184001Y67323D01*
X182744Y70358D01*
X182744Y196679D01*
X182742Y196709D01*
X182744Y196739D01*
X182722Y196954D01*
X182704Y197170D01*
X182697Y197200D01*
X182694Y197230D01*
X182638Y197439D01*
X182586Y197649D01*
X182574Y197677D01*
X182566Y197706D01*
X182476Y197904D01*
X182391Y198102D01*
X182375Y198128D01*
X182362Y198155D01*
X182242Y198336D01*
X182126Y198519D01*
X182106Y198541D01*
X182089Y198566D01*
X181941Y198725D01*
X181797Y198886D01*
X181774Y198905D01*
X181753Y198927D01*
X181582Y199061D01*
X181413Y199196D01*
X181387Y199211D01*
X181363Y199230D01*
X181173Y199333D01*
X180985Y199440D01*
X180956Y199451D01*
X180930Y199465D01*
X180725Y199537D01*
X180522Y199612D01*
X180493Y199618D01*
X180464Y199628D01*
X180250Y199665D01*
X180038Y199707D01*
X180008Y199708D01*
X179978Y199713D01*
X179761Y199715D01*
X179545Y199722D01*
X179515Y199718D01*
X179485Y199718D01*
X179271Y199686D01*
X179056Y199658D01*
X179027Y199649D01*
X178997Y199644D01*
X178918Y199616D01*
X178584Y199515D01*
X178440Y199445D01*
X178355Y199414D01*
X172582Y196582D01*
X170143Y196234D01*
X170104Y196225D01*
X170063Y196221D01*
X169972Y196195D01*
X169662Y196125D01*
X169499Y196059D01*
X169408Y196033D01*
X169387Y196024D01*
X168889Y196024D01*
X168543Y195996D01*
X168458Y195993D01*
X167965Y195923D01*
X167943Y195928D01*
X167903Y195935D01*
X167864Y195947D01*
X167769Y195958D01*
X167456Y196012D01*
X167281Y196013D01*
X167186Y196024D01*
X152298Y196024D01*
X146066Y198049D01*
X140764Y201901D01*
X136911Y207203D01*
X134886Y213436D01*
X134886Y271448D01*
X134870Y271648D01*
X134860Y271847D01*
X134851Y271884D01*
X134846Y271939D01*
X134844Y271950D01*
X134884Y273047D01*
X134881Y273114D01*
X134886Y273159D01*
X134886Y273527D01*
X134882Y273578D01*
X134885Y273614D01*
X134763Y277892D01*
X134709Y278382D01*
X134692Y278442D01*
X134688Y278484D01*
X132691Y287214D01*
X132674Y287269D01*
X132664Y287325D01*
X132626Y287422D01*
X132543Y287685D01*
X132451Y287866D01*
X132414Y287960D01*
X128226Y295876D01*
X128195Y295924D01*
X128171Y295976D01*
X128109Y296060D01*
X127961Y296292D01*
X127826Y296443D01*
X127766Y296525D01*
X121671Y303087D01*
X121629Y303126D01*
X121592Y303169D01*
X121511Y303234D01*
X121308Y303420D01*
X121138Y303531D01*
X121059Y303594D01*
X113474Y308356D01*
X113423Y308382D01*
X113376Y308415D01*
X113281Y308456D01*
X113036Y308583D01*
X112844Y308647D01*
X112750Y308687D01*
X104192Y311323D01*
X103710Y311430D01*
X103647Y311433D01*
X103606Y311442D01*
X99200Y311895D01*
X98990Y311900D01*
X98888Y311911D01*
X91186Y311911D01*
X91148Y311908D01*
X91110Y311910D01*
X90902Y311888D01*
X90694Y311871D01*
X90657Y311862D01*
X90619Y311858D01*
X90418Y311803D01*
X90215Y311753D01*
X90180Y311738D01*
X90144Y311727D01*
X89954Y311640D01*
X89762Y311558D01*
X89730Y311538D01*
X89695Y311522D01*
X89522Y311405D01*
X89346Y311293D01*
X89318Y311268D01*
X89286Y311246D01*
X89134Y311103D01*
X88978Y310964D01*
X88954Y310935D01*
X88926Y310909D01*
X88799Y310743D01*
X88668Y310580D01*
X88649Y310547D01*
X88626Y310517D01*
X88527Y310333D01*
X88424Y310152D01*
X88411Y310116D01*
X88393Y310082D01*
X88325Y309885D01*
X88253Y309689D01*
X88245Y309652D01*
X88233Y309616D01*
X88198Y309409D01*
X88158Y309205D01*
X88157Y309167D01*
X88150Y309129D01*
X88149Y308920D01*
X88143Y308712D01*
X88148Y308674D01*
X88147Y308636D01*
X88180Y308429D01*
X88207Y308223D01*
X88218Y308186D01*
X88224Y308149D01*
X88289Y307950D01*
X88349Y307751D01*
X88366Y307716D01*
X88378Y307680D01*
X88475Y307495D01*
X88566Y307307D01*
X88588Y307276D01*
X88606Y307242D01*
X88664Y307170D01*
X88852Y306905D01*
X88973Y306783D01*
X89031Y306709D01*
X95086Y300654D01*
X95265Y300503D01*
X95443Y300349D01*
X95453Y300343D01*
X95462Y300335D01*
X95666Y300212D01*
X95863Y300091D01*
X95873Y300087D01*
X95885Y300080D01*
X96343Y299897D01*
X96442Y299875D01*
X96502Y299853D01*
X99508Y299101D01*
X103853Y295538D01*
X106256Y290459D01*
X106256Y215303D01*
X106262Y215227D01*
X106260Y215151D01*
X106282Y214982D01*
X106296Y214811D01*
X106314Y214737D01*
X106324Y214662D01*
X106373Y214498D01*
X106414Y214332D01*
X106444Y214263D01*
X106466Y214189D01*
X106542Y214036D01*
X106609Y213879D01*
X106650Y213815D01*
X106683Y213746D01*
X106782Y213607D01*
X106874Y213463D01*
X106925Y213406D01*
X106969Y213344D01*
X107089Y213223D01*
X107203Y213095D01*
X107262Y213047D01*
X107316Y212993D01*
X107454Y212892D01*
X107587Y212785D01*
X107653Y212748D01*
X107714Y212703D01*
X107867Y212626D01*
X108015Y212541D01*
X108087Y212515D01*
X108155Y212480D01*
X108318Y212429D01*
X108478Y212370D01*
X108553Y212355D01*
X108625Y212332D01*
X108730Y212320D01*
X108962Y212275D01*
X109198Y212268D01*
X109303Y212256D01*
X117642Y212256D01*
X120677Y210999D01*
X121105Y210570D01*
X121192Y210496D01*
X121272Y210415D01*
X121380Y210337D01*
X121392Y210327D01*
X121396Y210320D01*
X121612Y210078D01*
X121670Y210005D01*
X122999Y208677D01*
X124256Y205642D01*
X124256Y127235D01*
X124296Y126743D01*
X124321Y126642D01*
X124328Y126577D01*
X124416Y126179D01*
X124302Y125539D01*
X124256Y125048D01*
X124258Y125024D01*
X124256Y125008D01*
X124256Y124358D01*
X124100Y123981D01*
X123949Y123512D01*
X123933Y123409D01*
X123914Y123346D01*
X123843Y122945D01*
X123494Y122397D01*
X123263Y121961D01*
X123256Y121939D01*
X123248Y121924D01*
X122999Y121324D01*
X122711Y121035D01*
X122391Y120659D01*
X122338Y120570D01*
X122296Y120519D01*
X122077Y120175D01*
X121975Y120091D01*
X121866Y120014D01*
X121786Y119934D01*
X121699Y119862D01*
X121610Y119761D01*
X121515Y119667D01*
X121449Y119576D01*
X121374Y119491D01*
X121303Y119377D01*
X121225Y119268D01*
X121174Y119168D01*
X121118Y119077D01*
X119388Y117347D01*
X115982Y117347D01*
X115922Y117342D01*
X115862Y117345D01*
X115759Y117329D01*
X115490Y117307D01*
X115289Y117257D01*
X115188Y117242D01*
X111435Y116229D01*
X111125Y116118D01*
X111037Y116091D01*
X99207Y111064D01*
X98770Y110835D01*
X98738Y110811D01*
X98713Y110798D01*
X88004Y103689D01*
X87745Y103485D01*
X87671Y103433D01*
X83890Y100088D01*
X83780Y99974D01*
X83664Y99867D01*
X83624Y99811D01*
X83548Y99733D01*
X83397Y99513D01*
X82554Y98860D01*
X82383Y98703D01*
X82299Y98639D01*
X81536Y97898D01*
X81475Y97871D01*
X81429Y97840D01*
X81352Y97802D01*
X80951Y97515D01*
X80930Y97495D01*
X80914Y97483D01*
X80203Y96863D01*
X79859Y96510D01*
X79847Y96492D01*
X79837Y96482D01*
X76973Y92937D01*
X76967Y92927D01*
X76959Y92919D01*
X76935Y92880D01*
X76696Y92529D01*
X76639Y92408D01*
X76597Y92341D01*
X74625Y88233D01*
X74621Y88222D01*
X74615Y88212D01*
X74600Y88168D01*
X74448Y87772D01*
X74421Y87642D01*
X74396Y87566D01*
X73420Y83115D01*
X73354Y82626D01*
X73355Y82605D01*
X73352Y82590D01*
X73258Y80345D01*
X73261Y80268D01*
X73256Y80217D01*
X73256Y80091D01*
X73258Y80062D01*
X73256Y80042D01*
X73286Y78199D01*
X73260Y78006D01*
X73263Y77908D01*
X73256Y77846D01*
X73256Y68358D01*
X71999Y65323D01*
X69677Y63001D01*
X66642Y61744D01*
X61303Y61744D01*
X61227Y61738D01*
X61151Y61740D01*
X60982Y61718D01*
X60811Y61704D01*
X60737Y61686D01*
X60662Y61676D01*
X60498Y61627D01*
X60332Y61586D01*
X60263Y61556D01*
X60189Y61534D01*
X60036Y61458D01*
X59879Y61391D01*
X59815Y61350D01*
X59746Y61317D01*
X59607Y61218D01*
X59463Y61126D01*
X59406Y61075D01*
X59344Y61031D01*
X59223Y60911D01*
X59095Y60797D01*
X59047Y60738D01*
X58993Y60684D01*
X58892Y60546D01*
X58785Y60413D01*
X58748Y60347D01*
X58703Y60286D01*
X58626Y60133D01*
X58541Y59985D01*
X58515Y59913D01*
X58480Y59845D01*
X58429Y59682D01*
X58370Y59522D01*
X58355Y59447D01*
X58332Y59375D01*
X58320Y59270D01*
X58275Y59038D01*
X58268Y58802D01*
X58256Y58697D01*
X58256Y11303D01*
X58262Y11227D01*
X58260Y11151D01*
X58282Y10982D01*
X58296Y10811D01*
X58314Y10737D01*
X58324Y10662D01*
X58373Y10498D01*
X58414Y10332D01*
X58444Y10263D01*
X58466Y10189D01*
X58542Y10036D01*
X58609Y9879D01*
X58650Y9815D01*
X58683Y9746D01*
X58782Y9607D01*
X58874Y9463D01*
X58925Y9406D01*
X58969Y9344D01*
X59089Y9223D01*
X59203Y9095D01*
X59262Y9047D01*
X59316Y8993D01*
X59454Y8892D01*
X59587Y8785D01*
X59653Y8748D01*
X59714Y8703D01*
X59867Y8626D01*
X60015Y8541D01*
X60087Y8515D01*
X60155Y8480D01*
X60318Y8429D01*
X60478Y8370D01*
X60553Y8355D01*
X60625Y8332D01*
X60730Y8320D01*
X60962Y8275D01*
X61198Y8268D01*
X61303Y8256D01*
X338697Y8256D01*
X338773Y8262D01*
G37*
G36*
X207340Y235782D02*
X207340Y235782D01*
X207416Y235780D01*
X207585Y235802D01*
X207756Y235816D01*
X207830Y235835D01*
X207905Y235844D01*
X208069Y235894D01*
X208235Y235935D01*
X208304Y235965D01*
X208378Y235987D01*
X208531Y236062D01*
X208688Y236129D01*
X208752Y236170D01*
X208821Y236204D01*
X208960Y236303D01*
X209104Y236394D01*
X209161Y236445D01*
X209223Y236489D01*
X209344Y236609D01*
X209472Y236723D01*
X209520Y236783D01*
X209574Y236836D01*
X209675Y236974D01*
X209782Y237107D01*
X209819Y237173D01*
X209864Y237235D01*
X209941Y237387D01*
X210026Y237536D01*
X210052Y237607D01*
X210087Y237675D01*
X210138Y237838D01*
X210197Y237998D01*
X210212Y238073D01*
X210235Y238146D01*
X210247Y238251D01*
X210292Y238482D01*
X210299Y238719D01*
X210311Y238823D01*
X210311Y248762D01*
X211162Y250816D01*
X222119Y261772D01*
X222193Y261859D01*
X222274Y261940D01*
X222352Y262047D01*
X222438Y262148D01*
X222497Y262246D01*
X222564Y262338D01*
X222624Y262457D01*
X222693Y262571D01*
X222735Y262677D01*
X222787Y262779D01*
X222827Y262906D01*
X222876Y263029D01*
X222901Y263140D01*
X222935Y263249D01*
X222945Y263343D01*
X222983Y263511D01*
X223001Y263835D01*
X223011Y263927D01*
X223011Y314787D01*
X223005Y314863D01*
X223007Y314939D01*
X222985Y315108D01*
X222971Y315279D01*
X222953Y315353D01*
X222943Y315428D01*
X222894Y315592D01*
X222853Y315758D01*
X222823Y315827D01*
X222801Y315901D01*
X222725Y316054D01*
X222658Y316211D01*
X222617Y316275D01*
X222584Y316344D01*
X222485Y316483D01*
X222393Y316627D01*
X222342Y316684D01*
X222298Y316746D01*
X222178Y316867D01*
X222064Y316995D01*
X222005Y317043D01*
X221951Y317097D01*
X221813Y317198D01*
X221680Y317305D01*
X221614Y317342D01*
X221553Y317387D01*
X221400Y317464D01*
X221252Y317549D01*
X221180Y317575D01*
X221112Y317610D01*
X220949Y317661D01*
X220789Y317720D01*
X220714Y317735D01*
X220642Y317758D01*
X220537Y317770D01*
X220305Y317815D01*
X220069Y317822D01*
X219964Y317834D01*
X180973Y317834D01*
X179484Y319323D01*
X179484Y347427D01*
X180973Y348916D01*
X198359Y348916D01*
X198501Y348927D01*
X198644Y348929D01*
X198747Y348947D01*
X198851Y348956D01*
X198989Y348990D01*
X199130Y349015D01*
X199228Y349049D01*
X199330Y349074D01*
X199461Y349131D01*
X199595Y349178D01*
X199687Y349228D01*
X199783Y349269D01*
X199903Y349345D01*
X200029Y349414D01*
X200111Y349478D01*
X200199Y349534D01*
X200305Y349629D01*
X200418Y349716D01*
X200489Y349793D01*
X200567Y349863D01*
X200657Y349974D01*
X200754Y350078D01*
X200811Y350165D01*
X200877Y350247D01*
X200947Y350370D01*
X201026Y350489D01*
X201069Y350584D01*
X201121Y350675D01*
X201171Y350809D01*
X201229Y350939D01*
X201256Y351040D01*
X201293Y351138D01*
X201320Y351278D01*
X201357Y351415D01*
X201367Y351520D01*
X201387Y351622D01*
X201392Y351764D01*
X201406Y351906D01*
X201399Y352011D01*
X201403Y352115D01*
X201384Y352256D01*
X201375Y352399D01*
X201352Y352500D01*
X201338Y352604D01*
X201297Y352741D01*
X201265Y352880D01*
X201226Y352976D01*
X201196Y353076D01*
X201133Y353205D01*
X201079Y353337D01*
X201025Y353426D01*
X200979Y353520D01*
X200896Y353636D01*
X200822Y353757D01*
X200754Y353837D01*
X200693Y353922D01*
X200593Y354023D01*
X200500Y354131D01*
X200420Y354199D01*
X200347Y354273D01*
X200231Y354357D01*
X200122Y354448D01*
X200054Y354486D01*
X199948Y354563D01*
X199561Y354759D01*
X199525Y354778D01*
X197814Y355487D01*
X193562Y359739D01*
X191261Y365294D01*
X191261Y482600D01*
X191251Y482724D01*
X191255Y482799D01*
X190989Y486852D01*
X190930Y487254D01*
X190922Y487315D01*
X190920Y487321D01*
X190917Y487340D01*
X190898Y487400D01*
X190892Y487442D01*
X188794Y495272D01*
X188775Y495325D01*
X188762Y495381D01*
X188721Y495477D01*
X188628Y495736D01*
X188530Y495914D01*
X188489Y496007D01*
X184436Y503027D01*
X184404Y503074D01*
X184377Y503125D01*
X184313Y503206D01*
X184156Y503432D01*
X184015Y503579D01*
X183952Y503658D01*
X178220Y509390D01*
X178177Y509427D01*
X178138Y509469D01*
X178054Y509531D01*
X177844Y509709D01*
X177671Y509814D01*
X177589Y509874D01*
X170569Y513927D01*
X170517Y513951D01*
X170469Y513982D01*
X170373Y514020D01*
X170123Y514138D01*
X169928Y514194D01*
X169834Y514231D01*
X162004Y516329D01*
X161519Y516418D01*
X161456Y516419D01*
X161415Y516427D01*
X157362Y516692D01*
X157238Y516690D01*
X157163Y516699D01*
X112712Y516699D01*
X112514Y516683D01*
X112414Y516684D01*
X111621Y516606D01*
X111516Y516587D01*
X111409Y516578D01*
X111316Y516551D01*
X111136Y516518D01*
X110848Y516416D01*
X110754Y516389D01*
X109289Y515782D01*
X109280Y515777D01*
X109271Y515774D01*
X109062Y515666D01*
X108850Y515557D01*
X108842Y515551D01*
X108833Y515547D01*
X108802Y515522D01*
X108453Y515264D01*
X108361Y515170D01*
X108300Y515121D01*
X107629Y514451D01*
X107580Y514392D01*
X107524Y514340D01*
X107420Y514205D01*
X107310Y514075D01*
X107270Y514009D01*
X107224Y513949D01*
X107143Y513799D01*
X107055Y513652D01*
X107027Y513581D01*
X106991Y513514D01*
X106935Y513353D01*
X106872Y513194D01*
X106855Y513120D01*
X106831Y513047D01*
X106802Y512879D01*
X106765Y512712D01*
X106761Y512636D01*
X106748Y512561D01*
X106747Y512390D01*
X106737Y512220D01*
X106746Y512144D01*
X106745Y512068D01*
X106772Y511899D01*
X106790Y511729D01*
X106810Y511656D01*
X106822Y511580D01*
X106875Y511418D01*
X106920Y511253D01*
X106952Y511184D01*
X106976Y511112D01*
X107055Y510960D01*
X107126Y510805D01*
X107169Y510742D01*
X107204Y510674D01*
X107269Y510592D01*
X107401Y510396D01*
X107563Y510223D01*
X107629Y510141D01*
X109157Y508613D01*
X109157Y501037D01*
X103800Y495680D01*
X96225Y495680D01*
X94445Y497460D01*
X94307Y497577D01*
X94175Y497700D01*
X94119Y497737D01*
X94069Y497780D01*
X93914Y497873D01*
X93764Y497973D01*
X93703Y498000D01*
X93646Y498034D01*
X93479Y498101D01*
X93314Y498176D01*
X93250Y498193D01*
X93188Y498218D01*
X93012Y498257D01*
X92837Y498303D01*
X92771Y498310D01*
X92706Y498324D01*
X92526Y498334D01*
X92347Y498352D01*
X92280Y498348D01*
X92214Y498352D01*
X92034Y498333D01*
X91854Y498322D01*
X91789Y498307D01*
X91723Y498300D01*
X91549Y498252D01*
X91373Y498212D01*
X91312Y498187D01*
X91247Y498169D01*
X91083Y498094D01*
X90916Y498026D01*
X90860Y497991D01*
X90799Y497963D01*
X90649Y497863D01*
X90495Y497769D01*
X90445Y497725D01*
X90390Y497688D01*
X90258Y497564D01*
X90121Y497447D01*
X90079Y497396D01*
X90030Y497350D01*
X89921Y497207D01*
X89804Y497069D01*
X89779Y497022D01*
X89730Y496959D01*
X89497Y496524D01*
X89486Y496492D01*
X89474Y496472D01*
X88999Y495323D01*
X86677Y493001D01*
X85171Y492378D01*
X85163Y492373D01*
X85153Y492370D01*
X84942Y492260D01*
X84732Y492153D01*
X84724Y492147D01*
X84716Y492142D01*
X84684Y492117D01*
X84335Y491860D01*
X84244Y491766D01*
X84183Y491717D01*
X77220Y484755D01*
X77146Y484668D01*
X77065Y484587D01*
X76987Y484480D01*
X76901Y484379D01*
X76842Y484281D01*
X76775Y484189D01*
X76715Y484070D01*
X76646Y483956D01*
X76604Y483850D01*
X76552Y483748D01*
X76512Y483621D01*
X76463Y483498D01*
X76438Y483387D01*
X76404Y483278D01*
X76394Y483184D01*
X76356Y483017D01*
X76338Y482692D01*
X76328Y482600D01*
X76328Y409575D01*
X76334Y409499D01*
X76332Y409423D01*
X76354Y409254D01*
X76368Y409083D01*
X76386Y409009D01*
X76396Y408934D01*
X76445Y408770D01*
X76486Y408604D01*
X76516Y408535D01*
X76538Y408462D01*
X76614Y408308D01*
X76681Y408151D01*
X76722Y408087D01*
X76755Y408018D01*
X76854Y407879D01*
X76946Y407735D01*
X76997Y407678D01*
X77041Y407616D01*
X77161Y407495D01*
X77275Y407367D01*
X77334Y407319D01*
X77388Y407265D01*
X77526Y407164D01*
X77659Y407057D01*
X77725Y407020D01*
X77786Y406975D01*
X77939Y406898D01*
X78087Y406813D01*
X78159Y406787D01*
X78227Y406752D01*
X78390Y406701D01*
X78550Y406642D01*
X78625Y406627D01*
X78697Y406604D01*
X78802Y406592D01*
X79034Y406547D01*
X79270Y406540D01*
X79375Y406528D01*
X102513Y406528D01*
X102669Y406540D01*
X102826Y406544D01*
X102915Y406560D01*
X103004Y406568D01*
X103157Y406606D01*
X103311Y406634D01*
X103396Y406665D01*
X103483Y406686D01*
X103627Y406748D01*
X103775Y406802D01*
X103854Y406845D01*
X103937Y406881D01*
X104069Y406965D01*
X104206Y407042D01*
X104277Y407098D01*
X104353Y407146D01*
X104470Y407251D01*
X104593Y407348D01*
X104653Y407415D01*
X104721Y407475D01*
X104819Y407597D01*
X104925Y407713D01*
X104974Y407789D01*
X105030Y407859D01*
X105108Y407995D01*
X105194Y408127D01*
X105230Y408209D01*
X105274Y408287D01*
X105329Y408435D01*
X105392Y408578D01*
X105415Y408665D01*
X105446Y408750D01*
X105476Y408904D01*
X105515Y409056D01*
X105524Y409146D01*
X105541Y409234D01*
X105546Y409391D01*
X105560Y409548D01*
X105553Y409637D01*
X105556Y409727D01*
X105536Y409883D01*
X105524Y410040D01*
X105503Y410127D01*
X105492Y410216D01*
X105446Y410367D01*
X105410Y410519D01*
X105375Y410602D01*
X105349Y410689D01*
X105280Y410830D01*
X105219Y410975D01*
X105172Y411051D01*
X105132Y411132D01*
X105041Y411260D01*
X104958Y411393D01*
X104899Y411461D01*
X104847Y411534D01*
X104736Y411646D01*
X104633Y411764D01*
X104578Y411806D01*
X104500Y411885D01*
X104101Y412175D01*
X104096Y412178D01*
X104093Y412181D01*
X103902Y412296D01*
X99056Y417918D01*
X99021Y417990D01*
X99000Y418019D01*
X98984Y418050D01*
X98858Y418220D01*
X98735Y418392D01*
X98710Y418417D01*
X98689Y418446D01*
X98537Y418593D01*
X98389Y418743D01*
X98360Y418764D01*
X98334Y418788D01*
X98160Y418909D01*
X97990Y419033D01*
X97958Y419049D01*
X97929Y419070D01*
X97738Y419160D01*
X97549Y419256D01*
X97515Y419266D01*
X97483Y419282D01*
X97281Y419340D01*
X97079Y419404D01*
X97050Y419407D01*
X97010Y419419D01*
X96520Y419478D01*
X96448Y419475D01*
X96401Y419480D01*
X96225Y419480D01*
X90868Y424837D01*
X90868Y432413D01*
X96225Y437770D01*
X103800Y437770D01*
X109157Y432413D01*
X109157Y424837D01*
X108399Y424079D01*
X108263Y423919D01*
X108123Y423762D01*
X108103Y423731D01*
X108080Y423703D01*
X107971Y423523D01*
X107858Y423346D01*
X107844Y423312D01*
X107825Y423281D01*
X107747Y423085D01*
X107664Y422892D01*
X107656Y422856D01*
X107642Y422822D01*
X107596Y422617D01*
X107546Y422413D01*
X107543Y422377D01*
X107535Y422341D01*
X107523Y422130D01*
X107507Y421921D01*
X107510Y421885D01*
X107508Y421848D01*
X107530Y421639D01*
X107547Y421430D01*
X107556Y421394D01*
X107560Y421358D01*
X107615Y421155D01*
X107666Y420951D01*
X107681Y420917D01*
X107690Y420882D01*
X107778Y420690D01*
X107861Y420498D01*
X107878Y420473D01*
X107896Y420434D01*
X108172Y420024D01*
X108219Y419973D01*
X108246Y419935D01*
X109001Y419059D01*
X109098Y418963D01*
X109188Y418860D01*
X109253Y418810D01*
X109352Y418713D01*
X109684Y418478D01*
X109728Y418443D01*
X112940Y416496D01*
X113062Y416435D01*
X113180Y416364D01*
X113202Y416356D01*
X113232Y416339D01*
X113309Y416311D01*
X113381Y416275D01*
X113539Y416226D01*
X113695Y416168D01*
X113773Y416152D01*
X113822Y416135D01*
X117478Y415275D01*
X117495Y415272D01*
X117512Y415267D01*
X117572Y415261D01*
X117966Y415201D01*
X118107Y415203D01*
X118190Y415194D01*
X119180Y415199D01*
X119183Y415199D01*
X119186Y415199D01*
X119429Y415220D01*
X119514Y415227D01*
X120354Y415227D01*
X120516Y415240D01*
X120607Y415238D01*
X121197Y415287D01*
X121312Y415260D01*
X121689Y415235D01*
X121760Y415227D01*
X123937Y415227D01*
X124013Y415233D01*
X124089Y415231D01*
X124258Y415253D01*
X124429Y415267D01*
X124503Y415286D01*
X124578Y415295D01*
X124742Y415345D01*
X124908Y415386D01*
X124977Y415416D01*
X125051Y415438D01*
X125204Y415513D01*
X125361Y415580D01*
X125425Y415621D01*
X125494Y415655D01*
X125633Y415754D01*
X125777Y415845D01*
X125834Y415896D01*
X125896Y415940D01*
X126017Y416060D01*
X126145Y416174D01*
X126193Y416234D01*
X126247Y416287D01*
X126348Y416425D01*
X126455Y416558D01*
X126492Y416624D01*
X126537Y416686D01*
X126614Y416838D01*
X126699Y416987D01*
X126725Y417058D01*
X126760Y417126D01*
X126811Y417289D01*
X126870Y417449D01*
X126885Y417524D01*
X126908Y417597D01*
X126920Y417702D01*
X126965Y417933D01*
X126972Y418170D01*
X126984Y418274D01*
X126984Y433381D01*
X136073Y433381D01*
X136149Y433387D01*
X136225Y433385D01*
X136394Y433407D01*
X136540Y433419D01*
X136636Y433400D01*
X136872Y433393D01*
X136977Y433381D01*
X146066Y433381D01*
X146066Y418274D01*
X146072Y418198D01*
X146070Y418122D01*
X146092Y417953D01*
X146106Y417783D01*
X146124Y417709D01*
X146134Y417633D01*
X146183Y417470D01*
X146224Y417304D01*
X146254Y417234D01*
X146276Y417161D01*
X146352Y417007D01*
X146419Y416851D01*
X146460Y416786D01*
X146493Y416718D01*
X146592Y416578D01*
X146684Y416434D01*
X146735Y416378D01*
X146779Y416316D01*
X146899Y416194D01*
X147013Y416067D01*
X147072Y416019D01*
X147126Y415965D01*
X147264Y415864D01*
X147397Y415757D01*
X147463Y415719D01*
X147524Y415674D01*
X147677Y415597D01*
X147825Y415513D01*
X147897Y415486D01*
X147965Y415452D01*
X148128Y415401D01*
X148288Y415341D01*
X148363Y415326D01*
X148435Y415304D01*
X148540Y415292D01*
X148772Y415246D01*
X149008Y415239D01*
X149113Y415227D01*
X149337Y415227D01*
X149413Y415233D01*
X149489Y415231D01*
X149658Y415253D01*
X149829Y415267D01*
X149903Y415286D01*
X149978Y415295D01*
X150142Y415345D01*
X150308Y415386D01*
X150377Y415416D01*
X150451Y415438D01*
X150604Y415513D01*
X150761Y415580D01*
X150825Y415621D01*
X150894Y415655D01*
X151033Y415754D01*
X151177Y415845D01*
X151234Y415896D01*
X151296Y415940D01*
X151417Y416060D01*
X151545Y416174D01*
X151593Y416234D01*
X151647Y416287D01*
X151748Y416425D01*
X151855Y416558D01*
X151892Y416624D01*
X151937Y416686D01*
X152014Y416838D01*
X152099Y416987D01*
X152125Y417058D01*
X152160Y417126D01*
X152211Y417289D01*
X152270Y417449D01*
X152285Y417524D01*
X152308Y417597D01*
X152320Y417702D01*
X152365Y417933D01*
X152372Y418170D01*
X152384Y418274D01*
X152384Y456432D01*
X152378Y456508D01*
X152380Y456584D01*
X152358Y456753D01*
X152344Y456924D01*
X152326Y456998D01*
X152316Y457073D01*
X152267Y457237D01*
X152226Y457403D01*
X152196Y457472D01*
X152174Y457546D01*
X152098Y457699D01*
X152031Y457856D01*
X151990Y457920D01*
X151957Y457989D01*
X151858Y458128D01*
X151766Y458272D01*
X151715Y458329D01*
X151671Y458391D01*
X151551Y458512D01*
X151437Y458640D01*
X151378Y458688D01*
X151324Y458742D01*
X151186Y458843D01*
X151053Y458950D01*
X150987Y458987D01*
X150926Y459032D01*
X150773Y459109D01*
X150625Y459194D01*
X150553Y459220D01*
X150485Y459255D01*
X150322Y459306D01*
X150162Y459365D01*
X150087Y459380D01*
X150015Y459403D01*
X149910Y459415D01*
X149678Y459460D01*
X149442Y459467D01*
X149337Y459479D01*
X149113Y459479D01*
X149037Y459473D01*
X148961Y459475D01*
X148792Y459453D01*
X148621Y459439D01*
X148547Y459421D01*
X148472Y459411D01*
X148308Y459362D01*
X148142Y459321D01*
X148073Y459291D01*
X147999Y459269D01*
X147846Y459193D01*
X147689Y459126D01*
X147625Y459085D01*
X147556Y459052D01*
X147417Y458953D01*
X147273Y458861D01*
X147216Y458810D01*
X147154Y458766D01*
X147033Y458646D01*
X146905Y458532D01*
X146857Y458473D01*
X146803Y458419D01*
X146702Y458281D01*
X146595Y458148D01*
X146558Y458082D01*
X146513Y458021D01*
X146436Y457868D01*
X146351Y457720D01*
X146325Y457648D01*
X146290Y457580D01*
X146239Y457417D01*
X146180Y457257D01*
X146165Y457182D01*
X146142Y457110D01*
X146130Y457005D01*
X146085Y456773D01*
X146078Y456537D01*
X146066Y456432D01*
X146066Y440379D01*
X136977Y440379D01*
X136901Y440373D01*
X136825Y440375D01*
X136656Y440353D01*
X136510Y440341D01*
X136414Y440360D01*
X136178Y440367D01*
X136073Y440379D01*
X126984Y440379D01*
X126984Y457215D01*
X127157Y457861D01*
X127492Y458440D01*
X127965Y458913D01*
X128544Y459248D01*
X129190Y459421D01*
X132350Y459421D01*
X132388Y459424D01*
X132426Y459422D01*
X132634Y459444D01*
X132842Y459461D01*
X132879Y459470D01*
X132917Y459474D01*
X133118Y459529D01*
X133320Y459579D01*
X133355Y459594D01*
X133392Y459605D01*
X133582Y459692D01*
X133774Y459774D01*
X133806Y459794D01*
X133841Y459810D01*
X134014Y459927D01*
X134190Y460039D01*
X134218Y460064D01*
X134250Y460086D01*
X134402Y460229D01*
X134558Y460368D01*
X134582Y460397D01*
X134610Y460423D01*
X134737Y460590D01*
X134868Y460752D01*
X134886Y460784D01*
X134910Y460815D01*
X135009Y460999D01*
X135112Y461180D01*
X135125Y461216D01*
X135143Y461250D01*
X135211Y461447D01*
X135283Y461643D01*
X135291Y461680D01*
X135303Y461716D01*
X135338Y461923D01*
X135378Y462127D01*
X135379Y462165D01*
X135386Y462203D01*
X135387Y462412D01*
X135393Y462620D01*
X135388Y462658D01*
X135389Y462696D01*
X135356Y462903D01*
X135329Y463109D01*
X135318Y463146D01*
X135312Y463183D01*
X135247Y463382D01*
X135186Y463581D01*
X135170Y463616D01*
X135158Y463652D01*
X135061Y463837D01*
X134970Y464025D01*
X134948Y464056D01*
X134930Y464090D01*
X134872Y464162D01*
X134684Y464427D01*
X134563Y464549D01*
X134505Y464623D01*
X130724Y468404D01*
X127680Y473676D01*
X126104Y479556D01*
X126104Y485644D01*
X127680Y491524D01*
X130724Y496797D01*
X135028Y501101D01*
X140301Y504145D01*
X146181Y505721D01*
X152269Y505721D01*
X158149Y504145D01*
X163422Y501101D01*
X167726Y496797D01*
X170770Y491524D01*
X172346Y485644D01*
X172346Y479556D01*
X170770Y473676D01*
X167726Y468404D01*
X163945Y464623D01*
X163921Y464594D01*
X163892Y464568D01*
X163761Y464406D01*
X163626Y464247D01*
X163606Y464214D01*
X163582Y464184D01*
X163479Y464003D01*
X163371Y463824D01*
X163357Y463789D01*
X163338Y463756D01*
X163266Y463560D01*
X163188Y463366D01*
X163180Y463329D01*
X163167Y463293D01*
X163127Y463088D01*
X163081Y462884D01*
X163079Y462846D01*
X163072Y462809D01*
X163066Y462601D01*
X163054Y462392D01*
X163058Y462354D01*
X163057Y462316D01*
X163084Y462109D01*
X163106Y461901D01*
X163116Y461865D01*
X163121Y461827D01*
X163181Y461627D01*
X163237Y461426D01*
X163253Y461391D01*
X163264Y461354D01*
X163355Y461167D01*
X163442Y460977D01*
X163464Y460946D01*
X163480Y460911D01*
X163601Y460741D01*
X163718Y460568D01*
X163744Y460540D01*
X163766Y460509D01*
X163912Y460361D01*
X164056Y460208D01*
X164086Y460185D01*
X164113Y460158D01*
X164281Y460035D01*
X164447Y459908D01*
X164481Y459890D01*
X164511Y459868D01*
X164697Y459774D01*
X164882Y459675D01*
X164918Y459662D01*
X164952Y459645D01*
X165151Y459583D01*
X165348Y459515D01*
X165386Y459509D01*
X165422Y459497D01*
X165515Y459487D01*
X165835Y459432D01*
X166007Y459431D01*
X166100Y459421D01*
X169977Y459421D01*
X171466Y457932D01*
X171466Y415828D01*
X169977Y414339D01*
X167570Y414339D01*
X167352Y414322D01*
X167134Y414308D01*
X167106Y414302D01*
X167078Y414299D01*
X166866Y414247D01*
X166653Y414198D01*
X166627Y414187D01*
X166599Y414181D01*
X166398Y414094D01*
X166196Y414012D01*
X166172Y413997D01*
X166146Y413986D01*
X165961Y413869D01*
X165775Y413755D01*
X165753Y413736D01*
X165730Y413721D01*
X165567Y413576D01*
X165401Y413433D01*
X165383Y413411D01*
X165362Y413392D01*
X165225Y413222D01*
X165084Y413055D01*
X165073Y413034D01*
X165052Y413008D01*
X164808Y412580D01*
X164780Y412504D01*
X164754Y412458D01*
X164404Y411613D01*
X161475Y408683D01*
X159100Y407700D01*
X158939Y407617D01*
X158775Y407542D01*
X158720Y407505D01*
X158661Y407475D01*
X158515Y407367D01*
X158366Y407267D01*
X158317Y407221D01*
X158264Y407182D01*
X158137Y407052D01*
X158006Y406929D01*
X157966Y406876D01*
X157919Y406828D01*
X157815Y406680D01*
X157706Y406537D01*
X157674Y406479D01*
X157636Y406424D01*
X157558Y406262D01*
X157473Y406103D01*
X157451Y406040D01*
X157422Y405980D01*
X157371Y405807D01*
X157313Y405636D01*
X157301Y405570D01*
X157283Y405507D01*
X157260Y405328D01*
X157230Y405150D01*
X157230Y405083D01*
X157221Y405017D01*
X157228Y404837D01*
X157227Y404656D01*
X157237Y404590D01*
X157240Y404524D01*
X157276Y404347D01*
X157304Y404169D01*
X157324Y404106D01*
X157338Y404041D01*
X157401Y403872D01*
X157458Y403700D01*
X157489Y403641D01*
X157512Y403579D01*
X157602Y403423D01*
X157686Y403263D01*
X157719Y403222D01*
X157759Y403152D01*
X158071Y402770D01*
X158096Y402748D01*
X158111Y402730D01*
X162053Y398788D01*
X162053Y396150D01*
X162061Y396049D01*
X162059Y395948D01*
X162081Y395803D01*
X162093Y395658D01*
X162117Y395560D01*
X162132Y395460D01*
X162176Y395321D01*
X162211Y395179D01*
X162251Y395086D01*
X162282Y394990D01*
X162330Y394903D01*
X162406Y394726D01*
X162562Y394481D01*
X162611Y394392D01*
X163513Y393115D01*
X165682Y385318D01*
X165099Y377247D01*
X161834Y369843D01*
X156266Y363970D01*
X149046Y360315D01*
X147262Y360090D01*
X146167Y359952D01*
X145032Y359809D01*
X142801Y359528D01*
X140500Y359238D01*
X138199Y359528D01*
X135968Y359809D01*
X135164Y359910D01*
X133738Y360090D01*
X131659Y360352D01*
X123750Y363947D01*
X122186Y365341D01*
X122185Y365341D01*
X120692Y366672D01*
X120691Y366673D01*
X120507Y366837D01*
X120416Y366906D01*
X120365Y366956D01*
X118436Y368476D01*
X118025Y368749D01*
X117992Y368763D01*
X117972Y368778D01*
X113634Y371065D01*
X113608Y371076D01*
X113584Y371091D01*
X113508Y371119D01*
X113180Y371259D01*
X113028Y371297D01*
X112944Y371328D01*
X108184Y372506D01*
X107697Y372585D01*
X107661Y372585D01*
X107637Y372590D01*
X105185Y372739D01*
X105071Y372736D01*
X105000Y372744D01*
X104876Y372734D01*
X104801Y372738D01*
X101577Y372526D01*
X101089Y372454D01*
X101029Y372435D01*
X100988Y372429D01*
X94760Y370760D01*
X94706Y370741D01*
X94650Y370729D01*
X94555Y370687D01*
X94296Y370595D01*
X94118Y370497D01*
X94025Y370456D01*
X88442Y367232D01*
X88395Y367200D01*
X88344Y367173D01*
X88263Y367109D01*
X88036Y366952D01*
X87890Y366812D01*
X87811Y366748D01*
X83252Y362189D01*
X83215Y362146D01*
X83173Y362107D01*
X83111Y362024D01*
X82932Y361813D01*
X82828Y361640D01*
X82768Y361558D01*
X79544Y355975D01*
X79519Y355923D01*
X79489Y355875D01*
X79451Y355778D01*
X79333Y355529D01*
X79276Y355334D01*
X79240Y355240D01*
X77571Y349012D01*
X77482Y348527D01*
X77481Y348464D01*
X77474Y348423D01*
X77262Y345199D01*
X77264Y345075D01*
X77256Y345000D01*
X77256Y336731D01*
X77266Y336610D01*
X77265Y336489D01*
X77283Y336400D01*
X77296Y336240D01*
X77371Y335934D01*
X77268Y334768D01*
X77266Y334593D01*
X77256Y334498D01*
X77256Y333260D01*
X77247Y333233D01*
X77215Y333018D01*
X77178Y332802D01*
X77178Y332773D01*
X77174Y332745D01*
X77176Y332527D01*
X77175Y332308D01*
X77179Y332280D01*
X77180Y332252D01*
X77218Y332037D01*
X77252Y331821D01*
X77260Y331794D01*
X77265Y331766D01*
X77338Y331560D01*
X77406Y331352D01*
X77419Y331327D01*
X77428Y331301D01*
X77533Y331109D01*
X77634Y330915D01*
X77648Y330897D01*
X77664Y330867D01*
X77967Y330478D01*
X78026Y330423D01*
X78059Y330382D01*
X84459Y323981D01*
X84546Y323907D01*
X84627Y323826D01*
X84734Y323748D01*
X84835Y323662D01*
X84933Y323603D01*
X85025Y323536D01*
X85144Y323476D01*
X85258Y323407D01*
X85364Y323365D01*
X85466Y323313D01*
X85593Y323273D01*
X85716Y323224D01*
X85827Y323199D01*
X85936Y323165D01*
X86030Y323155D01*
X86198Y323117D01*
X86522Y323099D01*
X86614Y323089D01*
X97598Y323089D01*
X97798Y323105D01*
X97997Y323115D01*
X98034Y323124D01*
X98089Y323129D01*
X98100Y323131D01*
X99197Y323091D01*
X99264Y323094D01*
X99310Y323089D01*
X100439Y323089D01*
X100812Y323033D01*
X100869Y323033D01*
X100908Y323028D01*
X105741Y322849D01*
X117954Y319087D01*
X128776Y312293D01*
X137472Y302930D01*
X143447Y291635D01*
X146296Y279178D01*
X146066Y272953D01*
X146069Y272886D01*
X146064Y272841D01*
X146064Y251924D01*
X146078Y251744D01*
X146085Y251564D01*
X146098Y251499D01*
X146104Y251432D01*
X146147Y251257D01*
X146183Y251080D01*
X146206Y251018D01*
X146222Y250954D01*
X146294Y250788D01*
X146357Y250619D01*
X146391Y250561D01*
X146417Y250500D01*
X146514Y250348D01*
X146604Y250192D01*
X146646Y250140D01*
X146682Y250084D01*
X146802Y249950D01*
X146917Y249810D01*
X146966Y249766D01*
X147011Y249716D01*
X147151Y249603D01*
X147286Y249484D01*
X147343Y249448D01*
X147395Y249406D01*
X147551Y249317D01*
X147704Y249221D01*
X147766Y249195D01*
X147823Y249162D01*
X147993Y249100D01*
X148159Y249030D01*
X148223Y249014D01*
X148286Y248991D01*
X148463Y248956D01*
X148638Y248914D01*
X148705Y248909D01*
X148770Y248896D01*
X148950Y248891D01*
X149130Y248877D01*
X149197Y248883D01*
X149263Y248881D01*
X149442Y248904D01*
X149622Y248920D01*
X149672Y248935D01*
X149752Y248945D01*
X150224Y249088D01*
X150255Y249102D01*
X150277Y249109D01*
X153502Y250445D01*
X170348Y250445D01*
X173709Y249053D01*
X176282Y246480D01*
X177674Y243119D01*
X177674Y239176D01*
X177672Y239164D01*
X177670Y239099D01*
X177660Y239034D01*
X177662Y238852D01*
X177656Y238671D01*
X177665Y238606D01*
X177666Y238541D01*
X177697Y238362D01*
X177721Y238182D01*
X177740Y238119D01*
X177751Y238055D01*
X177811Y237884D01*
X177863Y237710D01*
X177892Y237651D01*
X177914Y237589D01*
X178000Y237429D01*
X178080Y237267D01*
X178118Y237213D01*
X178149Y237156D01*
X178261Y237012D01*
X178366Y236865D01*
X178412Y236818D01*
X178452Y236766D01*
X178585Y236642D01*
X178712Y236514D01*
X178765Y236475D01*
X178813Y236430D01*
X178965Y236330D01*
X179111Y236223D01*
X179170Y236194D01*
X179224Y236157D01*
X179390Y236083D01*
X179551Y236001D01*
X179614Y235981D01*
X179674Y235954D01*
X179849Y235907D01*
X180022Y235853D01*
X180074Y235847D01*
X180150Y235826D01*
X180641Y235777D01*
X180676Y235779D01*
X180700Y235776D01*
X207264Y235776D01*
X207340Y235782D01*
G37*
G36*
X251828Y248515D02*
X251828Y248515D01*
X251866Y248514D01*
X252073Y248541D01*
X252280Y248563D01*
X252317Y248573D01*
X252355Y248578D01*
X252555Y248638D01*
X252756Y248693D01*
X252791Y248709D01*
X252828Y248720D01*
X253015Y248812D01*
X253204Y248899D01*
X253236Y248920D01*
X253271Y248937D01*
X253440Y249058D01*
X253614Y249174D01*
X253642Y249201D01*
X253673Y249223D01*
X253821Y249369D01*
X253973Y249512D01*
X253997Y249543D01*
X254024Y249570D01*
X254147Y249738D01*
X254274Y249903D01*
X254292Y249937D01*
X254314Y249968D01*
X254408Y250154D01*
X254507Y250338D01*
X254519Y250374D01*
X254537Y250409D01*
X254599Y250608D01*
X254667Y250805D01*
X254673Y250843D01*
X254685Y250879D01*
X254695Y250972D01*
X254750Y251291D01*
X254751Y251463D01*
X254761Y251557D01*
X254761Y287043D01*
X257074Y295675D01*
X261542Y303414D01*
X267861Y309732D01*
X275600Y314201D01*
X284232Y316513D01*
X304239Y316513D01*
X304254Y316515D01*
X304269Y316514D01*
X304500Y316535D01*
X304730Y316553D01*
X304745Y316557D01*
X304761Y316559D01*
X304985Y316617D01*
X305209Y316672D01*
X305223Y316678D01*
X305238Y316682D01*
X305289Y316706D01*
X305662Y316867D01*
X305779Y316941D01*
X305853Y316977D01*
X312765Y321295D01*
X312935Y321422D01*
X313109Y321545D01*
X313133Y321569D01*
X313161Y321590D01*
X313308Y321742D01*
X313460Y321892D01*
X313480Y321920D01*
X313504Y321944D01*
X313625Y322119D01*
X313750Y322291D01*
X313766Y322321D01*
X313785Y322349D01*
X313877Y322542D01*
X313973Y322731D01*
X313983Y322764D01*
X313998Y322795D01*
X314057Y322999D01*
X314121Y323202D01*
X314124Y323230D01*
X314135Y323268D01*
X314195Y323758D01*
X314192Y323831D01*
X314197Y323880D01*
X314197Y333266D01*
X314184Y333429D01*
X314180Y333593D01*
X314164Y333675D01*
X314157Y333757D01*
X314118Y333917D01*
X314087Y334078D01*
X314058Y334156D01*
X314039Y334236D01*
X313974Y334387D01*
X313917Y334541D01*
X313884Y334596D01*
X313844Y334690D01*
X313579Y335106D01*
X313570Y335116D01*
X313564Y335125D01*
X313457Y335265D01*
X313359Y335626D01*
X313193Y336090D01*
X313137Y336191D01*
X313110Y336258D01*
X312935Y336589D01*
X312871Y337269D01*
X312785Y337755D01*
X312781Y337767D01*
X312779Y337776D01*
X312601Y338436D01*
X312650Y338807D01*
X312673Y339299D01*
X312660Y339414D01*
X312662Y339486D01*
X312626Y339858D01*
X312751Y340262D01*
X312753Y340273D01*
X312757Y340284D01*
X312765Y340329D01*
X312857Y340744D01*
X312865Y340877D01*
X312879Y340955D01*
X313037Y343325D01*
X313034Y343562D01*
X313035Y343605D01*
X313033Y343622D01*
X313030Y343818D01*
X313022Y343863D01*
X313022Y343895D01*
X312282Y349995D01*
X312274Y350033D01*
X312272Y350072D01*
X312251Y350152D01*
X312246Y350189D01*
X312235Y350224D01*
X312183Y350478D01*
X312122Y350640D01*
X312097Y350731D01*
X309872Y356459D01*
X309855Y356494D01*
X309843Y356531D01*
X309797Y356613D01*
X309657Y356902D01*
X309557Y357044D01*
X309511Y357127D01*
X305938Y362126D01*
X305913Y362156D01*
X305892Y362189D01*
X305828Y362257D01*
X305620Y362503D01*
X305488Y362615D01*
X305423Y362684D01*
X300725Y366644D01*
X300323Y366930D01*
X300282Y366950D01*
X300257Y366969D01*
X297890Y368302D01*
X297851Y368320D01*
X297827Y368337D01*
X297313Y368610D01*
X297248Y368638D01*
X297208Y368663D01*
X296753Y368883D01*
X296703Y368903D01*
X296671Y368922D01*
X294382Y369945D01*
X293917Y370110D01*
X293837Y370124D01*
X293787Y370141D01*
X288567Y371277D01*
X288078Y371343D01*
X287981Y371340D01*
X287919Y371347D01*
X286886Y371347D01*
X286772Y371338D01*
X286702Y371342D01*
X281948Y371054D01*
X281872Y371043D01*
X281795Y371040D01*
X281692Y371017D01*
X281460Y370984D01*
X281232Y370913D01*
X281129Y370889D01*
X275868Y369055D01*
X275417Y368855D01*
X275349Y368811D01*
X275300Y368789D01*
X274190Y368121D01*
X273992Y367978D01*
X273791Y367834D01*
X273790Y367834D01*
X273789Y367833D01*
X273440Y367484D01*
X273372Y367390D01*
X273323Y367338D01*
X272431Y366148D01*
X266526Y361949D01*
X265818Y361722D01*
X265739Y361690D01*
X265678Y361678D01*
X259623Y359744D01*
X256479Y359744D01*
X256424Y359740D01*
X256369Y359742D01*
X256268Y359727D01*
X255987Y359704D01*
X255794Y359657D01*
X255695Y359642D01*
X255537Y359600D01*
X254653Y359718D01*
X254347Y359733D01*
X254250Y359744D01*
X253358Y359744D01*
X253207Y359807D01*
X253155Y359824D01*
X253105Y359847D01*
X253005Y359872D01*
X252737Y359958D01*
X252541Y359988D01*
X252443Y360012D01*
X249821Y360362D01*
X247690Y361476D01*
X247556Y361532D01*
X247427Y361598D01*
X247329Y361628D01*
X247236Y361668D01*
X247095Y361702D01*
X246956Y361746D01*
X246880Y361755D01*
X246756Y361785D01*
X246309Y361819D01*
X246278Y361822D01*
X245737Y361822D01*
X244655Y362904D01*
X244563Y362983D01*
X244477Y363069D01*
X244402Y363119D01*
X244279Y363224D01*
X243983Y363402D01*
X243912Y363450D01*
X242511Y364182D01*
X236949Y370273D01*
X236944Y370285D01*
X236938Y370296D01*
X236935Y370307D01*
X236828Y370513D01*
X236720Y370724D01*
X236712Y370734D01*
X236707Y370745D01*
X236677Y370782D01*
X236427Y371121D01*
X236332Y371215D01*
X236282Y371278D01*
X234822Y372737D01*
X234822Y374828D01*
X234822Y374835D01*
X234822Y374842D01*
X234802Y375081D01*
X234782Y375319D01*
X234781Y375326D01*
X234780Y375334D01*
X234771Y375364D01*
X234664Y375798D01*
X234613Y375915D01*
X234592Y375989D01*
X233805Y377898D01*
X233459Y386139D01*
X234680Y389988D01*
X234708Y390111D01*
X234746Y390231D01*
X234756Y390319D01*
X234790Y390469D01*
X234814Y390831D01*
X234822Y390909D01*
X234822Y398788D01*
X242562Y406528D01*
X254760Y406528D01*
X255252Y406568D01*
X255351Y406592D01*
X255415Y406599D01*
X256003Y406728D01*
X257307Y406554D01*
X257612Y406539D01*
X257710Y406528D01*
X307975Y406528D01*
X308051Y406534D01*
X308127Y406532D01*
X308296Y406554D01*
X308467Y406568D01*
X308541Y406586D01*
X308616Y406596D01*
X308780Y406645D01*
X308946Y406686D01*
X309015Y406716D01*
X309089Y406738D01*
X309242Y406814D01*
X309399Y406881D01*
X309463Y406922D01*
X309532Y406955D01*
X309671Y407054D01*
X309815Y407146D01*
X309872Y407197D01*
X309934Y407241D01*
X310055Y407361D01*
X310183Y407475D01*
X310231Y407534D01*
X310285Y407588D01*
X310386Y407726D01*
X310493Y407859D01*
X310530Y407925D01*
X310575Y407986D01*
X310652Y408139D01*
X310737Y408287D01*
X310763Y408359D01*
X310798Y408427D01*
X310849Y408590D01*
X310908Y408750D01*
X310923Y408825D01*
X310946Y408897D01*
X310958Y409002D01*
X311003Y409234D01*
X311010Y409470D01*
X311022Y409575D01*
X311022Y420908D01*
X311019Y420946D01*
X311021Y420984D01*
X310999Y421192D01*
X310982Y421400D01*
X310973Y421437D01*
X310969Y421475D01*
X310914Y421676D01*
X310864Y421878D01*
X310849Y421914D01*
X310838Y421950D01*
X310751Y422140D01*
X310669Y422332D01*
X310649Y422364D01*
X310633Y422399D01*
X310516Y422572D01*
X310404Y422748D01*
X310379Y422776D01*
X310357Y422808D01*
X310214Y422960D01*
X310075Y423116D01*
X310046Y423140D01*
X310020Y423168D01*
X309854Y423295D01*
X309691Y423426D01*
X309658Y423445D01*
X309628Y423468D01*
X309444Y423567D01*
X309263Y423670D01*
X309227Y423683D01*
X309193Y423701D01*
X308996Y423769D01*
X308800Y423841D01*
X308763Y423849D01*
X308727Y423861D01*
X308520Y423896D01*
X308316Y423936D01*
X308278Y423937D01*
X308240Y423944D01*
X308031Y423945D01*
X307823Y423951D01*
X307785Y423946D01*
X307747Y423947D01*
X307540Y423914D01*
X307334Y423887D01*
X307297Y423876D01*
X307260Y423870D01*
X307061Y423805D01*
X306862Y423744D01*
X306827Y423728D01*
X306791Y423716D01*
X306606Y423619D01*
X306418Y423528D01*
X306387Y423506D01*
X306353Y423488D01*
X306281Y423430D01*
X306016Y423242D01*
X305894Y423121D01*
X305820Y423063D01*
X303825Y421068D01*
X296250Y421068D01*
X290893Y426425D01*
X290893Y434000D01*
X293352Y436459D01*
X293416Y436535D01*
X293487Y436604D01*
X293575Y436722D01*
X293671Y436835D01*
X293723Y436920D01*
X293782Y437000D01*
X293850Y437131D01*
X293926Y437258D01*
X293963Y437350D01*
X294008Y437438D01*
X294054Y437579D01*
X294109Y437716D01*
X294130Y437813D01*
X294161Y437907D01*
X294184Y438053D01*
X294216Y438198D01*
X294221Y438297D01*
X294236Y438394D01*
X294235Y438542D01*
X294243Y438690D01*
X294233Y438789D01*
X294232Y438888D01*
X294212Y438986D01*
X294191Y439181D01*
X294116Y439456D01*
X294095Y439556D01*
X292992Y442953D01*
X292939Y443079D01*
X292895Y443209D01*
X292855Y443280D01*
X292802Y443408D01*
X292586Y443753D01*
X292559Y443802D01*
X290352Y446840D01*
X290262Y446944D01*
X290181Y447054D01*
X290120Y447109D01*
X290030Y447214D01*
X289719Y447476D01*
X289677Y447514D01*
X286640Y449721D01*
X286523Y449792D01*
X286411Y449872D01*
X286337Y449906D01*
X286218Y449978D01*
X285841Y450131D01*
X285790Y450154D01*
X282219Y451314D01*
X282202Y451318D01*
X282186Y451325D01*
X282126Y451336D01*
X281739Y451428D01*
X281598Y451438D01*
X281517Y451454D01*
X279639Y451602D01*
X279487Y451601D01*
X279400Y451611D01*
X260032Y451611D01*
X259881Y451599D01*
X259793Y451602D01*
X258214Y451478D01*
X258197Y451475D01*
X258180Y451475D01*
X258120Y451462D01*
X257727Y451399D01*
X257593Y451354D01*
X257511Y451338D01*
X254507Y450362D01*
X254381Y450309D01*
X254251Y450265D01*
X254180Y450225D01*
X254052Y450172D01*
X253707Y449957D01*
X253658Y449929D01*
X252097Y448795D01*
X252016Y448725D01*
X251929Y448664D01*
X251829Y448565D01*
X251723Y448473D01*
X251654Y448392D01*
X251578Y448317D01*
X251495Y448203D01*
X251405Y448096D01*
X251350Y448004D01*
X251288Y447918D01*
X251224Y447793D01*
X251152Y447672D01*
X251113Y447573D01*
X251065Y447478D01*
X251023Y447344D01*
X250972Y447213D01*
X250949Y447109D01*
X250917Y447007D01*
X250906Y446910D01*
X250867Y446731D01*
X250852Y446428D01*
X250841Y446330D01*
X250841Y417415D01*
X249352Y415927D01*
X233248Y415927D01*
X231759Y417415D01*
X231759Y458020D01*
X231753Y458096D01*
X231755Y458172D01*
X231733Y458341D01*
X231719Y458511D01*
X231701Y458585D01*
X231691Y458661D01*
X231642Y458824D01*
X231601Y458990D01*
X231571Y459060D01*
X231549Y459133D01*
X231473Y459287D01*
X231406Y459443D01*
X231365Y459508D01*
X231332Y459576D01*
X231233Y459716D01*
X231141Y459860D01*
X231090Y459916D01*
X231046Y459978D01*
X230926Y460100D01*
X230812Y460227D01*
X230753Y460275D01*
X230699Y460329D01*
X230561Y460430D01*
X230428Y460537D01*
X230362Y460575D01*
X230301Y460620D01*
X230148Y460697D01*
X230000Y460781D01*
X229928Y460808D01*
X229860Y460842D01*
X229697Y460893D01*
X229537Y460953D01*
X229462Y460968D01*
X229390Y460990D01*
X229285Y461002D01*
X229053Y461048D01*
X228817Y461055D01*
X228712Y461067D01*
X228488Y461067D01*
X228412Y461061D01*
X228336Y461063D01*
X228167Y461041D01*
X227996Y461027D01*
X227922Y461008D01*
X227847Y460999D01*
X227683Y460949D01*
X227517Y460908D01*
X227448Y460878D01*
X227374Y460856D01*
X227221Y460781D01*
X227064Y460714D01*
X227000Y460673D01*
X226931Y460639D01*
X226792Y460540D01*
X226648Y460449D01*
X226591Y460398D01*
X226529Y460354D01*
X226408Y460234D01*
X226280Y460120D01*
X226232Y460060D01*
X226178Y460007D01*
X226077Y459869D01*
X225970Y459736D01*
X225933Y459670D01*
X225888Y459608D01*
X225811Y459456D01*
X225726Y459307D01*
X225700Y459236D01*
X225665Y459168D01*
X225614Y459005D01*
X225555Y458845D01*
X225540Y458770D01*
X225517Y458697D01*
X225505Y458592D01*
X225460Y458361D01*
X225453Y458124D01*
X225441Y458020D01*
X225441Y441967D01*
X216352Y441967D01*
X216276Y441961D01*
X216200Y441963D01*
X216031Y441941D01*
X215860Y441927D01*
X215787Y441908D01*
X215711Y441899D01*
X215547Y441849D01*
X215382Y441808D01*
X215312Y441778D01*
X215239Y441756D01*
X215085Y441681D01*
X214928Y441614D01*
X214864Y441573D01*
X214796Y441539D01*
X214656Y441440D01*
X214512Y441349D01*
X214455Y441298D01*
X214393Y441254D01*
X214272Y441134D01*
X214144Y441020D01*
X214096Y440960D01*
X214042Y440907D01*
X213942Y440769D01*
X213834Y440636D01*
X213797Y440570D01*
X213794Y440566D01*
X213752Y440536D01*
X213608Y440444D01*
X213551Y440394D01*
X213489Y440349D01*
X213367Y440229D01*
X213240Y440116D01*
X213192Y440056D01*
X213138Y440003D01*
X213037Y439865D01*
X212930Y439732D01*
X212893Y439666D01*
X212848Y439604D01*
X212771Y439451D01*
X212686Y439303D01*
X212660Y439231D01*
X212625Y439164D01*
X212574Y439001D01*
X212515Y438840D01*
X212500Y438766D01*
X212477Y438693D01*
X212465Y438588D01*
X212420Y438356D01*
X212413Y438120D01*
X212401Y438015D01*
X212401Y415927D01*
X208565Y415927D01*
X207919Y416100D01*
X207010Y416625D01*
X206889Y416682D01*
X206774Y416748D01*
X206667Y416788D01*
X206564Y416836D01*
X206436Y416873D01*
X206311Y416920D01*
X206199Y416941D01*
X206090Y416973D01*
X205957Y416989D01*
X205827Y417014D01*
X205713Y417018D01*
X205600Y417031D01*
X205467Y417025D01*
X205334Y417030D01*
X205221Y417015D01*
X205107Y417010D01*
X204977Y416983D01*
X204845Y416965D01*
X204736Y416932D01*
X204624Y416909D01*
X204500Y416861D01*
X204372Y416823D01*
X204270Y416773D01*
X204164Y416732D01*
X204049Y416664D01*
X203929Y416606D01*
X203837Y416540D01*
X203738Y416482D01*
X203635Y416397D01*
X203527Y416320D01*
X203446Y416240D01*
X203358Y416167D01*
X203271Y416067D01*
X203176Y415974D01*
X203109Y415882D01*
X203034Y415796D01*
X202964Y415682D01*
X202886Y415575D01*
X202834Y415473D01*
X202774Y415376D01*
X202723Y415253D01*
X202663Y415134D01*
X202629Y415026D01*
X202585Y414920D01*
X202555Y414791D01*
X202515Y414664D01*
X202506Y414580D01*
X202473Y414440D01*
X202446Y414051D01*
X202439Y413986D01*
X202439Y368300D01*
X202455Y368102D01*
X202453Y368001D01*
X202471Y367828D01*
X202490Y367722D01*
X202499Y367616D01*
X202526Y367522D01*
X202558Y367342D01*
X202661Y367055D01*
X202688Y366960D01*
X202821Y366640D01*
X202825Y366631D01*
X202828Y366622D01*
X202939Y366409D01*
X202962Y366365D01*
X203006Y366275D01*
X203013Y366264D01*
X203046Y366201D01*
X203051Y366193D01*
X203056Y366185D01*
X203081Y366154D01*
X203339Y365804D01*
X203432Y365713D01*
X203481Y365652D01*
X203726Y365406D01*
X203734Y365400D01*
X203740Y365393D01*
X203921Y365241D01*
X204102Y365087D01*
X204110Y365082D01*
X204118Y365075D01*
X204153Y365056D01*
X204525Y364832D01*
X204646Y364784D01*
X204715Y364746D01*
X205035Y364613D01*
X205137Y364580D01*
X205236Y364538D01*
X205330Y364518D01*
X205505Y364462D01*
X205806Y364416D01*
X205903Y364396D01*
X206076Y364378D01*
X206275Y364375D01*
X206375Y364364D01*
X222977Y364364D01*
X230400Y361952D01*
X236714Y357364D01*
X241302Y351050D01*
X243714Y343627D01*
X243714Y253492D01*
X243720Y253416D01*
X243718Y253340D01*
X243740Y253171D01*
X243754Y253000D01*
X243772Y252926D01*
X243782Y252851D01*
X243831Y252687D01*
X243872Y252521D01*
X243902Y252452D01*
X243924Y252378D01*
X244000Y252225D01*
X244067Y252068D01*
X244108Y252004D01*
X244141Y251935D01*
X244240Y251796D01*
X244332Y251652D01*
X244383Y251595D01*
X244427Y251533D01*
X244547Y251412D01*
X244661Y251284D01*
X244720Y251236D01*
X244774Y251182D01*
X244912Y251081D01*
X245045Y250974D01*
X245111Y250937D01*
X245172Y250892D01*
X245325Y250815D01*
X245473Y250730D01*
X245545Y250704D01*
X245613Y250669D01*
X245776Y250618D01*
X245936Y250559D01*
X246011Y250544D01*
X246083Y250521D01*
X246188Y250509D01*
X246420Y250464D01*
X246508Y250461D01*
X250148Y248954D01*
X250178Y248936D01*
X250357Y248828D01*
X250393Y248814D01*
X250426Y248795D01*
X250622Y248723D01*
X250815Y248645D01*
X250853Y248637D01*
X250889Y248624D01*
X251093Y248584D01*
X251297Y248538D01*
X251335Y248536D01*
X251373Y248529D01*
X251581Y248522D01*
X251789Y248511D01*
X251828Y248515D01*
G37*
%LPC*%
G36*
X206120Y41020D02*
X206120Y41020D01*
X206120Y50466D01*
X218360Y50466D01*
X219006Y50293D01*
X219585Y49958D01*
X220058Y49485D01*
X220393Y48906D01*
X220566Y48260D01*
X220566Y41020D01*
X206120Y41020D01*
G37*
%LPD*%
%LPC*%
G36*
X179484Y41020D02*
X179484Y41020D01*
X179484Y48260D01*
X179657Y48906D01*
X179992Y49485D01*
X180465Y49958D01*
X181044Y50293D01*
X181690Y50466D01*
X193930Y50466D01*
X193930Y41020D01*
X179484Y41020D01*
G37*
%LPD*%
%LPC*%
G36*
X206120Y19384D02*
X206120Y19384D01*
X206120Y28830D01*
X220566Y28830D01*
X220566Y21590D01*
X220393Y20944D01*
X220058Y20365D01*
X219585Y19892D01*
X219006Y19557D01*
X218360Y19384D01*
X206120Y19384D01*
G37*
%LPD*%
%LPC*%
G36*
X181690Y19384D02*
X181690Y19384D01*
X181044Y19557D01*
X180465Y19892D01*
X179992Y20365D01*
X179657Y20944D01*
X179484Y21590D01*
X179484Y28830D01*
X193930Y28830D01*
X193930Y19384D01*
X181690Y19384D01*
G37*
%LPD*%
%LPC*%
G36*
X219399Y415927D02*
X219399Y415927D01*
X219399Y434968D01*
X225441Y434968D01*
X225441Y418133D01*
X225268Y417487D01*
X224933Y416907D01*
X224460Y416434D01*
X223881Y416100D01*
X223235Y415927D01*
X219399Y415927D01*
G37*
%LPD*%
%LPC*%
G36*
X200024Y34924D02*
X200024Y34924D01*
X200024Y34926D01*
X200026Y34926D01*
X200026Y34924D01*
X200024Y34924D01*
G37*
%LPD*%
D10*
X316230Y469583D02*
X316230Y484823D01*
X311997Y484823D01*
X311997Y484822D02*
X311868Y484820D01*
X311739Y484814D01*
X311610Y484804D01*
X311482Y484791D01*
X311354Y484773D01*
X311227Y484751D01*
X311100Y484726D01*
X310974Y484697D01*
X310850Y484664D01*
X310726Y484627D01*
X310603Y484586D01*
X310482Y484542D01*
X310362Y484494D01*
X310244Y484442D01*
X310127Y484387D01*
X310012Y484328D01*
X309899Y484266D01*
X309788Y484200D01*
X309679Y484131D01*
X309572Y484059D01*
X309467Y483983D01*
X309365Y483904D01*
X309265Y483822D01*
X309168Y483738D01*
X309073Y483650D01*
X308981Y483559D01*
X308892Y483466D01*
X308806Y483370D01*
X308722Y483271D01*
X308642Y483170D01*
X308565Y483067D01*
X308491Y482961D01*
X308420Y482853D01*
X308353Y482743D01*
X308289Y482631D01*
X308228Y482516D01*
X308171Y482401D01*
X308118Y482283D01*
X308068Y482164D01*
X308022Y482044D01*
X307979Y481922D01*
X307940Y481798D01*
X307905Y481674D01*
X307874Y481549D01*
X307847Y481423D01*
X307823Y481296D01*
X307804Y481168D01*
X307788Y481040D01*
X307776Y480911D01*
X307768Y480783D01*
X307764Y480654D01*
X307764Y480524D01*
X307768Y480395D01*
X307776Y480267D01*
X307788Y480138D01*
X307804Y480010D01*
X307823Y479882D01*
X307847Y479755D01*
X307874Y479629D01*
X307905Y479504D01*
X307940Y479380D01*
X307979Y479256D01*
X308022Y479134D01*
X308068Y479014D01*
X308118Y478895D01*
X308171Y478777D01*
X308228Y478662D01*
X308289Y478547D01*
X308353Y478435D01*
X308420Y478325D01*
X308491Y478217D01*
X308565Y478111D01*
X308642Y478008D01*
X308722Y477907D01*
X308806Y477808D01*
X308892Y477712D01*
X308981Y477619D01*
X309073Y477528D01*
X309168Y477440D01*
X309265Y477356D01*
X309365Y477274D01*
X309467Y477195D01*
X309572Y477119D01*
X309679Y477047D01*
X309788Y476978D01*
X309899Y476912D01*
X310012Y476850D01*
X310127Y476791D01*
X310244Y476736D01*
X310362Y476684D01*
X310482Y476636D01*
X310603Y476592D01*
X310726Y476551D01*
X310850Y476514D01*
X310974Y476481D01*
X311100Y476452D01*
X311227Y476427D01*
X311354Y476405D01*
X311482Y476387D01*
X311610Y476374D01*
X311739Y476364D01*
X311868Y476358D01*
X311997Y476356D01*
X316230Y476356D01*
X311150Y476356D02*
X307763Y469583D01*
X300728Y473816D02*
X300728Y480589D01*
X300727Y480589D02*
X300725Y480718D01*
X300719Y480847D01*
X300709Y480976D01*
X300696Y481104D01*
X300678Y481232D01*
X300656Y481359D01*
X300631Y481486D01*
X300602Y481612D01*
X300569Y481736D01*
X300532Y481860D01*
X300491Y481983D01*
X300447Y482104D01*
X300399Y482224D01*
X300347Y482342D01*
X300292Y482459D01*
X300233Y482574D01*
X300171Y482687D01*
X300105Y482798D01*
X300036Y482907D01*
X299964Y483014D01*
X299888Y483119D01*
X299809Y483221D01*
X299727Y483321D01*
X299643Y483418D01*
X299555Y483513D01*
X299464Y483605D01*
X299371Y483694D01*
X299275Y483780D01*
X299176Y483864D01*
X299075Y483944D01*
X298972Y484021D01*
X298866Y484095D01*
X298758Y484166D01*
X298648Y484233D01*
X298536Y484297D01*
X298421Y484358D01*
X298306Y484415D01*
X298188Y484468D01*
X298069Y484518D01*
X297949Y484564D01*
X297827Y484607D01*
X297703Y484646D01*
X297579Y484681D01*
X297454Y484712D01*
X297328Y484739D01*
X297201Y484763D01*
X297073Y484782D01*
X296945Y484798D01*
X296816Y484810D01*
X296688Y484818D01*
X296559Y484822D01*
X296429Y484822D01*
X296300Y484818D01*
X296172Y484810D01*
X296043Y484798D01*
X295915Y484782D01*
X295787Y484763D01*
X295660Y484739D01*
X295534Y484712D01*
X295409Y484681D01*
X295285Y484646D01*
X295161Y484607D01*
X295039Y484564D01*
X294919Y484518D01*
X294800Y484468D01*
X294682Y484415D01*
X294567Y484358D01*
X294452Y484297D01*
X294340Y484233D01*
X294230Y484166D01*
X294122Y484095D01*
X294016Y484021D01*
X293913Y483944D01*
X293812Y483864D01*
X293713Y483780D01*
X293617Y483694D01*
X293524Y483605D01*
X293433Y483513D01*
X293345Y483418D01*
X293261Y483321D01*
X293179Y483221D01*
X293100Y483119D01*
X293024Y483014D01*
X292952Y482907D01*
X292883Y482798D01*
X292817Y482687D01*
X292755Y482574D01*
X292696Y482459D01*
X292641Y482342D01*
X292589Y482224D01*
X292541Y482104D01*
X292497Y481983D01*
X292456Y481860D01*
X292419Y481736D01*
X292386Y481612D01*
X292357Y481486D01*
X292332Y481359D01*
X292310Y481232D01*
X292292Y481104D01*
X292279Y480976D01*
X292269Y480847D01*
X292263Y480718D01*
X292261Y480589D01*
X292261Y473816D01*
X292263Y473687D01*
X292269Y473558D01*
X292279Y473429D01*
X292292Y473301D01*
X292310Y473173D01*
X292332Y473046D01*
X292357Y472919D01*
X292386Y472793D01*
X292419Y472669D01*
X292456Y472545D01*
X292497Y472422D01*
X292541Y472301D01*
X292589Y472181D01*
X292641Y472063D01*
X292696Y471946D01*
X292755Y471831D01*
X292817Y471718D01*
X292883Y471607D01*
X292952Y471498D01*
X293024Y471391D01*
X293100Y471286D01*
X293179Y471184D01*
X293261Y471084D01*
X293345Y470987D01*
X293433Y470892D01*
X293524Y470800D01*
X293617Y470711D01*
X293713Y470625D01*
X293812Y470541D01*
X293913Y470461D01*
X294016Y470384D01*
X294122Y470310D01*
X294230Y470239D01*
X294340Y470172D01*
X294452Y470108D01*
X294567Y470047D01*
X294682Y469990D01*
X294800Y469937D01*
X294919Y469887D01*
X295039Y469841D01*
X295161Y469798D01*
X295285Y469759D01*
X295409Y469724D01*
X295534Y469693D01*
X295660Y469666D01*
X295787Y469642D01*
X295915Y469623D01*
X296043Y469607D01*
X296172Y469595D01*
X296300Y469587D01*
X296429Y469583D01*
X296559Y469583D01*
X296688Y469587D01*
X296816Y469595D01*
X296945Y469607D01*
X297073Y469623D01*
X297201Y469642D01*
X297328Y469666D01*
X297454Y469693D01*
X297579Y469724D01*
X297703Y469759D01*
X297827Y469798D01*
X297949Y469841D01*
X298069Y469887D01*
X298188Y469937D01*
X298306Y469990D01*
X298421Y470047D01*
X298536Y470108D01*
X298648Y470172D01*
X298758Y470239D01*
X298866Y470310D01*
X298972Y470384D01*
X299075Y470461D01*
X299176Y470541D01*
X299275Y470625D01*
X299371Y470711D01*
X299464Y470800D01*
X299555Y470892D01*
X299643Y470987D01*
X299727Y471084D01*
X299809Y471184D01*
X299888Y471286D01*
X299964Y471391D01*
X300036Y471498D01*
X300105Y471607D01*
X300171Y471718D01*
X300233Y471831D01*
X300292Y471946D01*
X300347Y472063D01*
X300399Y472181D01*
X300447Y472301D01*
X300491Y472422D01*
X300532Y472545D01*
X300569Y472669D01*
X300602Y472793D01*
X300631Y472919D01*
X300656Y473046D01*
X300678Y473173D01*
X300696Y473301D01*
X300709Y473429D01*
X300719Y473558D01*
X300725Y473687D01*
X300727Y473816D01*
X284279Y478049D02*
X280045Y478049D01*
X279916Y478047D01*
X279787Y478041D01*
X279658Y478031D01*
X279530Y478018D01*
X279402Y478000D01*
X279275Y477978D01*
X279148Y477953D01*
X279022Y477924D01*
X278898Y477891D01*
X278774Y477854D01*
X278651Y477813D01*
X278530Y477769D01*
X278410Y477721D01*
X278292Y477669D01*
X278175Y477614D01*
X278060Y477555D01*
X277947Y477493D01*
X277836Y477427D01*
X277727Y477358D01*
X277620Y477286D01*
X277515Y477210D01*
X277413Y477131D01*
X277313Y477049D01*
X277216Y476965D01*
X277121Y476877D01*
X277029Y476786D01*
X276940Y476693D01*
X276854Y476597D01*
X276770Y476498D01*
X276690Y476397D01*
X276613Y476294D01*
X276539Y476188D01*
X276468Y476080D01*
X276401Y475970D01*
X276337Y475858D01*
X276276Y475743D01*
X276219Y475628D01*
X276166Y475510D01*
X276116Y475391D01*
X276070Y475271D01*
X276027Y475149D01*
X275988Y475025D01*
X275953Y474901D01*
X275922Y474776D01*
X275895Y474650D01*
X275871Y474523D01*
X275852Y474395D01*
X275836Y474267D01*
X275824Y474138D01*
X275816Y474010D01*
X275812Y473881D01*
X275812Y473751D01*
X275816Y473622D01*
X275824Y473494D01*
X275836Y473365D01*
X275852Y473237D01*
X275871Y473109D01*
X275895Y472982D01*
X275922Y472856D01*
X275953Y472731D01*
X275988Y472607D01*
X276027Y472483D01*
X276070Y472361D01*
X276116Y472241D01*
X276166Y472122D01*
X276219Y472004D01*
X276276Y471889D01*
X276337Y471774D01*
X276401Y471662D01*
X276468Y471552D01*
X276539Y471444D01*
X276613Y471338D01*
X276690Y471235D01*
X276770Y471134D01*
X276854Y471035D01*
X276940Y470939D01*
X277029Y470846D01*
X277121Y470755D01*
X277216Y470667D01*
X277313Y470583D01*
X277413Y470501D01*
X277515Y470422D01*
X277620Y470346D01*
X277727Y470274D01*
X277836Y470205D01*
X277947Y470139D01*
X278060Y470077D01*
X278175Y470018D01*
X278292Y469963D01*
X278410Y469911D01*
X278530Y469863D01*
X278651Y469819D01*
X278774Y469778D01*
X278898Y469741D01*
X279022Y469708D01*
X279148Y469679D01*
X279275Y469654D01*
X279402Y469632D01*
X279530Y469614D01*
X279658Y469601D01*
X279787Y469591D01*
X279916Y469585D01*
X280045Y469583D01*
X284279Y469583D01*
X284279Y484823D01*
X280045Y484823D01*
X279929Y484821D01*
X279814Y484815D01*
X279699Y484805D01*
X279584Y484791D01*
X279470Y484774D01*
X279356Y484752D01*
X279243Y484727D01*
X279131Y484697D01*
X279020Y484664D01*
X278911Y484627D01*
X278802Y484587D01*
X278696Y484543D01*
X278590Y484495D01*
X278487Y484443D01*
X278385Y484388D01*
X278285Y484330D01*
X278187Y484268D01*
X278092Y484203D01*
X277998Y484135D01*
X277908Y484063D01*
X277819Y483989D01*
X277733Y483911D01*
X277650Y483831D01*
X277570Y483748D01*
X277492Y483662D01*
X277418Y483573D01*
X277346Y483483D01*
X277278Y483389D01*
X277213Y483294D01*
X277151Y483196D01*
X277093Y483096D01*
X277038Y482994D01*
X276986Y482891D01*
X276938Y482785D01*
X276894Y482679D01*
X276854Y482570D01*
X276817Y482461D01*
X276784Y482350D01*
X276754Y482238D01*
X276729Y482125D01*
X276707Y482011D01*
X276690Y481897D01*
X276676Y481782D01*
X276666Y481667D01*
X276660Y481552D01*
X276658Y481436D01*
X276660Y481320D01*
X276666Y481205D01*
X276676Y481090D01*
X276690Y480975D01*
X276707Y480861D01*
X276729Y480747D01*
X276754Y480634D01*
X276784Y480522D01*
X276817Y480411D01*
X276854Y480302D01*
X276894Y480193D01*
X276938Y480087D01*
X276986Y479981D01*
X277038Y479878D01*
X277093Y479776D01*
X277151Y479676D01*
X277213Y479578D01*
X277278Y479483D01*
X277346Y479389D01*
X277418Y479299D01*
X277492Y479210D01*
X277570Y479124D01*
X277650Y479041D01*
X277733Y478961D01*
X277819Y478883D01*
X277908Y478809D01*
X277998Y478737D01*
X278092Y478669D01*
X278187Y478604D01*
X278285Y478542D01*
X278385Y478484D01*
X278487Y478429D01*
X278590Y478377D01*
X278696Y478329D01*
X278802Y478285D01*
X278911Y478245D01*
X279020Y478208D01*
X279131Y478175D01*
X279243Y478145D01*
X279356Y478120D01*
X279470Y478098D01*
X279584Y478081D01*
X279699Y478067D01*
X279814Y478057D01*
X279929Y478051D01*
X280045Y478049D01*
X269465Y480589D02*
X269465Y473816D01*
X269465Y480589D02*
X269463Y480718D01*
X269457Y480847D01*
X269447Y480976D01*
X269434Y481104D01*
X269416Y481232D01*
X269394Y481359D01*
X269369Y481486D01*
X269340Y481612D01*
X269307Y481736D01*
X269270Y481860D01*
X269229Y481983D01*
X269185Y482104D01*
X269137Y482224D01*
X269085Y482342D01*
X269030Y482459D01*
X268971Y482574D01*
X268909Y482687D01*
X268843Y482798D01*
X268774Y482907D01*
X268702Y483014D01*
X268626Y483119D01*
X268547Y483221D01*
X268465Y483321D01*
X268381Y483418D01*
X268293Y483513D01*
X268202Y483605D01*
X268109Y483694D01*
X268013Y483780D01*
X267914Y483864D01*
X267813Y483944D01*
X267710Y484021D01*
X267604Y484095D01*
X267496Y484166D01*
X267386Y484233D01*
X267274Y484297D01*
X267159Y484358D01*
X267044Y484415D01*
X266926Y484468D01*
X266807Y484518D01*
X266687Y484564D01*
X266565Y484607D01*
X266441Y484646D01*
X266317Y484681D01*
X266192Y484712D01*
X266066Y484739D01*
X265939Y484763D01*
X265811Y484782D01*
X265683Y484798D01*
X265554Y484810D01*
X265426Y484818D01*
X265297Y484822D01*
X265167Y484822D01*
X265038Y484818D01*
X264910Y484810D01*
X264781Y484798D01*
X264653Y484782D01*
X264525Y484763D01*
X264398Y484739D01*
X264272Y484712D01*
X264147Y484681D01*
X264023Y484646D01*
X263899Y484607D01*
X263777Y484564D01*
X263657Y484518D01*
X263538Y484468D01*
X263420Y484415D01*
X263305Y484358D01*
X263190Y484297D01*
X263078Y484233D01*
X262968Y484166D01*
X262860Y484095D01*
X262754Y484021D01*
X262651Y483944D01*
X262550Y483864D01*
X262451Y483780D01*
X262355Y483694D01*
X262262Y483605D01*
X262171Y483513D01*
X262083Y483418D01*
X261999Y483321D01*
X261917Y483221D01*
X261838Y483119D01*
X261762Y483014D01*
X261690Y482907D01*
X261621Y482798D01*
X261555Y482687D01*
X261493Y482574D01*
X261434Y482459D01*
X261379Y482342D01*
X261327Y482224D01*
X261279Y482104D01*
X261235Y481983D01*
X261194Y481860D01*
X261157Y481736D01*
X261124Y481612D01*
X261095Y481486D01*
X261070Y481359D01*
X261048Y481232D01*
X261030Y481104D01*
X261017Y480976D01*
X261007Y480847D01*
X261001Y480718D01*
X260999Y480589D01*
X260998Y480589D02*
X260998Y473816D01*
X260999Y473816D02*
X261001Y473687D01*
X261007Y473558D01*
X261017Y473429D01*
X261030Y473301D01*
X261048Y473173D01*
X261070Y473046D01*
X261095Y472919D01*
X261124Y472793D01*
X261157Y472669D01*
X261194Y472545D01*
X261235Y472422D01*
X261279Y472301D01*
X261327Y472181D01*
X261379Y472063D01*
X261434Y471946D01*
X261493Y471831D01*
X261555Y471718D01*
X261621Y471607D01*
X261690Y471498D01*
X261762Y471391D01*
X261838Y471286D01*
X261917Y471184D01*
X261999Y471084D01*
X262083Y470987D01*
X262171Y470892D01*
X262262Y470800D01*
X262355Y470711D01*
X262451Y470625D01*
X262550Y470541D01*
X262651Y470461D01*
X262754Y470384D01*
X262860Y470310D01*
X262968Y470239D01*
X263078Y470172D01*
X263190Y470108D01*
X263305Y470047D01*
X263420Y469990D01*
X263538Y469937D01*
X263657Y469887D01*
X263777Y469841D01*
X263899Y469798D01*
X264023Y469759D01*
X264147Y469724D01*
X264272Y469693D01*
X264398Y469666D01*
X264525Y469642D01*
X264653Y469623D01*
X264781Y469607D01*
X264910Y469595D01*
X265038Y469587D01*
X265167Y469583D01*
X265297Y469583D01*
X265426Y469587D01*
X265554Y469595D01*
X265683Y469607D01*
X265811Y469623D01*
X265939Y469642D01*
X266066Y469666D01*
X266192Y469693D01*
X266317Y469724D01*
X266441Y469759D01*
X266565Y469798D01*
X266687Y469841D01*
X266807Y469887D01*
X266926Y469937D01*
X267044Y469990D01*
X267159Y470047D01*
X267274Y470108D01*
X267386Y470172D01*
X267496Y470239D01*
X267604Y470310D01*
X267710Y470384D01*
X267813Y470461D01*
X267914Y470541D01*
X268013Y470625D01*
X268109Y470711D01*
X268202Y470800D01*
X268293Y470892D01*
X268381Y470987D01*
X268465Y471084D01*
X268547Y471184D01*
X268626Y471286D01*
X268702Y471391D01*
X268774Y471498D01*
X268843Y471607D01*
X268909Y471718D01*
X268971Y471831D01*
X269030Y471946D01*
X269085Y472063D01*
X269137Y472181D01*
X269185Y472301D01*
X269229Y472422D01*
X269270Y472545D01*
X269307Y472669D01*
X269340Y472793D01*
X269369Y472919D01*
X269394Y473046D01*
X269416Y473173D01*
X269434Y473301D01*
X269447Y473429D01*
X269457Y473558D01*
X269463Y473687D01*
X269465Y473816D01*
D11*
X200025Y333375D03*
X200025Y34925D03*
D12*
X231521Y215900D02*
X244729Y215900D01*
X244729Y241300D02*
X231521Y241300D01*
X168529Y241300D02*
X155321Y241300D01*
X155321Y215900D02*
X168529Y215900D01*
D13*
X100013Y504825D03*
X100013Y428625D03*
X300038Y506413D03*
X300038Y430213D03*
D14*
X365581Y214159D03*
D15*
X382940Y229249D03*
D14*
X8405Y225489D03*
D16*
X26280Y211015D03*
D17*
X215900Y438468D03*
X241300Y438468D03*
X136525Y436880D03*
X161925Y436880D03*
D18*
X76200Y309646D03*
X38100Y243655D03*
D19*
X313425Y310925D03*
X353805Y246303D03*
D20*
X225425Y34925D02*
X200025Y34925D01*
X225425Y34925D02*
X250825Y60325D01*
X250825Y196850D01*
X273050Y219075D02*
X273050Y228600D01*
X273050Y219075D02*
X250825Y196850D01*
X130175Y69850D02*
X165100Y34925D01*
X200025Y34925D01*
X130175Y69850D02*
X130175Y228600D01*
X131445Y436880D02*
X136525Y436880D01*
X131445Y436880D02*
X131107Y436884D01*
X130770Y436896D01*
X130433Y436917D01*
X130097Y436945D01*
X129761Y436982D01*
X129426Y437027D01*
X129093Y437079D01*
X128761Y437140D01*
X128430Y437209D01*
X128102Y437286D01*
X127775Y437371D01*
X127450Y437463D01*
X127128Y437564D01*
X126808Y437672D01*
X126491Y437788D01*
X126177Y437911D01*
X125866Y438042D01*
X125558Y438181D01*
X125254Y438327D01*
X124953Y438480D01*
X124656Y438641D01*
X124363Y438808D01*
X124074Y438983D01*
X123789Y439165D01*
X123509Y439353D01*
X123234Y439548D01*
X122963Y439750D01*
X122697Y439958D01*
X122437Y440173D01*
X122181Y440393D01*
X121931Y440620D01*
X121687Y440853D01*
X121448Y441092D01*
X121215Y441336D01*
X120988Y441586D01*
X120768Y441842D01*
X120553Y442102D01*
X120345Y442368D01*
X120143Y442639D01*
X119948Y442914D01*
X119760Y443194D01*
X119578Y443479D01*
X119403Y443768D01*
X119236Y444061D01*
X119075Y444358D01*
X118922Y444659D01*
X118776Y444963D01*
X118637Y445271D01*
X118506Y445582D01*
X118383Y445896D01*
X118267Y446213D01*
X118159Y446533D01*
X118058Y446855D01*
X117966Y447180D01*
X117881Y447507D01*
X117804Y447835D01*
X117735Y448166D01*
X117674Y448498D01*
X117622Y448831D01*
X117577Y449166D01*
X117540Y449502D01*
X117512Y449838D01*
X117491Y450175D01*
X117479Y450512D01*
X117475Y450850D01*
X117475Y481013D01*
X117484Y481780D01*
X117512Y482547D01*
X117558Y483313D01*
X117623Y484077D01*
X117706Y484840D01*
X117808Y485601D01*
X117928Y486358D01*
X118066Y487113D01*
X118223Y487864D01*
X118398Y488611D01*
X118590Y489354D01*
X118801Y490092D01*
X119029Y490824D01*
X119275Y491551D01*
X119538Y492272D01*
X119819Y492986D01*
X120117Y493693D01*
X120432Y494392D01*
X120763Y495084D01*
X121112Y495768D01*
X121477Y496443D01*
X121857Y497109D01*
X122254Y497766D01*
X122667Y498412D01*
X123095Y499049D01*
X123539Y499675D01*
X123997Y500290D01*
X124470Y500894D01*
X124958Y501487D01*
X125460Y502067D01*
X125975Y502635D01*
X126505Y503191D01*
X127047Y503733D01*
X127603Y504263D01*
X128171Y504778D01*
X128751Y505280D01*
X129344Y505768D01*
X129948Y506241D01*
X130563Y506699D01*
X131189Y507143D01*
X131826Y507571D01*
X132472Y507984D01*
X133129Y508381D01*
X133795Y508761D01*
X134470Y509126D01*
X135154Y509475D01*
X135846Y509806D01*
X136545Y510121D01*
X137252Y510419D01*
X137966Y510700D01*
X138687Y510963D01*
X139414Y511209D01*
X140146Y511437D01*
X140884Y511648D01*
X141627Y511840D01*
X142374Y512015D01*
X143125Y512172D01*
X143880Y512310D01*
X144637Y512430D01*
X145398Y512532D01*
X146161Y512615D01*
X146925Y512680D01*
X147691Y512726D01*
X148458Y512754D01*
X149225Y512763D01*
X155575Y512763D01*
X156342Y512754D01*
X157109Y512726D01*
X157875Y512680D01*
X158639Y512615D01*
X159402Y512532D01*
X160163Y512430D01*
X160920Y512310D01*
X161675Y512172D01*
X162426Y512015D01*
X163173Y511840D01*
X163916Y511648D01*
X164654Y511437D01*
X165386Y511209D01*
X166113Y510963D01*
X166834Y510700D01*
X167548Y510419D01*
X168255Y510121D01*
X168954Y509806D01*
X169646Y509475D01*
X170330Y509126D01*
X171005Y508761D01*
X171671Y508381D01*
X172328Y507984D01*
X172974Y507571D01*
X173611Y507143D01*
X174237Y506699D01*
X174852Y506241D01*
X175456Y505768D01*
X176049Y505280D01*
X176629Y504778D01*
X177197Y504263D01*
X177753Y503733D01*
X178295Y503191D01*
X178825Y502635D01*
X179340Y502067D01*
X179842Y501487D01*
X180330Y500894D01*
X180803Y500290D01*
X181261Y499675D01*
X181705Y499049D01*
X182133Y498412D01*
X182546Y497766D01*
X182943Y497109D01*
X183323Y496443D01*
X183688Y495768D01*
X184037Y495084D01*
X184368Y494392D01*
X184683Y493693D01*
X184981Y492986D01*
X185262Y492272D01*
X185525Y491551D01*
X185771Y490824D01*
X185999Y490092D01*
X186210Y489354D01*
X186402Y488611D01*
X186577Y487864D01*
X186734Y487113D01*
X186872Y486358D01*
X186992Y485601D01*
X187094Y484840D01*
X187177Y484077D01*
X187242Y483313D01*
X187288Y482547D01*
X187316Y481780D01*
X187325Y481013D01*
X215900Y438468D02*
X215900Y368300D01*
X187325Y368300D02*
X187325Y481013D01*
D21*
X372803Y234194D02*
X373443Y234135D01*
X372803Y234194D02*
X369894Y237684D01*
X378968Y233220D02*
X382940Y229249D01*
X369894Y237684D02*
X365125Y242453D01*
X374358Y233220D02*
X378968Y233220D01*
X374358Y233220D02*
X373443Y234135D01*
X361841Y257384D02*
X361736Y257433D01*
X361841Y257384D02*
X365125Y254099D01*
X365125Y242453D01*
X361736Y257433D02*
X360311Y258097D01*
X356841Y258097D02*
X356750Y258188D01*
X356841Y258097D02*
X360311Y258097D01*
X356750Y258188D02*
X348000Y258188D01*
X348000Y258000D01*
X343839Y264159D01*
X324615Y292617D01*
X320675Y298450D01*
X295650Y298000D01*
D20*
X285300Y298000D01*
X285301Y298000D02*
X284967Y297958D01*
X284634Y297907D01*
X284302Y297849D01*
X283972Y297782D01*
X283644Y297708D01*
X283318Y297626D01*
X282994Y297535D01*
X282672Y297437D01*
X282352Y297332D01*
X282035Y297218D01*
X281721Y297097D01*
X281410Y296969D01*
X281102Y296832D01*
X280798Y296689D01*
X280497Y296538D01*
X280200Y296380D01*
X279907Y296215D01*
X279617Y296043D01*
X279332Y295864D01*
X279052Y295678D01*
X278776Y295485D01*
X278505Y295285D01*
X278238Y295080D01*
X277977Y294867D01*
X277721Y294649D01*
X277470Y294424D01*
X277225Y294194D01*
X276986Y293957D01*
X276752Y293715D01*
X276524Y293468D01*
X276302Y293214D01*
X276087Y292956D01*
X275877Y292692D01*
X275674Y292424D01*
X275478Y292151D01*
X275288Y291873D01*
X275105Y291590D01*
X274929Y291303D01*
X274760Y291012D01*
X274598Y290717D01*
X274444Y290418D01*
X274296Y290116D01*
X274156Y289810D01*
X274023Y289500D01*
X273898Y289188D01*
X273780Y288872D01*
X273670Y288554D01*
X273568Y288234D01*
X273474Y287911D01*
X273387Y287585D01*
X273308Y287258D01*
X273237Y286929D01*
X273175Y286599D01*
X273120Y286266D01*
X273073Y285933D01*
X273034Y285599D01*
X273004Y285264D01*
X272981Y284928D01*
X272967Y284592D01*
X272960Y284255D01*
X272962Y283918D01*
X272972Y283582D01*
X272990Y283246D01*
X273016Y282910D01*
X273051Y282576D01*
X273050Y282575D02*
X273050Y228600D01*
D21*
X34822Y229104D02*
X34588Y229104D01*
X26280Y220795D02*
X26280Y211015D01*
X26280Y220795D02*
X34588Y229104D01*
X36897Y230319D02*
X40373Y230319D01*
X40734Y230426D01*
X35904Y229326D02*
X34822Y229104D01*
X35904Y229326D02*
X36897Y230319D01*
X47733Y235053D02*
X48649Y236407D01*
X42828Y231463D02*
X40734Y230426D01*
X42828Y231463D02*
X47733Y235053D01*
X48649Y236407D02*
X50310Y240092D01*
X50717Y241675D01*
X50717Y244099D01*
X49696Y250580D01*
X49106Y251169D01*
X49106Y255694D01*
X47625Y257175D01*
X49879Y260906D01*
X58603Y275347D01*
X66771Y288867D01*
X71850Y297275D01*
X70100Y295025D01*
X71850Y297275D02*
X79681Y298275D01*
X85000Y302000D01*
X89175Y307175D01*
X95350Y307825D01*
X98425Y307975D01*
D20*
X99310Y307859D01*
X100192Y307722D01*
X101071Y307562D01*
X101945Y307382D01*
X102814Y307180D01*
X103679Y306957D01*
X104538Y306712D01*
X105390Y306447D01*
X106236Y306161D01*
X107074Y305854D01*
X107904Y305527D01*
X108727Y305179D01*
X109540Y304811D01*
X110345Y304424D01*
X111139Y304017D01*
X111923Y303590D01*
X112697Y303145D01*
X113459Y302680D01*
X114210Y302197D01*
X114949Y301696D01*
X115675Y301177D01*
X116388Y300640D01*
X117088Y300086D01*
X117774Y299515D01*
X118446Y298927D01*
X119103Y298323D01*
X119746Y297702D01*
X120372Y297067D01*
X120983Y296416D01*
X121578Y295750D01*
X122157Y295070D01*
X122718Y294376D01*
X123262Y293669D01*
X123789Y292948D01*
X124298Y292214D01*
X124789Y291469D01*
X125261Y290711D01*
X125715Y289942D01*
X126150Y289162D01*
X126565Y288372D01*
X126961Y287572D01*
X127337Y286762D01*
X127693Y285944D01*
X128029Y285117D01*
X128345Y284282D01*
X128640Y283439D01*
X128914Y282589D01*
X129167Y281733D01*
X129399Y280871D01*
X129611Y280004D01*
X129800Y279132D01*
X129968Y278255D01*
X130115Y277374D01*
X130240Y276490D01*
X130343Y275604D01*
X130425Y274715D01*
X130485Y273824D01*
X130522Y272932D01*
X130538Y272039D01*
X130532Y271147D01*
X130505Y270254D01*
X130455Y269363D01*
X130383Y268473D01*
X130290Y267585D01*
X130175Y266700D01*
X130174Y266700D02*
X130174Y228600D01*
X215900Y368300D02*
X219075Y368300D01*
X219765Y368292D01*
X220456Y368267D01*
X221145Y368225D01*
X221833Y368167D01*
X222519Y368092D01*
X223204Y368000D01*
X223886Y367892D01*
X224565Y367768D01*
X225241Y367627D01*
X225913Y367470D01*
X226582Y367296D01*
X227246Y367107D01*
X227905Y366901D01*
X228559Y366680D01*
X229208Y366443D01*
X229850Y366190D01*
X230487Y365922D01*
X231117Y365639D01*
X231739Y365340D01*
X232354Y365027D01*
X232962Y364699D01*
X233561Y364356D01*
X234152Y363999D01*
X234734Y363627D01*
X235307Y363242D01*
X235871Y362843D01*
X236425Y362430D01*
X236968Y362004D01*
X237501Y361565D01*
X238024Y361114D01*
X238535Y360650D01*
X239035Y360173D01*
X239523Y359685D01*
X240000Y359185D01*
X240464Y358674D01*
X240915Y358151D01*
X241354Y357618D01*
X241780Y357075D01*
X242193Y356521D01*
X242592Y355957D01*
X242977Y355384D01*
X243349Y354802D01*
X243706Y354211D01*
X244049Y353612D01*
X244377Y353004D01*
X244690Y352389D01*
X244989Y351767D01*
X245272Y351137D01*
X245540Y350500D01*
X245793Y349858D01*
X246030Y349209D01*
X246251Y348555D01*
X246457Y347896D01*
X246646Y347232D01*
X246820Y346563D01*
X246977Y345891D01*
X247118Y345215D01*
X247242Y344536D01*
X247350Y343854D01*
X247442Y343169D01*
X247517Y342483D01*
X247575Y341795D01*
X247617Y341106D01*
X247642Y340415D01*
X247650Y339725D01*
X187325Y368300D02*
X184150Y368300D01*
X183536Y368293D01*
X182923Y368270D01*
X182310Y368233D01*
X181699Y368181D01*
X181088Y368115D01*
X180480Y368033D01*
X179874Y367937D01*
X179270Y367827D01*
X178669Y367702D01*
X178071Y367562D01*
X177477Y367408D01*
X176887Y367239D01*
X176301Y367057D01*
X175720Y366860D01*
X175143Y366649D01*
X174572Y366425D01*
X174006Y366187D01*
X173446Y365935D01*
X172893Y365669D01*
X172346Y365391D01*
X171806Y365099D01*
X171273Y364794D01*
X170748Y364476D01*
X170230Y364146D01*
X169721Y363804D01*
X169220Y363449D01*
X168728Y363082D01*
X168245Y362704D01*
X167771Y362314D01*
X167307Y361912D01*
X166852Y361500D01*
X166408Y361076D01*
X165974Y360642D01*
X165550Y360198D01*
X165138Y359743D01*
X164736Y359279D01*
X164346Y358805D01*
X163968Y358322D01*
X163601Y357830D01*
X163246Y357329D01*
X162904Y356820D01*
X162574Y356302D01*
X162256Y355777D01*
X161951Y355244D01*
X161659Y354704D01*
X161381Y354157D01*
X161115Y353604D01*
X160863Y353044D01*
X160625Y352478D01*
X160401Y351907D01*
X160190Y351330D01*
X159993Y350749D01*
X159811Y350163D01*
X159642Y349573D01*
X159488Y348979D01*
X159348Y348381D01*
X159223Y347780D01*
X159113Y347176D01*
X159017Y346570D01*
X158935Y345962D01*
X158869Y345351D01*
X158817Y344740D01*
X158780Y344127D01*
X158757Y343514D01*
X158750Y342900D01*
X130175Y228600D02*
X114300Y228600D01*
D22*
X114300Y228600D03*
X285750Y228600D03*
D20*
X273050Y228600D01*
D22*
X200025Y241300D03*
X177800Y377825D03*
X219075Y377825D03*
D23*
X55563Y257175D02*
X42863Y266700D01*
X50800Y279400D02*
X65088Y269875D01*
X74613Y284163D02*
X58738Y295275D01*
X320675Y285750D02*
X333375Y293688D01*
X341313Y282575D02*
X327025Y273050D01*
X334963Y260350D02*
X349250Y269875D01*
D21*
X44085Y266700D02*
X42863Y266700D01*
X44085Y266700D02*
X49879Y260906D01*
X50800Y279400D02*
X54550Y279400D01*
X58603Y275347D01*
X58738Y295275D02*
X60363Y295275D01*
X66771Y288867D01*
X320675Y285750D02*
X324615Y289690D01*
X324615Y292617D01*
X335958Y277221D02*
X341313Y282575D01*
X335958Y277221D02*
X335958Y275825D01*
X341909Y269875D01*
X349250Y269875D01*
X343839Y264464D01*
X343839Y264159D01*
D20*
X100013Y504825D02*
X100013Y509588D01*
X100017Y509895D01*
X100028Y510202D01*
X100046Y510508D01*
X100072Y510814D01*
X100106Y511119D01*
X100146Y511423D01*
X100194Y511726D01*
X100250Y512028D01*
X100312Y512328D01*
X100382Y512627D01*
X100459Y512924D01*
X100543Y513220D01*
X100635Y513513D01*
X100733Y513803D01*
X100838Y514091D01*
X100951Y514377D01*
X101070Y514660D01*
X101196Y514940D01*
X101328Y515217D01*
X101468Y515490D01*
X101614Y515760D01*
X101766Y516026D01*
X101925Y516289D01*
X102090Y516548D01*
X102261Y516802D01*
X102438Y517053D01*
X102622Y517299D01*
X102811Y517541D01*
X103006Y517777D01*
X103207Y518010D01*
X103413Y518237D01*
X103625Y518459D01*
X103842Y518676D01*
X104064Y518888D01*
X104291Y519094D01*
X104524Y519295D01*
X104760Y519490D01*
X105002Y519679D01*
X105248Y519863D01*
X105499Y520040D01*
X105753Y520211D01*
X106012Y520376D01*
X106275Y520535D01*
X106541Y520687D01*
X106811Y520833D01*
X107084Y520973D01*
X107361Y521105D01*
X107641Y521231D01*
X107924Y521350D01*
X108210Y521463D01*
X108498Y521568D01*
X108788Y521666D01*
X109081Y521758D01*
X109377Y521842D01*
X109674Y521919D01*
X109973Y521989D01*
X110273Y522051D01*
X110575Y522107D01*
X110878Y522155D01*
X111182Y522195D01*
X111487Y522229D01*
X111793Y522255D01*
X112099Y522273D01*
X112406Y522284D01*
X112713Y522288D01*
X157163Y522288D01*
X158122Y522276D01*
X159080Y522242D01*
X160038Y522184D01*
X160993Y522103D01*
X161947Y521999D01*
X162897Y521872D01*
X163845Y521721D01*
X164788Y521549D01*
X165727Y521353D01*
X166661Y521135D01*
X167589Y520894D01*
X168512Y520631D01*
X169427Y520346D01*
X170336Y520038D01*
X171237Y519709D01*
X172129Y519358D01*
X173013Y518986D01*
X173888Y518592D01*
X174752Y518177D01*
X175607Y517742D01*
X176451Y517286D01*
X177283Y516810D01*
X178104Y516314D01*
X178913Y515798D01*
X179708Y515263D01*
X180491Y514708D01*
X181260Y514135D01*
X182015Y513544D01*
X182755Y512934D01*
X183481Y512307D01*
X184191Y511662D01*
X184886Y511001D01*
X185564Y510323D01*
X186225Y509628D01*
X186870Y508918D01*
X187497Y508192D01*
X188107Y507452D01*
X188698Y506697D01*
X189271Y505928D01*
X189826Y505145D01*
X190361Y504350D01*
X190877Y503541D01*
X191373Y502720D01*
X191849Y501888D01*
X192305Y501044D01*
X192740Y500189D01*
X193155Y499325D01*
X193549Y498450D01*
X193921Y497566D01*
X194272Y496674D01*
X194601Y495773D01*
X194909Y494864D01*
X195194Y493949D01*
X195457Y493026D01*
X195698Y492098D01*
X195916Y491164D01*
X196112Y490225D01*
X196284Y489282D01*
X196435Y488334D01*
X196562Y487384D01*
X196666Y486430D01*
X196747Y485475D01*
X196805Y484517D01*
X196839Y483559D01*
X196851Y482600D01*
X284163Y522288D02*
X284547Y522283D01*
X284930Y522269D01*
X285313Y522246D01*
X285695Y522214D01*
X286077Y522172D01*
X286457Y522121D01*
X286836Y522061D01*
X287213Y521992D01*
X287589Y521914D01*
X287962Y521827D01*
X288333Y521730D01*
X288702Y521625D01*
X289069Y521511D01*
X289432Y521388D01*
X289792Y521256D01*
X290149Y521116D01*
X290503Y520967D01*
X290853Y520810D01*
X291199Y520644D01*
X291540Y520470D01*
X291878Y520287D01*
X292211Y520097D01*
X292539Y519898D01*
X292863Y519692D01*
X293181Y519478D01*
X293494Y519256D01*
X293802Y519027D01*
X294104Y518790D01*
X294400Y518547D01*
X294690Y518296D01*
X294974Y518038D01*
X295252Y517773D01*
X295523Y517502D01*
X295788Y517224D01*
X296046Y516940D01*
X296297Y516650D01*
X296540Y516354D01*
X296777Y516052D01*
X297006Y515744D01*
X297228Y515431D01*
X297442Y515113D01*
X297648Y514789D01*
X297847Y514461D01*
X298037Y514128D01*
X298220Y513790D01*
X298394Y513449D01*
X298560Y513103D01*
X298717Y512753D01*
X298866Y512399D01*
X299006Y512042D01*
X299138Y511682D01*
X299261Y511319D01*
X299375Y510952D01*
X299480Y510583D01*
X299577Y510212D01*
X299664Y509839D01*
X299742Y509463D01*
X299811Y509086D01*
X299871Y508707D01*
X299922Y508327D01*
X299964Y507945D01*
X299996Y507563D01*
X300019Y507180D01*
X300033Y506797D01*
X300038Y506413D01*
X284163Y522288D02*
X236538Y522288D01*
X235579Y522276D01*
X234621Y522242D01*
X233663Y522184D01*
X232708Y522103D01*
X231754Y521999D01*
X230804Y521872D01*
X229856Y521721D01*
X228913Y521549D01*
X227974Y521353D01*
X227040Y521135D01*
X226112Y520894D01*
X225189Y520631D01*
X224274Y520346D01*
X223365Y520038D01*
X222464Y519709D01*
X221572Y519358D01*
X220688Y518986D01*
X219813Y518592D01*
X218949Y518177D01*
X218094Y517742D01*
X217250Y517286D01*
X216418Y516810D01*
X215597Y516314D01*
X214788Y515798D01*
X213993Y515263D01*
X213210Y514708D01*
X212441Y514135D01*
X211686Y513544D01*
X210946Y512934D01*
X210220Y512307D01*
X209510Y511662D01*
X208815Y511001D01*
X208137Y510323D01*
X207476Y509628D01*
X206831Y508918D01*
X206204Y508192D01*
X205594Y507452D01*
X205003Y506697D01*
X204430Y505928D01*
X203875Y505145D01*
X203340Y504350D01*
X202824Y503541D01*
X202328Y502720D01*
X201852Y501888D01*
X201396Y501044D01*
X200961Y500189D01*
X200546Y499325D01*
X200152Y498450D01*
X199780Y497566D01*
X199429Y496674D01*
X199100Y495773D01*
X198792Y494864D01*
X198507Y493949D01*
X198244Y493026D01*
X198003Y492098D01*
X197785Y491164D01*
X197589Y490225D01*
X197417Y489282D01*
X197266Y488334D01*
X197139Y487384D01*
X197035Y486430D01*
X196954Y485475D01*
X196896Y484517D01*
X196862Y483559D01*
X196850Y482600D01*
X196850Y368300D01*
X238125Y339725D02*
X238125Y241300D01*
X238125Y339725D02*
X238119Y340185D01*
X238103Y340645D01*
X238075Y341105D01*
X238036Y341564D01*
X237986Y342021D01*
X237925Y342478D01*
X237853Y342932D01*
X237770Y343385D01*
X237676Y343836D01*
X237571Y344284D01*
X237456Y344730D01*
X237330Y345172D01*
X237193Y345612D01*
X237045Y346048D01*
X236887Y346480D01*
X236719Y346909D01*
X236540Y347333D01*
X236351Y347753D01*
X236152Y348168D01*
X235943Y348578D01*
X235724Y348983D01*
X235496Y349383D01*
X235257Y349777D01*
X235010Y350165D01*
X234753Y350547D01*
X234487Y350922D01*
X234212Y351291D01*
X233928Y351654D01*
X233635Y352009D01*
X233334Y352357D01*
X233025Y352698D01*
X232707Y353032D01*
X232382Y353357D01*
X232048Y353675D01*
X231707Y353984D01*
X231359Y354285D01*
X231004Y354578D01*
X230641Y354862D01*
X230272Y355137D01*
X229897Y355403D01*
X229515Y355660D01*
X229127Y355907D01*
X228733Y356146D01*
X228333Y356374D01*
X227928Y356593D01*
X227518Y356802D01*
X227103Y357001D01*
X226683Y357190D01*
X226259Y357369D01*
X225830Y357537D01*
X225398Y357695D01*
X224962Y357843D01*
X224522Y357980D01*
X224080Y358106D01*
X223634Y358221D01*
X223186Y358326D01*
X222735Y358420D01*
X222282Y358503D01*
X221828Y358575D01*
X221371Y358636D01*
X220914Y358686D01*
X220455Y358725D01*
X219995Y358753D01*
X219535Y358769D01*
X219075Y358775D01*
X206375Y358775D01*
X206145Y358778D01*
X205915Y358786D01*
X205685Y358800D01*
X205456Y358819D01*
X205227Y358844D01*
X204999Y358875D01*
X204771Y358911D01*
X204545Y358952D01*
X204320Y358999D01*
X204096Y359052D01*
X203873Y359110D01*
X203651Y359173D01*
X203432Y359241D01*
X203214Y359315D01*
X202997Y359394D01*
X202783Y359478D01*
X202571Y359568D01*
X202361Y359662D01*
X202154Y359762D01*
X201949Y359866D01*
X201746Y359975D01*
X201546Y360090D01*
X201349Y360209D01*
X201155Y360333D01*
X200964Y360461D01*
X200776Y360594D01*
X200592Y360732D01*
X200411Y360874D01*
X200233Y361020D01*
X200059Y361170D01*
X199888Y361325D01*
X199722Y361484D01*
X199559Y361647D01*
X199400Y361813D01*
X199245Y361984D01*
X199095Y362158D01*
X198949Y362336D01*
X198807Y362517D01*
X198669Y362701D01*
X198536Y362889D01*
X198408Y363080D01*
X198284Y363274D01*
X198165Y363471D01*
X198050Y363671D01*
X197941Y363874D01*
X197837Y364079D01*
X197737Y364286D01*
X197643Y364496D01*
X197553Y364708D01*
X197469Y364922D01*
X197390Y365139D01*
X197316Y365357D01*
X197248Y365576D01*
X197185Y365798D01*
X197127Y366021D01*
X197074Y366245D01*
X197027Y366470D01*
X196986Y366696D01*
X196950Y366924D01*
X196919Y367152D01*
X196894Y367381D01*
X196875Y367610D01*
X196861Y367840D01*
X196853Y368070D01*
X196850Y368300D01*
X161925Y230188D02*
X161925Y215900D01*
X161925Y241300D02*
X161925Y244475D01*
X161925Y241300D02*
X161925Y230188D01*
X215900Y230188D01*
X215900Y247650D01*
X228600Y260350D01*
X228600Y333375D01*
X200025Y333375D01*
X84054Y317500D02*
X83864Y317498D01*
X83675Y317491D01*
X83485Y317479D01*
X83296Y317463D01*
X83107Y317443D01*
X82919Y317418D01*
X82732Y317388D01*
X82545Y317354D01*
X82359Y317315D01*
X82174Y317272D01*
X81991Y317224D01*
X81808Y317172D01*
X81627Y317116D01*
X81447Y317055D01*
X81269Y316990D01*
X81092Y316920D01*
X80917Y316846D01*
X80744Y316769D01*
X80573Y316687D01*
X80404Y316600D01*
X80237Y316510D01*
X80072Y316416D01*
X79910Y316318D01*
X79750Y316216D01*
X79592Y316110D01*
X79438Y316000D01*
X79285Y315887D01*
X79136Y315770D01*
X78989Y315649D01*
X78846Y315525D01*
X78705Y315397D01*
X78568Y315266D01*
X78434Y315132D01*
X78303Y314995D01*
X78175Y314854D01*
X78051Y314711D01*
X77930Y314564D01*
X77813Y314415D01*
X77700Y314262D01*
X77590Y314108D01*
X77484Y313950D01*
X77382Y313790D01*
X77284Y313628D01*
X77190Y313463D01*
X77100Y313296D01*
X77013Y313127D01*
X76931Y312956D01*
X76854Y312783D01*
X76780Y312608D01*
X76710Y312431D01*
X76645Y312253D01*
X76584Y312073D01*
X76528Y311892D01*
X76476Y311709D01*
X76428Y311526D01*
X76385Y311341D01*
X76346Y311155D01*
X76312Y310968D01*
X76282Y310781D01*
X76257Y310593D01*
X76237Y310404D01*
X76221Y310215D01*
X76209Y310025D01*
X76202Y309836D01*
X76200Y309646D01*
X99151Y317501D02*
X100187Y317450D01*
X101222Y317374D01*
X102255Y317273D01*
X103285Y317147D01*
X104311Y316996D01*
X105334Y316821D01*
X106352Y316621D01*
X107366Y316396D01*
X108373Y316147D01*
X109374Y315874D01*
X110368Y315576D01*
X111355Y315255D01*
X112334Y314910D01*
X113304Y314541D01*
X114264Y314149D01*
X115215Y313734D01*
X116156Y313296D01*
X117086Y312835D01*
X118005Y312352D01*
X118911Y311848D01*
X119805Y311321D01*
X120686Y310773D01*
X121554Y310203D01*
X122408Y309613D01*
X123247Y309003D01*
X124071Y308372D01*
X124879Y307722D01*
X125672Y307052D01*
X126448Y306363D01*
X127208Y305656D01*
X127950Y304930D01*
X128674Y304187D01*
X129380Y303427D01*
X130068Y302650D01*
X130736Y301856D01*
X131386Y301047D01*
X132015Y300222D01*
X132624Y299382D01*
X133213Y298527D01*
X133781Y297659D01*
X134328Y296777D01*
X134854Y295882D01*
X135357Y294975D01*
X135839Y294055D01*
X136298Y293125D01*
X136735Y292183D01*
X137148Y291232D01*
X137539Y290270D01*
X137906Y289300D01*
X138250Y288321D01*
X138570Y287334D01*
X138866Y286339D01*
X139138Y285337D01*
X139385Y284330D01*
X139609Y283316D01*
X139807Y282298D01*
X139981Y281275D01*
X140130Y280248D01*
X140255Y279218D01*
X140354Y278185D01*
X140429Y277150D01*
X140478Y276113D01*
X140502Y275076D01*
X140501Y274038D01*
X140476Y273000D01*
X99150Y317500D02*
X84054Y317500D01*
X140475Y273000D02*
X140475Y216713D01*
X140479Y216348D01*
X140493Y215983D01*
X140515Y215619D01*
X140545Y215256D01*
X140585Y214893D01*
X140633Y214531D01*
X140691Y214171D01*
X140756Y213812D01*
X140831Y213455D01*
X140914Y213099D01*
X141005Y212746D01*
X141105Y212395D01*
X141214Y212047D01*
X141331Y211701D01*
X141456Y211358D01*
X141590Y211019D01*
X141731Y210683D01*
X141881Y210350D01*
X142039Y210021D01*
X142205Y209696D01*
X142378Y209375D01*
X142559Y209058D01*
X142748Y208746D01*
X142944Y208438D01*
X143148Y208135D01*
X143359Y207837D01*
X143577Y207545D01*
X143802Y207258D01*
X144034Y206976D01*
X144272Y206700D01*
X144518Y206430D01*
X144769Y206165D01*
X145027Y205907D01*
X145292Y205656D01*
X145562Y205410D01*
X145838Y205172D01*
X146120Y204940D01*
X146407Y204715D01*
X146699Y204497D01*
X146997Y204286D01*
X147300Y204082D01*
X147608Y203886D01*
X147920Y203697D01*
X148237Y203516D01*
X148558Y203343D01*
X148883Y203177D01*
X149212Y203019D01*
X149545Y202869D01*
X149881Y202728D01*
X150220Y202594D01*
X150563Y202469D01*
X150909Y202352D01*
X151257Y202243D01*
X151608Y202143D01*
X151961Y202052D01*
X152317Y201969D01*
X152674Y201894D01*
X153033Y201829D01*
X153393Y201771D01*
X153755Y201723D01*
X154118Y201683D01*
X154481Y201653D01*
X154845Y201631D01*
X155210Y201617D01*
X155575Y201613D01*
X168275Y201613D01*
X168275Y201612D02*
X168677Y201675D01*
X169078Y201747D01*
X169476Y201829D01*
X169873Y201920D01*
X170267Y202021D01*
X170659Y202131D01*
X171048Y202251D01*
X171433Y202380D01*
X171816Y202519D01*
X172195Y202666D01*
X172571Y202823D01*
X172942Y202989D01*
X173310Y203164D01*
X173673Y203348D01*
X174031Y203540D01*
X174385Y203741D01*
X174734Y203950D01*
X175078Y204168D01*
X175416Y204394D01*
X175749Y204628D01*
X176076Y204870D01*
X176397Y205120D01*
X176712Y205378D01*
X177021Y205643D01*
X177323Y205916D01*
X177618Y206195D01*
X177907Y206482D01*
X178188Y206776D01*
X178463Y207076D01*
X178730Y207383D01*
X178989Y207697D01*
X179241Y208016D01*
X179485Y208342D01*
X179722Y208673D01*
X179950Y209010D01*
X180170Y209352D01*
X180381Y209700D01*
X180584Y210052D01*
X180779Y210410D01*
X180965Y210772D01*
X181142Y211138D01*
X181310Y211509D01*
X181469Y211883D01*
X181619Y212261D01*
X181760Y212643D01*
X181892Y213028D01*
X182014Y213416D01*
X182127Y213807D01*
X182230Y214201D01*
X182324Y214597D01*
X182408Y214995D01*
X182483Y215395D01*
X182548Y215796D01*
X182603Y216200D01*
X182648Y216604D01*
X182684Y217009D01*
X182710Y217415D01*
X182726Y217822D01*
X182732Y218229D01*
X182728Y218636D01*
X182715Y219042D01*
X182691Y219449D01*
X182658Y219854D01*
X182615Y220259D01*
X182563Y220662D01*
X236538Y220663D02*
X236641Y220610D01*
X236742Y220553D01*
X236841Y220492D01*
X236938Y220429D01*
X237034Y220362D01*
X237127Y220292D01*
X237217Y220220D01*
X237305Y220144D01*
X237391Y220066D01*
X237474Y219984D01*
X237554Y219900D01*
X237632Y219814D01*
X237707Y219725D01*
X237778Y219634D01*
X237847Y219540D01*
X237913Y219444D01*
X237975Y219346D01*
X238034Y219246D01*
X238090Y219144D01*
X238142Y219041D01*
X238192Y218935D01*
X238237Y218828D01*
X238279Y218720D01*
X238318Y218611D01*
X238353Y218500D01*
X238384Y218388D01*
X238412Y218275D01*
X238436Y218161D01*
X238456Y218047D01*
X238472Y217932D01*
X238485Y217817D01*
X238494Y217701D01*
X238499Y217585D01*
X238500Y217468D01*
X238497Y217352D01*
X238491Y217236D01*
X238481Y217121D01*
X238467Y217005D01*
X238449Y216890D01*
X238428Y216776D01*
X238403Y216663D01*
X238374Y216550D01*
X238341Y216439D01*
X238305Y216328D01*
X238266Y216219D01*
X238222Y216111D01*
X238175Y216005D01*
X238125Y215900D01*
X236538Y220663D02*
X182563Y220663D01*
X288700Y310925D02*
X313425Y310925D01*
X288700Y310925D02*
X288015Y310917D01*
X287330Y310892D01*
X286646Y310851D01*
X285964Y310793D01*
X285283Y310718D01*
X284604Y310628D01*
X283927Y310520D01*
X283253Y310397D01*
X282583Y310257D01*
X281915Y310101D01*
X281252Y309929D01*
X280593Y309741D01*
X279939Y309537D01*
X279290Y309318D01*
X278647Y309083D01*
X278009Y308832D01*
X277378Y308566D01*
X276753Y308285D01*
X276136Y307989D01*
X275525Y307678D01*
X274922Y307352D01*
X274328Y307012D01*
X273741Y306657D01*
X273164Y306289D01*
X272595Y305907D01*
X272036Y305511D01*
X271487Y305101D01*
X270948Y304679D01*
X270419Y304243D01*
X269900Y303795D01*
X269393Y303335D01*
X268897Y302862D01*
X268413Y302378D01*
X267940Y301882D01*
X267480Y301375D01*
X267032Y300856D01*
X266596Y300327D01*
X266174Y299788D01*
X265764Y299239D01*
X265368Y298680D01*
X264986Y298111D01*
X264618Y297534D01*
X264263Y296947D01*
X263923Y296353D01*
X263597Y295750D01*
X263286Y295139D01*
X262990Y294522D01*
X262709Y293897D01*
X262443Y293266D01*
X262192Y292628D01*
X261957Y291985D01*
X261738Y291336D01*
X261534Y290682D01*
X261346Y290023D01*
X261174Y289360D01*
X261018Y288692D01*
X260878Y288022D01*
X260755Y287348D01*
X260647Y286671D01*
X260557Y285992D01*
X260482Y285311D01*
X260424Y284629D01*
X260383Y283945D01*
X260358Y283260D01*
X260350Y282575D01*
X260350Y234950D01*
X260344Y234490D01*
X260328Y234030D01*
X260300Y233570D01*
X260261Y233111D01*
X260211Y232654D01*
X260150Y232197D01*
X260078Y231743D01*
X259995Y231290D01*
X259901Y230839D01*
X259796Y230391D01*
X259681Y229945D01*
X259555Y229503D01*
X259418Y229063D01*
X259270Y228627D01*
X259112Y228195D01*
X258944Y227766D01*
X258765Y227342D01*
X258576Y226922D01*
X258377Y226507D01*
X258168Y226097D01*
X257949Y225692D01*
X257721Y225292D01*
X257482Y224898D01*
X257235Y224510D01*
X256978Y224128D01*
X256712Y223753D01*
X256437Y223384D01*
X256153Y223021D01*
X255860Y222666D01*
X255559Y222318D01*
X255250Y221977D01*
X254932Y221643D01*
X254607Y221318D01*
X254273Y221000D01*
X253932Y220691D01*
X253584Y220390D01*
X253229Y220097D01*
X252866Y219813D01*
X252497Y219538D01*
X252122Y219272D01*
X251740Y219015D01*
X251352Y218768D01*
X250958Y218529D01*
X250558Y218301D01*
X250153Y218082D01*
X249743Y217873D01*
X249328Y217674D01*
X248908Y217485D01*
X248484Y217306D01*
X248055Y217138D01*
X247623Y216980D01*
X247187Y216832D01*
X246747Y216695D01*
X246305Y216569D01*
X245859Y216454D01*
X245411Y216349D01*
X244960Y216255D01*
X244507Y216172D01*
X244053Y216100D01*
X243596Y216039D01*
X243139Y215989D01*
X242680Y215950D01*
X242220Y215922D01*
X241760Y215906D01*
X241300Y215900D01*
X236538Y220663D01*
X300038Y430213D02*
X300038Y436563D01*
X300032Y437062D01*
X300014Y437560D01*
X299984Y438058D01*
X299942Y438555D01*
X299888Y439051D01*
X299821Y439545D01*
X299743Y440038D01*
X299654Y440528D01*
X299552Y441016D01*
X299438Y441502D01*
X299313Y441985D01*
X299176Y442464D01*
X299028Y442940D01*
X298868Y443413D01*
X298697Y443881D01*
X298514Y444345D01*
X298321Y444805D01*
X298116Y445260D01*
X297900Y445710D01*
X297674Y446154D01*
X297437Y446593D01*
X297189Y447026D01*
X296931Y447452D01*
X296663Y447873D01*
X296385Y448287D01*
X296096Y448694D01*
X295798Y449094D01*
X295491Y449486D01*
X295174Y449871D01*
X294848Y450249D01*
X294513Y450618D01*
X294169Y450979D01*
X293816Y451332D01*
X293455Y451676D01*
X293086Y452011D01*
X292708Y452337D01*
X292323Y452654D01*
X291931Y452961D01*
X291531Y453259D01*
X291124Y453548D01*
X290710Y453826D01*
X290289Y454094D01*
X289863Y454352D01*
X289430Y454600D01*
X288991Y454837D01*
X288547Y455063D01*
X288097Y455279D01*
X287642Y455484D01*
X287182Y455677D01*
X286718Y455860D01*
X286250Y456031D01*
X285777Y456191D01*
X285301Y456339D01*
X284822Y456476D01*
X284339Y456601D01*
X283853Y456715D01*
X283365Y456817D01*
X282875Y456906D01*
X282382Y456984D01*
X281888Y457051D01*
X281392Y457105D01*
X280895Y457147D01*
X280397Y457177D01*
X279899Y457195D01*
X279400Y457201D01*
X279400Y457200D02*
X260033Y457200D01*
X260033Y457201D02*
X259580Y457196D01*
X259128Y457179D01*
X258676Y457152D01*
X258225Y457114D01*
X257775Y457064D01*
X257326Y457004D01*
X256879Y456934D01*
X256434Y456852D01*
X255991Y456760D01*
X255550Y456657D01*
X255112Y456543D01*
X254676Y456419D01*
X254244Y456284D01*
X253815Y456139D01*
X253390Y455984D01*
X252969Y455818D01*
X252552Y455642D01*
X252139Y455456D01*
X251731Y455261D01*
X251327Y455055D01*
X250929Y454840D01*
X250536Y454615D01*
X250149Y454381D01*
X249767Y454138D01*
X249391Y453885D01*
X249022Y453623D01*
X248659Y453353D01*
X248303Y453074D01*
X247953Y452786D01*
X247611Y452490D01*
X247276Y452186D01*
X246948Y451873D01*
X246628Y451553D01*
X246315Y451225D01*
X246011Y450890D01*
X245715Y450548D01*
X245427Y450198D01*
X245148Y449842D01*
X244878Y449479D01*
X244616Y449110D01*
X244363Y448734D01*
X244120Y448352D01*
X243886Y447965D01*
X243661Y447572D01*
X243446Y447174D01*
X243240Y446770D01*
X243045Y446362D01*
X242859Y445949D01*
X242683Y445532D01*
X242517Y445111D01*
X242362Y444686D01*
X242217Y444257D01*
X242082Y443825D01*
X241958Y443389D01*
X241844Y442951D01*
X241741Y442510D01*
X241649Y442067D01*
X241567Y441622D01*
X241497Y441175D01*
X241437Y440726D01*
X241387Y440276D01*
X241349Y439825D01*
X241322Y439373D01*
X241305Y438921D01*
X241300Y438468D01*
D21*
X161925Y436880D02*
X161925Y417513D01*
X161923Y417355D01*
X161917Y417196D01*
X161907Y417038D01*
X161893Y416881D01*
X161876Y416723D01*
X161854Y416567D01*
X161829Y416410D01*
X161799Y416255D01*
X161766Y416100D01*
X161729Y415946D01*
X161688Y415793D01*
X161643Y415641D01*
X161594Y415491D01*
X161542Y415341D01*
X161486Y415193D01*
X161426Y415046D01*
X161363Y414901D01*
X161296Y414758D01*
X161226Y414616D01*
X161152Y414476D01*
X161074Y414338D01*
X160993Y414202D01*
X160909Y414068D01*
X160822Y413936D01*
X160731Y413806D01*
X160637Y413679D01*
X160540Y413554D01*
X160439Y413431D01*
X160336Y413311D01*
X160230Y413194D01*
X160121Y413079D01*
X160009Y412967D01*
X159894Y412858D01*
X159777Y412752D01*
X159657Y412649D01*
X159534Y412548D01*
X159409Y412451D01*
X159282Y412357D01*
X159152Y412266D01*
X159020Y412179D01*
X158886Y412095D01*
X158750Y412014D01*
X158612Y411936D01*
X158472Y411862D01*
X158330Y411792D01*
X158187Y411725D01*
X158042Y411662D01*
X157895Y411602D01*
X157747Y411546D01*
X157597Y411494D01*
X157447Y411445D01*
X157295Y411400D01*
X157142Y411359D01*
X156988Y411322D01*
X156833Y411289D01*
X156678Y411259D01*
X156521Y411234D01*
X156365Y411212D01*
X156207Y411195D01*
X156050Y411181D01*
X155892Y411171D01*
X155733Y411165D01*
X155575Y411163D01*
X120650Y411163D01*
X120190Y411130D01*
X119728Y411109D01*
X119266Y411098D01*
X118804Y411099D01*
X118343Y411111D01*
X117881Y411134D01*
X117421Y411168D01*
X116961Y411213D01*
X116502Y411269D01*
X116045Y411337D01*
X115590Y411415D01*
X115137Y411505D01*
X114686Y411605D01*
X114238Y411716D01*
X113792Y411838D01*
X113350Y411971D01*
X112911Y412114D01*
X112475Y412268D01*
X112043Y412433D01*
X111616Y412607D01*
X111192Y412792D01*
X110774Y412988D01*
X110360Y413193D01*
X109951Y413408D01*
X109548Y413633D01*
X109150Y413868D01*
X108758Y414112D01*
X108372Y414366D01*
X107992Y414629D01*
X107619Y414901D01*
X107252Y415182D01*
X106892Y415472D01*
X106540Y415770D01*
X106194Y416077D01*
X105857Y416392D01*
X105526Y416715D01*
X105204Y417046D01*
X104890Y417385D01*
X104584Y417731D01*
X104287Y418085D01*
X103998Y418445D01*
X103718Y418813D01*
X103447Y419187D01*
X103185Y419568D01*
X102933Y419954D01*
X102690Y420347D01*
X102456Y420746D01*
X102232Y421150D01*
X102018Y421559D01*
X101814Y421973D01*
X101620Y422393D01*
X101436Y422816D01*
X101262Y423245D01*
X101099Y423677D01*
X100947Y424113D01*
X100804Y424552D01*
X100673Y424995D01*
X100552Y425441D01*
X100442Y425890D01*
X100343Y426341D01*
X100255Y426794D01*
X100178Y427250D01*
X100112Y427707D01*
X100057Y428166D01*
X100013Y428626D01*
M02*
