G04 EAGLE Gerber X2 export*
G75*
%MOMM*%
%FSLAX34Y34*%
%LPD*%
%AMOC8*
5,1,8,0,0,1.08239X$1,22.5*%
G01*
%ADD10R,11.300000X2.600000*%
%ADD11R,18.300000X7.500000*%
%ADD12R,26.352500X0.952500*%
%ADD13R,18.732500X9.842500*%
%ADD14C,1.524000*%
%ADD15P,1.649562X8X292.500000*%
%ADD16C,1.511200*%
%ADD17P,1.635708X8X333.500000*%
%ADD18P,1.635708X8X253.500000*%
%ADD19C,3.303200*%
%ADD20P,1.649562X8X262.500000*%
%ADD21P,1.649562X8X324.500000*%
%ADD22C,0.959600*%

G36*
X324004Y237979D02*
X324004Y237979D01*
X324194Y237978D01*
X324205Y237980D01*
X324217Y237980D01*
X324403Y238019D01*
X324589Y238056D01*
X324600Y238060D01*
X324611Y238063D01*
X324785Y238138D01*
X324960Y238210D01*
X324970Y238217D01*
X324981Y238221D01*
X325258Y238405D01*
X377258Y279405D01*
X377391Y279534D01*
X377528Y279662D01*
X377537Y279674D01*
X377548Y279684D01*
X377654Y279838D01*
X377762Y279989D01*
X377768Y280003D01*
X377777Y280015D01*
X377851Y280187D01*
X377927Y280357D01*
X377930Y280371D01*
X377936Y280385D01*
X377974Y280567D01*
X378016Y280749D01*
X378016Y280764D01*
X378019Y280779D01*
X378021Y280965D01*
X378026Y281152D01*
X378023Y281167D01*
X378023Y281182D01*
X377988Y281364D01*
X377956Y281548D01*
X377950Y281562D01*
X377948Y281577D01*
X377877Y281749D01*
X377809Y281923D01*
X377801Y281937D01*
X377795Y281950D01*
X377757Y282007D01*
X377635Y282205D01*
X352860Y315805D01*
X352807Y315864D01*
X352762Y315928D01*
X352673Y316013D01*
X352590Y316104D01*
X352527Y316151D01*
X352470Y316205D01*
X352337Y316292D01*
X352267Y316344D01*
X352232Y316360D01*
X352192Y316386D01*
X341892Y321961D01*
X341841Y321983D01*
X341794Y322011D01*
X341656Y322060D01*
X341521Y322117D01*
X341467Y322128D01*
X341415Y322146D01*
X341269Y322167D01*
X341126Y322196D01*
X341071Y322196D01*
X341016Y322204D01*
X340870Y322196D01*
X340723Y322196D01*
X340669Y322185D01*
X340614Y322182D01*
X340472Y322146D01*
X340329Y322117D01*
X340278Y322095D01*
X340225Y322082D01*
X340092Y322018D01*
X339957Y321961D01*
X339912Y321930D01*
X339862Y321906D01*
X339745Y321817D01*
X339624Y321735D01*
X339585Y321696D01*
X339542Y321662D01*
X339396Y321503D01*
X339342Y321448D01*
X339332Y321433D01*
X339318Y321417D01*
X304393Y276242D01*
X304299Y276092D01*
X304201Y275943D01*
X304192Y275921D01*
X304180Y275901D01*
X304117Y275735D01*
X304050Y275569D01*
X304046Y275546D01*
X304038Y275524D01*
X304009Y275349D01*
X303976Y275174D01*
X303977Y275150D01*
X303973Y275127D01*
X303979Y274949D01*
X303982Y274771D01*
X303987Y274748D01*
X303988Y274725D01*
X304029Y274551D01*
X304067Y274378D01*
X304077Y274353D01*
X304081Y274333D01*
X304115Y274260D01*
X304194Y274071D01*
X322194Y239071D01*
X322200Y239061D01*
X322205Y239050D01*
X322308Y238894D01*
X322412Y238733D01*
X322421Y238724D01*
X322427Y238715D01*
X322560Y238581D01*
X322693Y238445D01*
X322703Y238438D01*
X322712Y238430D01*
X322870Y238324D01*
X323026Y238218D01*
X323037Y238213D01*
X323047Y238206D01*
X323223Y238134D01*
X323397Y238060D01*
X323408Y238058D01*
X323419Y238054D01*
X323605Y238018D01*
X323791Y237980D01*
X323803Y237980D01*
X323814Y237977D01*
X324004Y237979D01*
G37*
G36*
X70194Y240986D02*
X70194Y240986D01*
X70302Y240991D01*
X70393Y241014D01*
X70485Y241028D01*
X70588Y241064D01*
X70693Y241091D01*
X70777Y241131D01*
X70865Y241162D01*
X70958Y241218D01*
X71056Y241265D01*
X71130Y241321D01*
X71210Y241369D01*
X71291Y241442D01*
X71377Y241507D01*
X71439Y241577D01*
X71508Y241640D01*
X71573Y241727D01*
X71645Y241808D01*
X71703Y241903D01*
X71747Y241964D01*
X71773Y242019D01*
X71817Y242092D01*
X91642Y281742D01*
X91659Y281787D01*
X91683Y281829D01*
X91731Y281975D01*
X91785Y282118D01*
X91793Y282166D01*
X91808Y282212D01*
X91826Y282364D01*
X91852Y282515D01*
X91850Y282563D01*
X91856Y282612D01*
X91844Y282764D01*
X91839Y282917D01*
X91827Y282964D01*
X91824Y283013D01*
X91781Y283160D01*
X91746Y283309D01*
X91726Y283353D01*
X91713Y283400D01*
X91642Y283536D01*
X91579Y283675D01*
X91550Y283714D01*
X91528Y283758D01*
X91432Y283877D01*
X91342Y284001D01*
X91306Y284034D01*
X91276Y284072D01*
X91093Y284230D01*
X91046Y284274D01*
X91036Y284280D01*
X91025Y284289D01*
X78325Y293589D01*
X78305Y293600D01*
X78284Y293618D01*
X47109Y315268D01*
X47002Y315328D01*
X46900Y315395D01*
X46826Y315425D01*
X46757Y315464D01*
X46640Y315501D01*
X46527Y315548D01*
X46449Y315562D01*
X46373Y315587D01*
X46252Y315600D01*
X46132Y315623D01*
X46052Y315622D01*
X45973Y315631D01*
X45851Y315620D01*
X45729Y315619D01*
X45651Y315603D01*
X45572Y315596D01*
X45455Y315561D01*
X45335Y315536D01*
X45262Y315504D01*
X45186Y315482D01*
X45078Y315425D01*
X44965Y315377D01*
X44900Y315331D01*
X44830Y315294D01*
X44735Y315217D01*
X44634Y315148D01*
X44579Y315090D01*
X44518Y315040D01*
X44440Y314946D01*
X44355Y314858D01*
X44304Y314780D01*
X44262Y314729D01*
X44228Y314667D01*
X44171Y314581D01*
X21221Y272981D01*
X21155Y272825D01*
X21083Y272671D01*
X21075Y272640D01*
X21063Y272611D01*
X21028Y272445D01*
X20988Y272280D01*
X20987Y272248D01*
X20980Y272217D01*
X20979Y272047D01*
X20972Y271878D01*
X20978Y271846D01*
X20977Y271814D01*
X21009Y271648D01*
X21036Y271480D01*
X21048Y271450D01*
X21054Y271419D01*
X21118Y271262D01*
X21178Y271103D01*
X21194Y271076D01*
X21206Y271047D01*
X21301Y270905D01*
X21390Y270761D01*
X21412Y270738D01*
X21430Y270712D01*
X21550Y270592D01*
X21666Y270468D01*
X21695Y270447D01*
X21715Y270427D01*
X21786Y270380D01*
X21933Y270271D01*
X68933Y241271D01*
X69031Y241224D01*
X69124Y241168D01*
X69211Y241136D01*
X69295Y241095D01*
X69400Y241068D01*
X69502Y241031D01*
X69595Y241017D01*
X69685Y240993D01*
X69793Y240987D01*
X69900Y240971D01*
X69994Y240976D01*
X70087Y240971D01*
X70194Y240986D01*
G37*
G36*
X348058Y437993D02*
X348058Y437993D01*
X348116Y437991D01*
X348198Y438013D01*
X348282Y438025D01*
X348335Y438049D01*
X348391Y438063D01*
X348464Y438106D01*
X348541Y438141D01*
X348586Y438179D01*
X348636Y438209D01*
X348694Y438270D01*
X348758Y438325D01*
X348790Y438373D01*
X348830Y438416D01*
X348869Y438491D01*
X348916Y438561D01*
X348933Y438617D01*
X348960Y438669D01*
X348971Y438737D01*
X349001Y438832D01*
X349004Y438932D01*
X349015Y439000D01*
X349015Y505000D01*
X349007Y505057D01*
X349009Y505108D01*
X349008Y505108D01*
X349009Y505116D01*
X348987Y505198D01*
X348975Y505282D01*
X348952Y505335D01*
X348937Y505391D01*
X348894Y505464D01*
X348859Y505541D01*
X348821Y505586D01*
X348792Y505636D01*
X348730Y505694D01*
X348676Y505758D01*
X348627Y505790D01*
X348584Y505830D01*
X348509Y505869D01*
X348439Y505916D01*
X348383Y505933D01*
X348331Y505960D01*
X348263Y505971D01*
X348168Y506001D01*
X348068Y506004D01*
X348000Y506015D01*
X319000Y506015D01*
X318942Y506007D01*
X318884Y506009D01*
X318802Y505987D01*
X318719Y505975D01*
X318665Y505952D01*
X318609Y505937D01*
X318536Y505894D01*
X318459Y505859D01*
X318414Y505821D01*
X318364Y505792D01*
X318306Y505730D01*
X318242Y505676D01*
X318210Y505627D01*
X318170Y505584D01*
X318131Y505509D01*
X318085Y505439D01*
X318067Y505383D01*
X318040Y505331D01*
X318029Y505263D01*
X317999Y505168D01*
X317996Y505068D01*
X317985Y505000D01*
X317985Y466000D01*
X317993Y465942D01*
X317991Y465884D01*
X318013Y465802D01*
X318025Y465719D01*
X318049Y465665D01*
X318063Y465609D01*
X318106Y465536D01*
X318141Y465459D01*
X318179Y465414D01*
X318209Y465364D01*
X318270Y465306D01*
X318325Y465242D01*
X318373Y465210D01*
X318416Y465170D01*
X318491Y465131D01*
X318561Y465085D01*
X318617Y465067D01*
X318669Y465040D01*
X318737Y465029D01*
X318832Y464999D01*
X318932Y464996D01*
X319000Y464985D01*
X326985Y464985D01*
X326985Y439000D01*
X326993Y438942D01*
X326991Y438884D01*
X327013Y438802D01*
X327025Y438719D01*
X327049Y438665D01*
X327063Y438609D01*
X327106Y438536D01*
X327141Y438459D01*
X327179Y438414D01*
X327209Y438364D01*
X327270Y438306D01*
X327325Y438242D01*
X327373Y438210D01*
X327416Y438170D01*
X327491Y438131D01*
X327561Y438085D01*
X327617Y438067D01*
X327669Y438040D01*
X327737Y438029D01*
X327832Y437999D01*
X327932Y437996D01*
X328000Y437985D01*
X348000Y437985D01*
X348058Y437993D01*
G37*
G36*
X69058Y440993D02*
X69058Y440993D01*
X69116Y440991D01*
X69198Y441013D01*
X69282Y441025D01*
X69335Y441049D01*
X69391Y441063D01*
X69464Y441106D01*
X69541Y441141D01*
X69586Y441179D01*
X69636Y441209D01*
X69694Y441270D01*
X69758Y441325D01*
X69790Y441373D01*
X69830Y441416D01*
X69869Y441491D01*
X69916Y441561D01*
X69933Y441617D01*
X69960Y441669D01*
X69971Y441737D01*
X70001Y441832D01*
X70004Y441932D01*
X70015Y442000D01*
X70015Y463985D01*
X80000Y463985D01*
X80058Y463993D01*
X80116Y463991D01*
X80198Y464013D01*
X80282Y464025D01*
X80335Y464049D01*
X80391Y464063D01*
X80464Y464106D01*
X80541Y464141D01*
X80586Y464179D01*
X80636Y464209D01*
X80694Y464270D01*
X80758Y464325D01*
X80790Y464373D01*
X80830Y464416D01*
X80869Y464491D01*
X80916Y464561D01*
X80933Y464617D01*
X80960Y464669D01*
X80971Y464737D01*
X81001Y464832D01*
X81004Y464932D01*
X81015Y465000D01*
X81015Y503000D01*
X81007Y503058D01*
X81009Y503116D01*
X80987Y503198D01*
X80975Y503282D01*
X80952Y503335D01*
X80937Y503391D01*
X80894Y503464D01*
X80859Y503541D01*
X80821Y503586D01*
X80792Y503636D01*
X80730Y503694D01*
X80676Y503758D01*
X80627Y503790D01*
X80584Y503830D01*
X80509Y503869D01*
X80439Y503916D01*
X80383Y503933D01*
X80331Y503960D01*
X80263Y503971D01*
X80168Y504001D01*
X80068Y504004D01*
X80000Y504015D01*
X52000Y504015D01*
X51942Y504007D01*
X51884Y504009D01*
X51802Y503987D01*
X51719Y503975D01*
X51665Y503952D01*
X51609Y503937D01*
X51536Y503894D01*
X51459Y503859D01*
X51414Y503821D01*
X51364Y503792D01*
X51306Y503730D01*
X51242Y503676D01*
X51210Y503627D01*
X51170Y503584D01*
X51131Y503509D01*
X51085Y503439D01*
X51067Y503383D01*
X51040Y503331D01*
X51029Y503263D01*
X50999Y503168D01*
X50996Y503068D01*
X50985Y503000D01*
X50985Y442000D01*
X50993Y441942D01*
X50991Y441884D01*
X51013Y441802D01*
X51025Y441719D01*
X51049Y441665D01*
X51063Y441609D01*
X51106Y441536D01*
X51141Y441459D01*
X51179Y441414D01*
X51209Y441364D01*
X51270Y441306D01*
X51325Y441242D01*
X51373Y441210D01*
X51416Y441170D01*
X51491Y441131D01*
X51561Y441085D01*
X51617Y441067D01*
X51669Y441040D01*
X51737Y441029D01*
X51832Y440999D01*
X51932Y440996D01*
X52000Y440985D01*
X69000Y440985D01*
X69058Y440993D01*
G37*
D10*
X199500Y384000D03*
D11*
X201500Y165500D03*
D12*
X198438Y76200D03*
D13*
X198438Y312738D03*
D14*
X231521Y215900D02*
X244729Y215900D01*
X244729Y241300D02*
X231521Y241300D01*
X168529Y241300D02*
X155321Y241300D01*
X155321Y215900D02*
X168529Y215900D01*
D15*
X100013Y504825D03*
X100013Y428625D03*
X300038Y506413D03*
X300038Y430213D03*
D16*
X365581Y214159D03*
D17*
X382940Y229249D03*
D16*
X8405Y225489D03*
D18*
X26280Y211015D03*
D19*
X228600Y484188D03*
X149225Y482600D03*
D20*
X76200Y309646D03*
X38100Y243655D03*
D21*
X313425Y310925D03*
X353805Y246303D03*
D22*
X114300Y228600D03*
X285750Y228600D03*
X200025Y241300D03*
X177800Y377825D03*
X219075Y377825D03*
M02*
