M48
;GenerationSoftware,Autodesk,EAGLE,8.6.0*%
;CreationDate,2022-05-10T19:14:35Z*%
FMAT,2
ICI,OFF
METRIC,TZ,000.000
T4C0.350
T3C0.800
T2C0.813
T1C3.100
%
G90
M71
T1
X22860Y48419
X14922Y48260
T2
X23812Y21590
X23812Y24130
X16192Y24130
X16192Y21590
X10001Y50482
X10001Y42863
X30004Y50641
X30004Y43021
X7620Y30965
X3810Y24365
X31343Y31092
X35381Y24630
T3
X36558Y21416
X38294Y22925
X841Y22549
X2628Y21101
T4
X11430Y22860
X28575Y22860
X20003Y24130
X17780Y37783
X21907Y37783
M30