G04 EAGLE Gerber X2 export*
G75*
%MOMM*%
%FSLAX34Y34*%
%LPD*%
%AMOC8*
5,1,8,0,0,1.08239X$1,22.5*%
G01*
%ADD10R,29.800000X6.800000*%
%ADD11C,0.304800*%
%ADD12C,0.609600*%
%ADD13C,0.152400*%
%ADD14R,0.381000X1.016000*%
%ADD15R,0.508000X0.381000*%
%ADD16C,0.127000*%
%ADD17R,0.381000X0.508000*%

G36*
X243024Y463988D02*
X243024Y463988D01*
X243049Y463986D01*
X243124Y464002D01*
X243282Y464025D01*
X243334Y464048D01*
X243377Y464057D01*
X253377Y468057D01*
X253624Y468199D01*
X253642Y468218D01*
X253661Y468229D01*
X260661Y474229D01*
X260703Y474277D01*
X260752Y474318D01*
X260787Y474373D01*
X260849Y474443D01*
X260894Y474540D01*
X260933Y474600D01*
X263933Y481600D01*
X263946Y481646D01*
X263963Y481679D01*
X265963Y487679D01*
X266014Y487959D01*
X266012Y487981D01*
X266015Y488000D01*
X266015Y497000D01*
X266010Y497037D01*
X266013Y497074D01*
X265994Y497150D01*
X265975Y497282D01*
X265946Y497347D01*
X265933Y497400D01*
X262933Y504400D01*
X262892Y504468D01*
X262871Y504522D01*
X259871Y509522D01*
X259869Y509524D01*
X259869Y509525D01*
X259858Y509538D01*
X259692Y509743D01*
X259666Y509761D01*
X259650Y509780D01*
X253650Y514780D01*
X253572Y514828D01*
X253522Y514871D01*
X248522Y517871D01*
X248434Y517908D01*
X248377Y517943D01*
X243377Y519943D01*
X243353Y519949D01*
X243331Y519960D01*
X243255Y519973D01*
X243101Y520010D01*
X243044Y520008D01*
X243000Y520015D01*
X237000Y520015D01*
X236937Y520006D01*
X236888Y520009D01*
X227888Y519009D01*
X227878Y519006D01*
X227867Y519007D01*
X227810Y518989D01*
X227613Y518938D01*
X227577Y518918D01*
X227546Y518908D01*
X221546Y515908D01*
X221434Y515831D01*
X221366Y515793D01*
X216366Y511793D01*
X216279Y511700D01*
X216220Y511650D01*
X211220Y505650D01*
X211138Y505517D01*
X211092Y505454D01*
X207092Y497454D01*
X207055Y497343D01*
X207012Y497234D01*
X207011Y497211D01*
X207002Y497184D01*
X206990Y496900D01*
X206990Y496899D01*
X207990Y486899D01*
X208010Y486816D01*
X208015Y486754D01*
X210015Y478754D01*
X210028Y478722D01*
X210034Y478689D01*
X210070Y478619D01*
X210122Y478490D01*
X210164Y478437D01*
X210188Y478391D01*
X213188Y474391D01*
X213280Y474299D01*
X213369Y474205D01*
X213380Y474198D01*
X213389Y474190D01*
X213502Y474127D01*
X213614Y474061D01*
X213626Y474058D01*
X213637Y474052D01*
X213764Y474023D01*
X213890Y473991D01*
X213902Y473991D01*
X213914Y473988D01*
X213991Y473993D01*
X213986Y473942D01*
X213998Y473884D01*
X214000Y473826D01*
X214026Y473746D01*
X214042Y473663D01*
X214069Y473611D01*
X214087Y473555D01*
X214127Y473499D01*
X214173Y473411D01*
X214242Y473338D01*
X214282Y473282D01*
X218282Y469282D01*
X218509Y469111D01*
X218531Y469103D01*
X218546Y469092D01*
X224546Y466092D01*
X224605Y466072D01*
X224608Y466071D01*
X224611Y466070D01*
X224713Y466036D01*
X224780Y466009D01*
X233780Y464009D01*
X233922Y463998D01*
X234000Y463985D01*
X243000Y463985D01*
X243024Y463988D01*
G37*
G36*
X164024Y462988D02*
X164024Y462988D01*
X164049Y462986D01*
X164124Y463002D01*
X164282Y463025D01*
X164334Y463048D01*
X164377Y463057D01*
X169377Y465057D01*
X169573Y465170D01*
X169577Y465171D01*
X169578Y465173D01*
X169624Y465199D01*
X169642Y465218D01*
X169661Y465229D01*
X176661Y471229D01*
X176727Y471305D01*
X176780Y471350D01*
X181780Y477350D01*
X181803Y477387D01*
X181832Y477418D01*
X181865Y477487D01*
X181930Y477592D01*
X181951Y477668D01*
X181976Y477721D01*
X183976Y484721D01*
X184013Y484987D01*
X184015Y485000D01*
X184015Y495000D01*
X184012Y495024D01*
X184014Y495049D01*
X183998Y495124D01*
X183975Y495282D01*
X183952Y495334D01*
X183943Y495377D01*
X181943Y500377D01*
X181936Y500389D01*
X181933Y500400D01*
X178933Y507400D01*
X178920Y507421D01*
X178913Y507445D01*
X178868Y507507D01*
X178786Y507643D01*
X178744Y507682D01*
X178718Y507718D01*
X173718Y512718D01*
X173542Y512850D01*
X173504Y512881D01*
X166504Y516881D01*
X166482Y516890D01*
X166463Y516903D01*
X166391Y516926D01*
X166240Y516987D01*
X166185Y516992D01*
X166144Y517005D01*
X159144Y518005D01*
X158859Y518005D01*
X158845Y518001D01*
X158833Y518001D01*
X146833Y516001D01*
X146771Y515982D01*
X146721Y515976D01*
X139721Y513976D01*
X139691Y513963D01*
X139659Y513956D01*
X139590Y513918D01*
X139461Y513861D01*
X139410Y513818D01*
X139366Y513793D01*
X134366Y509793D01*
X134171Y509586D01*
X134164Y509572D01*
X134155Y509563D01*
X128155Y500563D01*
X128107Y500462D01*
X128067Y500400D01*
X125067Y493400D01*
X125043Y493310D01*
X125010Y493223D01*
X125007Y493180D01*
X124993Y493126D01*
X124995Y492964D01*
X124991Y492888D01*
X125991Y483888D01*
X126036Y483713D01*
X126049Y483644D01*
X129049Y475644D01*
X129050Y475642D01*
X129051Y475640D01*
X129060Y475624D01*
X129186Y475394D01*
X129207Y475372D01*
X129220Y475350D01*
X134220Y469350D01*
X134258Y469315D01*
X134282Y469282D01*
X135282Y468282D01*
X135329Y468247D01*
X135369Y468205D01*
X135442Y468162D01*
X135509Y468111D01*
X135564Y468090D01*
X135614Y468061D01*
X135696Y468040D01*
X135775Y468010D01*
X135833Y468005D01*
X135890Y467991D01*
X135974Y467993D01*
X136058Y467986D01*
X136116Y467998D01*
X136174Y468000D01*
X136254Y468026D01*
X136337Y468042D01*
X136389Y468069D01*
X136445Y468087D01*
X136501Y468127D01*
X136589Y468173D01*
X136662Y468242D01*
X136718Y468282D01*
X137294Y468858D01*
X137092Y468454D01*
X137086Y468436D01*
X137075Y468419D01*
X137041Y468301D01*
X137002Y468184D01*
X137001Y468165D01*
X136995Y468146D01*
X136995Y468023D01*
X136990Y467900D01*
X136994Y467882D01*
X136994Y467862D01*
X137028Y467743D01*
X137057Y467624D01*
X137067Y467607D01*
X137072Y467589D01*
X137137Y467484D01*
X137198Y467377D01*
X137212Y467364D01*
X137222Y467347D01*
X137278Y467299D01*
X137402Y467180D01*
X137447Y467156D01*
X137478Y467129D01*
X142478Y464129D01*
X142529Y464108D01*
X142575Y464078D01*
X142628Y464064D01*
X142644Y464056D01*
X142659Y464053D01*
X142740Y464019D01*
X142834Y464007D01*
X142899Y463990D01*
X152899Y462990D01*
X152956Y462992D01*
X153000Y462985D01*
X164000Y462985D01*
X164024Y462988D01*
G37*
%LPC*%
G36*
X142307Y469015D02*
X142307Y469015D01*
X139563Y470845D01*
X139454Y470897D01*
X139347Y470954D01*
X139326Y470959D01*
X139307Y470968D01*
X139188Y470988D01*
X139069Y471013D01*
X139048Y471011D01*
X139027Y471015D01*
X139014Y471014D01*
X139011Y471033D01*
X139014Y471058D01*
X138991Y471173D01*
X138973Y471288D01*
X138963Y471309D01*
X138958Y471337D01*
X138827Y471589D01*
X138826Y471590D01*
X134015Y478325D01*
X134015Y484792D01*
X136814Y491323D01*
X142450Y495080D01*
X148165Y496985D01*
X152760Y496985D01*
X158332Y494199D01*
X161089Y490523D01*
X162985Y484835D01*
X162985Y478338D01*
X157413Y470910D01*
X148889Y469015D01*
X142307Y469015D01*
G37*
%LPD*%
%LPC*%
G36*
X222298Y471986D02*
X222298Y471986D01*
X220601Y472834D01*
X217718Y475718D01*
X217648Y475770D01*
X217584Y475830D01*
X217535Y475856D01*
X217491Y475889D01*
X217409Y475920D01*
X217331Y475960D01*
X217284Y475968D01*
X217225Y475990D01*
X217077Y476002D01*
X217000Y476015D01*
X216011Y476015D01*
X216010Y476020D01*
X216014Y476058D01*
X215971Y476269D01*
X215963Y476321D01*
X214988Y479246D01*
X214032Y484983D01*
X214969Y489668D01*
X216834Y493399D01*
X220601Y497166D01*
X224240Y498985D01*
X229805Y498985D01*
X234498Y497107D01*
X238333Y494231D01*
X241065Y491500D01*
X241985Y486900D01*
X241985Y483125D01*
X241052Y479393D01*
X238232Y474693D01*
X234575Y471950D01*
X229962Y471028D01*
X222298Y471986D01*
G37*
%LPD*%
G36*
X87059Y479993D02*
X87059Y479993D01*
X87116Y479991D01*
X87199Y480013D01*
X87283Y480025D01*
X87336Y480049D01*
X87391Y480063D01*
X87464Y480107D01*
X87542Y480142D01*
X87586Y480179D01*
X87636Y480209D01*
X87694Y480271D01*
X87759Y480326D01*
X87791Y480374D01*
X87830Y480416D01*
X87869Y480492D01*
X87916Y480563D01*
X87930Y480611D01*
X87960Y480669D01*
X87978Y480779D01*
X88009Y480885D01*
X92925Y524150D01*
X132199Y532004D01*
X132239Y532019D01*
X132282Y532025D01*
X132373Y532065D01*
X132467Y532099D01*
X132502Y532123D01*
X132541Y532141D01*
X132617Y532205D01*
X132699Y532264D01*
X132725Y532297D01*
X132758Y532325D01*
X132813Y532408D01*
X132876Y532486D01*
X132892Y532526D01*
X132916Y532561D01*
X132946Y532657D01*
X132984Y532749D01*
X132988Y532792D01*
X133001Y532832D01*
X133004Y532932D01*
X133015Y533032D01*
X133007Y533074D01*
X133009Y533116D01*
X132983Y533213D01*
X132966Y533312D01*
X132948Y533350D01*
X132937Y533391D01*
X132886Y533477D01*
X132842Y533568D01*
X132813Y533599D01*
X132792Y533636D01*
X132718Y533704D01*
X132651Y533779D01*
X132615Y533801D01*
X132584Y533830D01*
X132495Y533876D01*
X132410Y533929D01*
X132369Y533940D01*
X132331Y533960D01*
X132255Y533972D01*
X132136Y534006D01*
X132068Y534004D01*
X132000Y534015D01*
X87000Y534015D01*
X86942Y534007D01*
X86884Y534009D01*
X86802Y533987D01*
X86719Y533975D01*
X86665Y533952D01*
X86609Y533937D01*
X86536Y533894D01*
X86459Y533859D01*
X86414Y533821D01*
X86364Y533792D01*
X86306Y533730D01*
X86242Y533676D01*
X86210Y533627D01*
X86170Y533584D01*
X86131Y533509D01*
X86085Y533439D01*
X86067Y533383D01*
X86040Y533331D01*
X86029Y533263D01*
X85999Y533168D01*
X85996Y533068D01*
X85985Y533000D01*
X85985Y481000D01*
X85997Y480916D01*
X85999Y480830D01*
X86017Y480775D01*
X86025Y480719D01*
X86059Y480641D01*
X86085Y480560D01*
X86117Y480512D01*
X86141Y480459D01*
X86196Y480394D01*
X86243Y480323D01*
X86287Y480286D01*
X86325Y480242D01*
X86396Y480195D01*
X86461Y480140D01*
X86513Y480117D01*
X86561Y480085D01*
X86642Y480059D01*
X86720Y480024D01*
X86777Y480016D01*
X86832Y479999D01*
X86917Y479997D01*
X87002Y479985D01*
X87059Y479993D01*
G37*
G36*
X149220Y265617D02*
X149220Y265617D01*
X149241Y265613D01*
X149881Y265723D01*
X149899Y265734D01*
X149926Y265740D01*
X150466Y266080D01*
X150478Y266097D01*
X150501Y266112D01*
X150971Y266762D01*
X150975Y266782D01*
X150990Y266802D01*
X151280Y267842D01*
X151279Y267847D01*
X151282Y267853D01*
X151932Y271513D01*
X152452Y274452D01*
X152532Y274882D01*
X152532Y274883D01*
X152532Y274884D01*
X152632Y275453D01*
X152732Y276013D01*
X152732Y276014D01*
X152802Y276421D01*
X152862Y276731D01*
X152862Y276732D01*
X152862Y276733D01*
X152922Y277063D01*
X153432Y279943D01*
X154102Y283693D01*
X154282Y284712D01*
X154392Y285271D01*
X154392Y285272D01*
X154392Y285273D01*
X154442Y285553D01*
X154442Y285557D01*
X154443Y285560D01*
X154483Y285890D01*
X154483Y285891D01*
X154484Y285891D01*
X154524Y286251D01*
X154521Y286261D01*
X154524Y286271D01*
X154507Y286307D01*
X154495Y286345D01*
X154486Y286349D01*
X154482Y286359D01*
X154429Y286378D01*
X154408Y286389D01*
X154404Y286388D01*
X154400Y286389D01*
X152650Y286389D01*
X152649Y286389D01*
X152648Y286389D01*
X151258Y286369D01*
X151253Y286367D01*
X151247Y286369D01*
X150787Y286319D01*
X150766Y286307D01*
X150742Y286305D01*
X150722Y286282D01*
X150701Y286271D01*
X150697Y286254D01*
X150684Y286239D01*
X150574Y285949D01*
X150574Y285939D01*
X150568Y285930D01*
X150428Y285240D01*
X150429Y285238D01*
X150428Y285237D01*
X150088Y283317D01*
X149868Y282097D01*
X149688Y281138D01*
X149688Y281136D01*
X149687Y281134D01*
X149638Y280816D01*
X149468Y279887D01*
X149138Y278077D01*
X148638Y275347D01*
X148458Y274388D01*
X148458Y274387D01*
X148398Y274057D01*
X148338Y273738D01*
X148338Y273736D01*
X148337Y273734D01*
X148288Y273419D01*
X148227Y273151D01*
X147943Y273524D01*
X147417Y274418D01*
X147416Y274419D01*
X147416Y274420D01*
X144776Y278710D01*
X144775Y278711D01*
X144774Y278713D01*
X142284Y282533D01*
X142265Y282545D01*
X142249Y282569D01*
X141689Y282939D01*
X141669Y282942D01*
X141649Y282956D01*
X141029Y283106D01*
X141009Y283102D01*
X140983Y283108D01*
X140693Y283068D01*
X140687Y283064D01*
X140678Y283065D01*
X140338Y282975D01*
X140321Y282962D01*
X140294Y282953D01*
X139454Y282303D01*
X139445Y282287D01*
X139426Y282273D01*
X137796Y279793D01*
X137796Y279792D01*
X137795Y279791D01*
X134305Y274242D01*
X133609Y273218D01*
X133520Y273439D01*
X133333Y274556D01*
X133332Y274556D01*
X132532Y279186D01*
X132532Y279187D01*
X131522Y284737D01*
X131462Y285067D01*
X131462Y285068D01*
X131392Y285437D01*
X131333Y285795D01*
X131331Y285798D01*
X131331Y285802D01*
X131271Y286072D01*
X131270Y286074D01*
X131270Y286078D01*
X131210Y286298D01*
X131189Y286324D01*
X131175Y286356D01*
X131159Y286362D01*
X131149Y286374D01*
X131125Y286377D01*
X131094Y286389D01*
X130814Y286399D01*
X130524Y286409D01*
X130522Y286408D01*
X130519Y286409D01*
X128699Y286389D01*
X128696Y286388D01*
X128693Y286389D01*
X127483Y286319D01*
X127476Y286316D01*
X127469Y286317D01*
X127433Y286294D01*
X127395Y286276D01*
X127393Y286268D01*
X127387Y286264D01*
X127371Y286196D01*
X127366Y286182D01*
X127367Y286181D01*
X127367Y286179D01*
X127477Y285309D01*
X127478Y285307D01*
X127478Y285303D01*
X127808Y283433D01*
X127808Y283432D01*
X127808Y283431D01*
X127868Y283132D01*
X127928Y282784D01*
X127928Y282783D01*
X127988Y282443D01*
X127988Y282442D01*
X127988Y282441D01*
X128048Y282141D01*
X128117Y281745D01*
X128217Y281145D01*
X128218Y281144D01*
X128318Y280554D01*
X128319Y280553D01*
X128318Y280551D01*
X128398Y280153D01*
X128447Y279855D01*
X128448Y279854D01*
X128508Y279504D01*
X128508Y279503D01*
X128508Y279501D01*
X128578Y279152D01*
X128628Y278864D01*
X128629Y278862D01*
X128628Y278860D01*
X128688Y278571D01*
X128747Y278244D01*
X128877Y277474D01*
X128878Y277474D01*
X128878Y277473D01*
X129378Y274733D01*
X129578Y273633D01*
X129628Y273344D01*
X129628Y273343D01*
X129748Y272673D01*
X129918Y271704D01*
X129918Y271703D01*
X130018Y271143D01*
X130088Y270734D01*
X130088Y270733D01*
X130088Y270732D01*
X130148Y270412D01*
X130148Y270411D01*
X130218Y270062D01*
X130278Y269714D01*
X130327Y269415D01*
X130328Y269413D01*
X130328Y269411D01*
X130388Y269101D01*
X130458Y268741D01*
X130718Y267362D01*
X130721Y267357D01*
X130721Y267349D01*
X130921Y266679D01*
X130935Y266663D01*
X130944Y266636D01*
X131374Y266116D01*
X131387Y266109D01*
X131397Y266094D01*
X131937Y265704D01*
X131963Y265699D01*
X131998Y265681D01*
X132598Y265621D01*
X132611Y265626D01*
X132628Y265622D01*
X133258Y265712D01*
X133279Y265725D01*
X133313Y265734D01*
X133963Y266204D01*
X133973Y266221D01*
X133992Y266234D01*
X134822Y267424D01*
X134823Y267428D01*
X134826Y267430D01*
X137256Y271420D01*
X139636Y275310D01*
X139636Y275311D01*
X139637Y275311D01*
X140187Y276231D01*
X140187Y276233D01*
X140188Y276234D01*
X140418Y276644D01*
X140419Y276647D01*
X140421Y276649D01*
X140608Y277024D01*
X140900Y277480D01*
X140902Y277478D01*
X141325Y276829D01*
X142194Y275410D01*
X143524Y273231D01*
X145034Y270741D01*
X146314Y268631D01*
X146314Y268630D01*
X147104Y267330D01*
X147106Y267329D01*
X147106Y267326D01*
X147696Y266436D01*
X147706Y266430D01*
X147712Y266417D01*
X148152Y265977D01*
X148167Y265971D01*
X148179Y265957D01*
X148639Y265697D01*
X148660Y265695D01*
X148683Y265682D01*
X149203Y265612D01*
X149220Y265617D01*
G37*
G36*
X158821Y265861D02*
X158821Y265861D01*
X160581Y265881D01*
X160583Y265881D01*
X160585Y265881D01*
X160627Y265901D01*
X160671Y265920D01*
X160671Y265922D01*
X160673Y265923D01*
X160704Y266004D01*
X160714Y267224D01*
X160734Y268443D01*
X160764Y270180D01*
X160789Y270801D01*
X172301Y270851D01*
X172303Y270852D01*
X172306Y270851D01*
X172347Y270871D01*
X172390Y270890D01*
X172391Y270892D01*
X172394Y270893D01*
X172424Y270975D01*
X172424Y273375D01*
X172423Y273378D01*
X172424Y273381D01*
X172404Y273422D01*
X172386Y273465D01*
X172383Y273466D01*
X172382Y273469D01*
X172300Y273499D01*
X160821Y273499D01*
X160725Y277449D01*
X162196Y280587D01*
X166333Y282951D01*
X173574Y282951D01*
X173436Y270946D01*
X173439Y270940D01*
X173436Y270932D01*
X173496Y270388D01*
X173506Y268454D01*
X173506Y267235D01*
X173496Y266006D01*
X173497Y266003D01*
X173496Y265999D01*
X173516Y265958D01*
X173533Y265916D01*
X173537Y265915D01*
X173538Y265911D01*
X173620Y265881D01*
X177240Y265881D01*
X177243Y265882D01*
X177246Y265881D01*
X177287Y265901D01*
X177330Y265919D01*
X177331Y265922D01*
X177334Y265923D01*
X177364Y266005D01*
X177364Y284905D01*
X177355Y284928D01*
X177351Y284961D01*
X177272Y285118D01*
X177192Y285288D01*
X177183Y285296D01*
X177179Y285311D01*
X176749Y285871D01*
X176731Y285881D01*
X176715Y285901D01*
X176115Y286271D01*
X176092Y286274D01*
X176065Y286288D01*
X175235Y286388D01*
X175228Y286386D01*
X175220Y286389D01*
X171560Y286399D01*
X171559Y286399D01*
X167239Y286359D01*
X167235Y286358D01*
X167231Y286359D01*
X165331Y286219D01*
X165313Y286210D01*
X165287Y286207D01*
X160117Y283777D01*
X160099Y283758D01*
X160063Y283728D01*
X157213Y278898D01*
X157210Y278877D01*
X157197Y278853D01*
X156927Y277013D01*
X156929Y277005D01*
X156926Y276997D01*
X156856Y271647D01*
X156856Y271646D01*
X156836Y267526D01*
X156837Y267524D01*
X156836Y267522D01*
X156876Y266022D01*
X156895Y265980D01*
X156911Y265938D01*
X156913Y265937D01*
X156914Y265935D01*
X156916Y265935D01*
X156917Y265933D01*
X156938Y265925D01*
X156990Y265901D01*
X157510Y265861D01*
X157515Y265863D01*
X157520Y265861D01*
X158820Y265861D01*
X158821Y265861D01*
G37*
G36*
X272342Y265711D02*
X272342Y265711D01*
X272362Y265720D01*
X272389Y265721D01*
X274929Y266811D01*
X274948Y266830D01*
X274984Y266857D01*
X276504Y269187D01*
X276508Y269208D01*
X276522Y269232D01*
X276752Y270432D01*
X276750Y270442D01*
X276754Y270453D01*
X276794Y273473D01*
X276794Y273475D01*
X276794Y273476D01*
X276774Y276136D01*
X276772Y276141D01*
X276774Y276148D01*
X276674Y277098D01*
X276665Y277114D01*
X276663Y277136D01*
X275693Y279276D01*
X275674Y279294D01*
X275653Y279325D01*
X273753Y280715D01*
X273733Y280720D01*
X273712Y280735D01*
X272372Y281095D01*
X272358Y281093D01*
X272342Y281099D01*
X268642Y281149D01*
X268641Y281149D01*
X268640Y281149D01*
X266040Y281149D01*
X266039Y281149D01*
X264959Y281139D01*
X264913Y281119D01*
X264870Y281100D01*
X264869Y281100D01*
X264869Y281099D01*
X264836Y281020D01*
X264816Y280480D01*
X264817Y280478D01*
X264816Y280476D01*
X264806Y279206D01*
X264796Y277426D01*
X264797Y277423D01*
X264796Y277420D01*
X264816Y277379D01*
X264834Y277336D01*
X264836Y277335D01*
X264838Y277332D01*
X264919Y277301D01*
X266689Y277291D01*
X266690Y277291D01*
X268458Y277291D01*
X271851Y277241D01*
X272555Y276903D01*
X272856Y276218D01*
X272906Y273435D01*
X272886Y271219D01*
X272838Y270427D01*
X272492Y269926D01*
X271982Y269599D01*
X268180Y269529D01*
X264428Y269608D01*
X263986Y269897D01*
X263642Y270360D01*
X263554Y271709D01*
X263534Y279025D01*
X263514Y285255D01*
X263514Y285256D01*
X263514Y285257D01*
X263474Y287517D01*
X263474Y287518D01*
X263454Y287563D01*
X263434Y287606D01*
X263434Y287607D01*
X263433Y287607D01*
X263352Y287639D01*
X261622Y287669D01*
X261620Y287668D01*
X261617Y287669D01*
X259857Y287629D01*
X259815Y287610D01*
X259771Y287592D01*
X259770Y287590D01*
X259768Y287589D01*
X259762Y287572D01*
X259736Y287512D01*
X259656Y286102D01*
X259657Y286099D01*
X259656Y286095D01*
X259656Y278715D01*
X259676Y269965D01*
X259682Y269951D01*
X259680Y269932D01*
X259740Y269712D01*
X259742Y269710D01*
X259742Y269707D01*
X259812Y269487D01*
X259819Y269479D01*
X259820Y269466D01*
X260920Y267406D01*
X260940Y267390D01*
X260962Y267361D01*
X262902Y266091D01*
X262913Y266089D01*
X262923Y266080D01*
X263210Y265961D01*
X263409Y265872D01*
X263418Y265872D01*
X263426Y265866D01*
X263636Y265806D01*
X263638Y265806D01*
X263641Y265804D01*
X263931Y265734D01*
X263945Y265737D01*
X263960Y265731D01*
X263969Y265731D01*
X268108Y265651D01*
X268110Y265652D01*
X268112Y265651D01*
X272342Y265711D01*
G37*
G36*
X253151Y265901D02*
X253151Y265901D01*
X253161Y265905D01*
X253174Y265903D01*
X254534Y266173D01*
X254548Y266182D01*
X254567Y266185D01*
X255477Y266655D01*
X255485Y266664D01*
X255499Y266669D01*
X256379Y267399D01*
X256386Y267412D01*
X256400Y267421D01*
X257210Y268521D01*
X257214Y268538D01*
X257227Y268554D01*
X257697Y269894D01*
X257696Y269907D01*
X257704Y269922D01*
X257804Y270842D01*
X257802Y270846D01*
X257803Y270846D01*
X257802Y270848D01*
X257804Y270854D01*
X257824Y273734D01*
X257824Y273735D01*
X257824Y273736D01*
X257814Y276236D01*
X257813Y276238D01*
X257814Y276241D01*
X257764Y277331D01*
X257754Y277351D01*
X257752Y277379D01*
X256712Y279529D01*
X256693Y279546D01*
X256673Y279575D01*
X254753Y280975D01*
X254732Y280980D01*
X254708Y280996D01*
X253348Y281316D01*
X253336Y281314D01*
X253321Y281319D01*
X249051Y281359D01*
X249050Y281359D01*
X245940Y281359D01*
X245939Y281359D01*
X244639Y281349D01*
X244638Y281349D01*
X244637Y281349D01*
X244593Y281329D01*
X244550Y281310D01*
X244549Y281309D01*
X244548Y281309D01*
X244516Y281227D01*
X244506Y280717D01*
X244506Y280716D01*
X244496Y279506D01*
X244486Y277806D01*
X244487Y277803D01*
X244486Y277799D01*
X244506Y277758D01*
X244524Y277716D01*
X244527Y277714D01*
X244528Y277711D01*
X244610Y277681D01*
X253130Y277681D01*
X253364Y277559D01*
X253749Y277278D01*
X254032Y276849D01*
X254126Y276255D01*
X254146Y273695D01*
X254126Y271350D01*
X254068Y270550D01*
X253813Y270076D01*
X253381Y269729D01*
X253119Y269589D01*
X249549Y269569D01*
X246733Y269569D01*
X245645Y269618D01*
X245355Y269724D01*
X245029Y270012D01*
X244755Y270333D01*
X244637Y270586D01*
X244758Y271742D01*
X245576Y272422D01*
X246692Y272451D01*
X249141Y272471D01*
X251890Y272481D01*
X251896Y272483D01*
X251902Y272481D01*
X252602Y272551D01*
X252637Y272570D01*
X252674Y272583D01*
X252679Y272594D01*
X252688Y272599D01*
X252695Y272624D01*
X252714Y272661D01*
X252764Y273111D01*
X252762Y273118D01*
X252764Y273125D01*
X252764Y274415D01*
X252764Y274416D01*
X252754Y275256D01*
X252754Y276085D01*
X252754Y276086D01*
X252754Y276087D01*
X252735Y276130D01*
X252716Y276175D01*
X252715Y276175D01*
X252715Y276176D01*
X252634Y276209D01*
X252326Y276219D01*
X252028Y276239D01*
X252026Y276238D01*
X252023Y276239D01*
X251583Y276249D01*
X251576Y276246D01*
X251568Y276249D01*
X251372Y276229D01*
X250477Y276199D01*
X248349Y276189D01*
X245749Y276169D01*
X245744Y276167D01*
X245738Y276169D01*
X244808Y276079D01*
X244795Y276072D01*
X244778Y276072D01*
X243568Y275642D01*
X243556Y275630D01*
X243536Y275625D01*
X242466Y274825D01*
X242457Y274809D01*
X242439Y274798D01*
X241419Y273378D01*
X241415Y273358D01*
X241400Y273337D01*
X240920Y271537D01*
X240922Y271521D01*
X240916Y271503D01*
X240936Y270163D01*
X240942Y270150D01*
X240940Y270133D01*
X241260Y268933D01*
X241272Y268918D01*
X241277Y268896D01*
X242067Y267716D01*
X242079Y267708D01*
X242087Y267693D01*
X243117Y266763D01*
X243131Y266758D01*
X243144Y266744D01*
X243854Y266384D01*
X243858Y266384D01*
X243862Y266380D01*
X244412Y266150D01*
X244417Y266150D01*
X244421Y266147D01*
X244507Y266118D01*
X244654Y266060D01*
X244657Y266060D01*
X244659Y266058D01*
X244889Y265978D01*
X244901Y265979D01*
X244914Y265972D01*
X245224Y265932D01*
X245230Y265933D01*
X245236Y265931D01*
X246596Y265891D01*
X246598Y265891D01*
X246599Y265891D01*
X249399Y265871D01*
X249400Y265871D01*
X249401Y265871D01*
X253151Y265901D01*
G37*
G36*
X235280Y265881D02*
X235280Y265881D01*
X239540Y265891D01*
X239543Y265892D01*
X239546Y265891D01*
X239587Y265911D01*
X239630Y265929D01*
X239631Y265932D01*
X239634Y265933D01*
X239664Y266015D01*
X239664Y269635D01*
X239663Y269638D01*
X239664Y269641D01*
X239644Y269682D01*
X239626Y269725D01*
X239623Y269726D01*
X239622Y269729D01*
X239540Y269759D01*
X232080Y269749D01*
X226043Y269749D01*
X224734Y269804D01*
X224734Y277985D01*
X224724Y284085D01*
X224724Y284086D01*
X224724Y284087D01*
X224684Y286247D01*
X224684Y286248D01*
X224663Y286294D01*
X224644Y286336D01*
X224644Y286337D01*
X224643Y286337D01*
X224562Y286369D01*
X222882Y286399D01*
X222880Y286398D01*
X222877Y286399D01*
X221117Y286359D01*
X221104Y286353D01*
X221088Y286355D01*
X220938Y286315D01*
X220909Y286293D01*
X220876Y286277D01*
X220871Y286263D01*
X220861Y286255D01*
X220859Y286229D01*
X220846Y286195D01*
X220866Y276775D01*
X220866Y276774D01*
X220916Y268114D01*
X220916Y268113D01*
X220916Y268112D01*
X220921Y268102D01*
X220919Y268088D01*
X221219Y266728D01*
X221234Y266706D01*
X221252Y266667D01*
X221682Y266237D01*
X221697Y266231D01*
X221709Y266217D01*
X222219Y265927D01*
X222253Y265923D01*
X222286Y265911D01*
X222300Y265918D01*
X222316Y265916D01*
X222332Y265930D01*
X224708Y265891D01*
X224709Y265891D01*
X224710Y265891D01*
X231010Y265881D01*
X235280Y265881D01*
X235280Y265881D01*
G37*
G36*
X202674Y265931D02*
X202674Y265931D01*
X202715Y265950D01*
X202758Y265967D01*
X202759Y265970D01*
X202762Y265972D01*
X202777Y266015D01*
X202794Y266057D01*
X202793Y266061D01*
X202794Y266065D01*
X202783Y266085D01*
X202762Y266139D01*
X202272Y266679D01*
X202269Y266680D01*
X202267Y266684D01*
X201067Y267864D01*
X194108Y274643D01*
X192652Y276127D01*
X192723Y276202D01*
X192839Y276326D01*
X192956Y276450D01*
X193073Y276575D01*
X193190Y276699D01*
X193306Y276823D01*
X193423Y276947D01*
X193498Y277028D01*
X196197Y279676D01*
X201797Y285136D01*
X201797Y285138D01*
X201799Y285139D01*
X201808Y285148D01*
X201929Y285272D01*
X202049Y285396D01*
X202170Y285521D01*
X202290Y285645D01*
X202411Y285769D01*
X202531Y285893D01*
X202651Y286018D01*
X202749Y286119D01*
X202764Y286158D01*
X202784Y286195D01*
X202781Y286202D01*
X202784Y286210D01*
X202766Y286247D01*
X202753Y286287D01*
X202746Y286291D01*
X202742Y286298D01*
X202717Y286306D01*
X202676Y286328D01*
X202216Y286388D01*
X202208Y286386D01*
X202200Y286389D01*
X200150Y286389D01*
X200149Y286389D01*
X197629Y286369D01*
X197625Y286368D01*
X197622Y286369D01*
X197542Y286333D01*
X195472Y284263D01*
X193402Y282203D01*
X189297Y278098D01*
X188718Y278079D01*
X188078Y278069D01*
X188077Y278069D01*
X188076Y278069D01*
X187438Y278049D01*
X186798Y278039D01*
X186797Y278039D01*
X186796Y278039D01*
X186753Y278019D01*
X186709Y277999D01*
X186708Y277998D01*
X186707Y277998D01*
X186676Y277916D01*
X186666Y277026D01*
X186646Y276128D01*
X186646Y276126D01*
X186646Y276125D01*
X186646Y274785D01*
X186647Y274782D01*
X186646Y274778D01*
X186676Y274278D01*
X186696Y274237D01*
X186714Y274196D01*
X186718Y274194D01*
X186720Y274190D01*
X186742Y274183D01*
X186794Y274161D01*
X187194Y274141D01*
X187197Y274142D01*
X187201Y274141D01*
X188091Y274151D01*
X188093Y274151D01*
X188094Y274151D01*
X189260Y274189D01*
X193262Y270187D01*
X196111Y267329D01*
X197287Y266112D01*
X197309Y266069D01*
X197323Y266058D01*
X197332Y266037D01*
X197402Y265967D01*
X197404Y265967D01*
X197404Y265965D01*
X197449Y265948D01*
X197493Y265931D01*
X197494Y265931D01*
X197496Y265931D01*
X197514Y265940D01*
X200136Y265851D01*
X200140Y265852D01*
X200144Y265851D01*
X202674Y265931D01*
G37*
G36*
X183411Y265861D02*
X183411Y265861D01*
X185221Y265881D01*
X185223Y265882D01*
X185226Y265881D01*
X185268Y265901D01*
X185311Y265920D01*
X185312Y265922D01*
X185314Y265923D01*
X185344Y266005D01*
X185344Y286245D01*
X185343Y286247D01*
X185344Y286249D01*
X185324Y286292D01*
X185306Y286335D01*
X185304Y286336D01*
X185303Y286338D01*
X185221Y286369D01*
X184351Y286379D01*
X184350Y286379D01*
X182240Y286379D01*
X182237Y286378D01*
X182233Y286379D01*
X181673Y286349D01*
X181631Y286328D01*
X181588Y286309D01*
X181588Y286307D01*
X181586Y286306D01*
X181580Y286289D01*
X181556Y286228D01*
X181506Y284138D01*
X181506Y284137D01*
X181506Y284135D01*
X181486Y276125D01*
X181486Y266015D01*
X181505Y265971D01*
X181523Y265926D01*
X181524Y265926D01*
X181524Y265925D01*
X181532Y265922D01*
X181603Y265891D01*
X182133Y265861D01*
X182136Y265862D01*
X182140Y265861D01*
X183410Y265861D01*
X183411Y265861D01*
G37*
D10*
X200000Y35000D03*
D11*
X98000Y460000D02*
X73000Y460000D01*
X98000Y460000D02*
X129000Y429000D01*
X264000Y429000D01*
X296000Y461000D01*
X322000Y461000D01*
X322000Y446000D01*
X73000Y445000D02*
X73000Y460000D01*
D12*
X73025Y87313D02*
X177800Y87313D01*
X219075Y87313D02*
X317500Y87313D01*
X292100Y111125D02*
X288925Y114300D01*
X304800Y104775D02*
X307975Y101600D01*
X219075Y101600D02*
X219075Y87313D01*
X177800Y87313D02*
X177800Y101600D01*
D13*
X249555Y195580D02*
X249555Y261620D01*
X150495Y261620D02*
X150495Y195580D01*
X183515Y195580D01*
X216535Y195580D02*
X216535Y200660D01*
X183515Y200660D01*
X183515Y195580D01*
X216535Y195580D02*
X249555Y195580D01*
X216535Y195580D02*
X183515Y195580D01*
X216535Y261620D02*
X249555Y261620D01*
X183515Y261620D02*
X183515Y256540D01*
X216535Y256540D01*
X216535Y261620D01*
X183515Y261620D02*
X150495Y261620D01*
X183515Y261620D02*
X216535Y261620D01*
X219075Y233680D02*
X180975Y233680D01*
X180975Y248920D01*
X219075Y248920D01*
X219075Y233680D01*
X219075Y208280D02*
X180975Y208280D01*
X180975Y223520D01*
X219075Y223520D01*
X219075Y208280D01*
D14*
X201930Y241300D03*
X208280Y241300D03*
X214630Y241300D03*
X201930Y215900D03*
X208280Y215900D03*
X214630Y215900D03*
D13*
X110173Y489585D02*
X110171Y489685D01*
X110165Y489784D01*
X110155Y489884D01*
X110142Y489982D01*
X110124Y490081D01*
X110103Y490178D01*
X110078Y490274D01*
X110049Y490370D01*
X110016Y490464D01*
X109980Y490557D01*
X109940Y490648D01*
X109896Y490738D01*
X109849Y490826D01*
X109799Y490912D01*
X109745Y490996D01*
X109688Y491078D01*
X109628Y491157D01*
X109564Y491235D01*
X109498Y491309D01*
X109429Y491381D01*
X109357Y491450D01*
X109283Y491516D01*
X109205Y491580D01*
X109126Y491640D01*
X109044Y491697D01*
X108960Y491751D01*
X108874Y491801D01*
X108786Y491848D01*
X108696Y491892D01*
X108605Y491932D01*
X108512Y491968D01*
X108418Y492001D01*
X108322Y492030D01*
X108226Y492055D01*
X108129Y492076D01*
X108030Y492094D01*
X107932Y492107D01*
X107832Y492117D01*
X107733Y492123D01*
X107633Y492125D01*
X92393Y492125D02*
X92293Y492123D01*
X92194Y492117D01*
X92094Y492107D01*
X91996Y492094D01*
X91897Y492076D01*
X91800Y492055D01*
X91704Y492030D01*
X91608Y492001D01*
X91514Y491968D01*
X91421Y491932D01*
X91330Y491892D01*
X91240Y491848D01*
X91152Y491801D01*
X91066Y491751D01*
X90982Y491697D01*
X90900Y491640D01*
X90821Y491580D01*
X90743Y491516D01*
X90669Y491450D01*
X90597Y491381D01*
X90528Y491309D01*
X90462Y491235D01*
X90398Y491157D01*
X90338Y491078D01*
X90281Y490996D01*
X90227Y490912D01*
X90177Y490826D01*
X90130Y490738D01*
X90086Y490648D01*
X90046Y490557D01*
X90010Y490464D01*
X89977Y490370D01*
X89948Y490274D01*
X89923Y490178D01*
X89902Y490081D01*
X89884Y489982D01*
X89871Y489884D01*
X89861Y489784D01*
X89855Y489685D01*
X89853Y489585D01*
X89853Y443865D02*
X89855Y443765D01*
X89861Y443666D01*
X89871Y443566D01*
X89884Y443468D01*
X89902Y443369D01*
X89923Y443272D01*
X89948Y443176D01*
X89977Y443080D01*
X90010Y442986D01*
X90046Y442893D01*
X90086Y442802D01*
X90130Y442712D01*
X90177Y442624D01*
X90227Y442538D01*
X90281Y442454D01*
X90338Y442372D01*
X90398Y442293D01*
X90462Y442215D01*
X90528Y442141D01*
X90597Y442069D01*
X90669Y442000D01*
X90743Y441934D01*
X90821Y441870D01*
X90900Y441810D01*
X90982Y441753D01*
X91066Y441699D01*
X91152Y441649D01*
X91240Y441602D01*
X91330Y441558D01*
X91421Y441518D01*
X91514Y441482D01*
X91608Y441449D01*
X91704Y441420D01*
X91800Y441395D01*
X91897Y441374D01*
X91996Y441356D01*
X92094Y441343D01*
X92194Y441333D01*
X92293Y441327D01*
X92393Y441325D01*
X107633Y441325D02*
X107733Y441327D01*
X107832Y441333D01*
X107932Y441343D01*
X108030Y441356D01*
X108129Y441374D01*
X108226Y441395D01*
X108322Y441420D01*
X108418Y441449D01*
X108512Y441482D01*
X108605Y441518D01*
X108696Y441558D01*
X108786Y441602D01*
X108874Y441649D01*
X108960Y441699D01*
X109044Y441753D01*
X109126Y441810D01*
X109205Y441870D01*
X109283Y441934D01*
X109357Y442000D01*
X109429Y442069D01*
X109498Y442141D01*
X109564Y442215D01*
X109628Y442293D01*
X109688Y442372D01*
X109745Y442454D01*
X109799Y442538D01*
X109849Y442624D01*
X109896Y442712D01*
X109940Y442802D01*
X109980Y442893D01*
X110016Y442986D01*
X110049Y443080D01*
X110078Y443176D01*
X110103Y443272D01*
X110124Y443369D01*
X110142Y443468D01*
X110155Y443566D01*
X110165Y443666D01*
X110171Y443765D01*
X110173Y443865D01*
X107633Y492125D02*
X92393Y492125D01*
X110173Y489585D02*
X110173Y485775D01*
X108903Y484505D01*
X89853Y485775D02*
X89853Y489585D01*
X89853Y485775D02*
X91123Y484505D01*
X108903Y448945D02*
X110173Y447675D01*
X108903Y448945D02*
X108903Y484505D01*
X91123Y448945D02*
X89853Y447675D01*
X91123Y448945D02*
X91123Y484505D01*
X110173Y447675D02*
X110173Y443865D01*
X89853Y443865D02*
X89853Y447675D01*
X92393Y441325D02*
X107633Y441325D01*
D15*
X100013Y439420D03*
X100013Y494030D03*
D13*
X307658Y493713D02*
X307758Y493711D01*
X307857Y493705D01*
X307957Y493695D01*
X308055Y493682D01*
X308154Y493664D01*
X308251Y493643D01*
X308347Y493618D01*
X308443Y493589D01*
X308537Y493556D01*
X308630Y493520D01*
X308721Y493480D01*
X308811Y493436D01*
X308899Y493389D01*
X308985Y493339D01*
X309069Y493285D01*
X309151Y493228D01*
X309230Y493168D01*
X309308Y493104D01*
X309382Y493038D01*
X309454Y492969D01*
X309523Y492897D01*
X309589Y492823D01*
X309653Y492745D01*
X309713Y492666D01*
X309770Y492584D01*
X309824Y492500D01*
X309874Y492414D01*
X309921Y492326D01*
X309965Y492236D01*
X310005Y492145D01*
X310041Y492052D01*
X310074Y491958D01*
X310103Y491862D01*
X310128Y491766D01*
X310149Y491669D01*
X310167Y491570D01*
X310180Y491472D01*
X310190Y491372D01*
X310196Y491273D01*
X310198Y491173D01*
X292418Y493713D02*
X292318Y493711D01*
X292219Y493705D01*
X292119Y493695D01*
X292021Y493682D01*
X291922Y493664D01*
X291825Y493643D01*
X291729Y493618D01*
X291633Y493589D01*
X291539Y493556D01*
X291446Y493520D01*
X291355Y493480D01*
X291265Y493436D01*
X291177Y493389D01*
X291091Y493339D01*
X291007Y493285D01*
X290925Y493228D01*
X290846Y493168D01*
X290768Y493104D01*
X290694Y493038D01*
X290622Y492969D01*
X290553Y492897D01*
X290487Y492823D01*
X290423Y492745D01*
X290363Y492666D01*
X290306Y492584D01*
X290252Y492500D01*
X290202Y492414D01*
X290155Y492326D01*
X290111Y492236D01*
X290071Y492145D01*
X290035Y492052D01*
X290002Y491958D01*
X289973Y491862D01*
X289948Y491766D01*
X289927Y491669D01*
X289909Y491570D01*
X289896Y491472D01*
X289886Y491372D01*
X289880Y491273D01*
X289878Y491173D01*
X289878Y445453D02*
X289880Y445353D01*
X289886Y445254D01*
X289896Y445154D01*
X289909Y445056D01*
X289927Y444957D01*
X289948Y444860D01*
X289973Y444764D01*
X290002Y444668D01*
X290035Y444574D01*
X290071Y444481D01*
X290111Y444390D01*
X290155Y444300D01*
X290202Y444212D01*
X290252Y444126D01*
X290306Y444042D01*
X290363Y443960D01*
X290423Y443881D01*
X290487Y443803D01*
X290553Y443729D01*
X290622Y443657D01*
X290694Y443588D01*
X290768Y443522D01*
X290846Y443458D01*
X290925Y443398D01*
X291007Y443341D01*
X291091Y443287D01*
X291177Y443237D01*
X291265Y443190D01*
X291355Y443146D01*
X291446Y443106D01*
X291539Y443070D01*
X291633Y443037D01*
X291729Y443008D01*
X291825Y442983D01*
X291922Y442962D01*
X292021Y442944D01*
X292119Y442931D01*
X292219Y442921D01*
X292318Y442915D01*
X292418Y442913D01*
X307658Y442913D02*
X307758Y442915D01*
X307857Y442921D01*
X307957Y442931D01*
X308055Y442944D01*
X308154Y442962D01*
X308251Y442983D01*
X308347Y443008D01*
X308443Y443037D01*
X308537Y443070D01*
X308630Y443106D01*
X308721Y443146D01*
X308811Y443190D01*
X308899Y443237D01*
X308985Y443287D01*
X309069Y443341D01*
X309151Y443398D01*
X309230Y443458D01*
X309308Y443522D01*
X309382Y443588D01*
X309454Y443657D01*
X309523Y443729D01*
X309589Y443803D01*
X309653Y443881D01*
X309713Y443960D01*
X309770Y444042D01*
X309824Y444126D01*
X309874Y444212D01*
X309921Y444300D01*
X309965Y444390D01*
X310005Y444481D01*
X310041Y444574D01*
X310074Y444668D01*
X310103Y444764D01*
X310128Y444860D01*
X310149Y444957D01*
X310167Y445056D01*
X310180Y445154D01*
X310190Y445254D01*
X310196Y445353D01*
X310198Y445453D01*
X307658Y493713D02*
X292418Y493713D01*
X310198Y491173D02*
X310198Y487363D01*
X308928Y486093D01*
X289878Y487363D02*
X289878Y491173D01*
X289878Y487363D02*
X291148Y486093D01*
X308928Y450533D02*
X310198Y449263D01*
X308928Y450533D02*
X308928Y486093D01*
X291148Y450533D02*
X289878Y449263D01*
X291148Y450533D02*
X291148Y486093D01*
X310198Y449263D02*
X310198Y445453D01*
X289878Y445453D02*
X289878Y449263D01*
X292418Y442913D02*
X307658Y442913D01*
D15*
X300038Y441008D03*
X300038Y495618D03*
D16*
X402360Y213005D02*
X410233Y203949D01*
X409855Y203621D01*
X428225Y182489D01*
X428459Y182212D01*
X428687Y181930D01*
X428908Y181643D01*
X429122Y181350D01*
X429328Y181053D01*
X429528Y180750D01*
X429720Y180443D01*
X429904Y180131D01*
X430081Y179814D01*
X430251Y179494D01*
X430412Y179169D01*
X430566Y178841D01*
X430712Y178509D01*
X430849Y178174D01*
X430979Y177835D01*
X431100Y177493D01*
X431213Y177149D01*
X431317Y176802D01*
X431414Y176452D01*
X431501Y176101D01*
X431580Y175747D01*
X431651Y175391D01*
X431713Y175034D01*
X431766Y174676D01*
X431811Y174316D01*
X431847Y173955D01*
X431874Y173594D01*
X431893Y173232D01*
X431902Y172870D01*
X431903Y172507D01*
X431896Y172145D01*
X431879Y171783D01*
X431854Y171421D01*
X431820Y171060D01*
X431777Y170700D01*
X431726Y170341D01*
X431666Y169984D01*
X431597Y169628D01*
X431520Y169274D01*
X431434Y168922D01*
X431339Y168572D01*
X431237Y168224D01*
X431126Y167879D01*
X431006Y167537D01*
X430879Y167197D01*
X430743Y166861D01*
X430599Y166529D01*
X430447Y166199D01*
X430287Y165874D01*
X430120Y165553D01*
X429944Y165235D01*
X429762Y164922D01*
X429571Y164614D01*
X429373Y164310D01*
X429168Y164011D01*
X428956Y163718D01*
X428737Y163429D01*
X428510Y163146D01*
X428277Y162868D01*
X428038Y162596D01*
X427792Y162330D01*
X427539Y162070D01*
X427280Y161816D01*
X427016Y161568D01*
X426745Y161327D01*
X426464Y161089D01*
X426178Y160858D01*
X425885Y160634D01*
X425588Y160417D01*
X425285Y160208D01*
X424977Y160006D01*
X424665Y159812D01*
X424347Y159625D01*
X424025Y159446D01*
X423699Y159275D01*
X423369Y159113D01*
X423035Y158958D01*
X422697Y158812D01*
X422356Y158674D01*
X422011Y158544D01*
X421664Y158423D01*
X421313Y158311D01*
X420960Y158207D01*
X420604Y158112D01*
X420246Y158025D01*
X419887Y157948D01*
X419525Y157879D01*
X419162Y157819D01*
X418797Y157768D01*
X418431Y157726D01*
X418065Y157693D01*
X417697Y157669D01*
X417329Y157654D01*
X416961Y157648D01*
X416593Y157651D01*
X416225Y157663D01*
X415858Y157685D01*
X415491Y157715D01*
X415125Y157754D01*
X414760Y157802D01*
X414396Y157859D01*
X414034Y157925D01*
X413673Y158000D01*
X413315Y158084D01*
X412959Y158176D01*
X412605Y158277D01*
X412253Y158387D01*
X411905Y158506D01*
X411559Y158633D01*
X411217Y158768D01*
X410878Y158912D01*
X410542Y159064D01*
X410211Y159224D01*
X409884Y159392D01*
X409560Y159569D01*
X409242Y159753D01*
X408927Y159945D01*
X408618Y160144D01*
X408314Y160351D01*
X408015Y160566D01*
X407721Y160788D01*
X407432Y161017D01*
X407150Y161253D01*
X406873Y161495D01*
X406602Y161745D01*
X406338Y162001D01*
X406080Y162263D01*
X405828Y162532D01*
X405583Y162807D01*
X405584Y162807D02*
X387214Y183939D01*
X384950Y181971D01*
X377077Y191027D01*
X380096Y193651D01*
X383870Y196932D01*
X397454Y208741D01*
X401228Y212021D01*
X402360Y213005D01*
X409855Y203621D02*
X407591Y201652D01*
X395516Y191155D01*
X389478Y185907D01*
X387214Y183939D01*
X407591Y201652D02*
X419400Y188068D01*
X405816Y176259D01*
X403191Y179277D01*
X403981Y190564D01*
X400700Y194337D01*
X395516Y191155D02*
X399452Y186627D01*
X398959Y179573D01*
X403551Y174290D01*
X401287Y172322D01*
X389478Y185907D01*
X401228Y212021D02*
X380234Y236172D01*
X376461Y232891D01*
X397454Y208741D01*
X383870Y196932D02*
X358283Y226365D01*
X354510Y223085D01*
X380096Y193651D01*
X13655Y189069D02*
X6103Y179743D01*
X5715Y180058D01*
X-11906Y158298D01*
X-11906Y158297D02*
X-12137Y158018D01*
X-12375Y157745D01*
X-12620Y157478D01*
X-12871Y157216D01*
X-13129Y156961D01*
X-13392Y156712D01*
X-13661Y156469D01*
X-13937Y156233D01*
X-14217Y156004D01*
X-14504Y155782D01*
X-14795Y155566D01*
X-15092Y155358D01*
X-15393Y155157D01*
X-15700Y154963D01*
X-16011Y154777D01*
X-16326Y154598D01*
X-16646Y154427D01*
X-16969Y154264D01*
X-17297Y154109D01*
X-17628Y153961D01*
X-17963Y153822D01*
X-18300Y153690D01*
X-18641Y153567D01*
X-18985Y153453D01*
X-19332Y153346D01*
X-19681Y153248D01*
X-20032Y153159D01*
X-20385Y153077D01*
X-20740Y153005D01*
X-21097Y152941D01*
X-21455Y152886D01*
X-21815Y152839D01*
X-22175Y152801D01*
X-22537Y152772D01*
X-22899Y152752D01*
X-23261Y152740D01*
X-23623Y152737D01*
X-23986Y152743D01*
X-24348Y152758D01*
X-24710Y152781D01*
X-25071Y152813D01*
X-25431Y152854D01*
X-25790Y152903D01*
X-26148Y152961D01*
X-26504Y153028D01*
X-26859Y153104D01*
X-27211Y153187D01*
X-27562Y153280D01*
X-27910Y153381D01*
X-28256Y153490D01*
X-28599Y153607D01*
X-28939Y153733D01*
X-29275Y153867D01*
X-29609Y154009D01*
X-29939Y154159D01*
X-30265Y154317D01*
X-30587Y154483D01*
X-30905Y154657D01*
X-31219Y154838D01*
X-31529Y155027D01*
X-31834Y155223D01*
X-32134Y155427D01*
X-32429Y155637D01*
X-32718Y155855D01*
X-33003Y156080D01*
X-33282Y156311D01*
X-33555Y156549D01*
X-33822Y156794D01*
X-34084Y157045D01*
X-34339Y157303D01*
X-34588Y157566D01*
X-34831Y157835D01*
X-35067Y158111D01*
X-35296Y158391D01*
X-35518Y158678D01*
X-35734Y158969D01*
X-35942Y159266D01*
X-36143Y159567D01*
X-36337Y159874D01*
X-36523Y160185D01*
X-36702Y160500D01*
X-36873Y160820D01*
X-37036Y161143D01*
X-37191Y161471D01*
X-37339Y161802D01*
X-37478Y162137D01*
X-37610Y162474D01*
X-37733Y162815D01*
X-37847Y163159D01*
X-37954Y163506D01*
X-38052Y163855D01*
X-38141Y164206D01*
X-38223Y164559D01*
X-38295Y164914D01*
X-38359Y165271D01*
X-38414Y165629D01*
X-38461Y165989D01*
X-38499Y166349D01*
X-38528Y166711D01*
X-38548Y167073D01*
X-38560Y167435D01*
X-38563Y167797D01*
X-38557Y168160D01*
X-38542Y168522D01*
X-38519Y168884D01*
X-38487Y169245D01*
X-38446Y169605D01*
X-38397Y169964D01*
X-38339Y170322D01*
X-38272Y170678D01*
X-38196Y171033D01*
X-38113Y171385D01*
X-38020Y171736D01*
X-37919Y172084D01*
X-37810Y172430D01*
X-37693Y172773D01*
X-37567Y173113D01*
X-37433Y173449D01*
X-37291Y173783D01*
X-37141Y174113D01*
X-36983Y174439D01*
X-36817Y174761D01*
X-36643Y175079D01*
X-36462Y175393D01*
X-36273Y175703D01*
X-36077Y176008D01*
X-35873Y176308D01*
X-35663Y176603D01*
X-35445Y176892D01*
X-35220Y177177D01*
X-35221Y177177D02*
X-17600Y198937D01*
X-19931Y200825D01*
X-12379Y210151D01*
X-9271Y207634D01*
X-5385Y204487D01*
X8604Y193159D01*
X12490Y190013D01*
X13655Y189069D01*
X5715Y180058D02*
X3383Y181946D01*
X-9051Y192015D01*
X-15268Y197049D01*
X-17600Y198937D01*
X3383Y181946D02*
X-7944Y167957D01*
X-21933Y179285D01*
X-19416Y182393D01*
X-8164Y183576D01*
X-5017Y187462D01*
X-9051Y192015D02*
X-12827Y187352D01*
X-19859Y186613D01*
X-24264Y181173D01*
X-26596Y183061D01*
X-15268Y197049D01*
X12490Y190013D02*
X32628Y214881D01*
X28742Y218028D01*
X8604Y193159D01*
X-5385Y204487D02*
X19159Y234796D01*
X15273Y237942D01*
X-9271Y207634D01*
D13*
X77379Y291368D02*
X77427Y291455D01*
X77472Y291545D01*
X77513Y291635D01*
X77550Y291728D01*
X77584Y291822D01*
X77614Y291917D01*
X77641Y292013D01*
X77663Y292110D01*
X77682Y292208D01*
X77697Y292306D01*
X77708Y292406D01*
X77716Y292505D01*
X77719Y292605D01*
X77718Y292704D01*
X77714Y292804D01*
X77705Y292904D01*
X77693Y293002D01*
X77676Y293101D01*
X77656Y293199D01*
X77632Y293295D01*
X77605Y293391D01*
X77573Y293486D01*
X77538Y293579D01*
X77499Y293671D01*
X77457Y293761D01*
X77411Y293850D01*
X77362Y293937D01*
X77309Y294021D01*
X77253Y294104D01*
X77194Y294184D01*
X77132Y294262D01*
X77067Y294338D01*
X76998Y294410D01*
X76927Y294480D01*
X76854Y294548D01*
X76777Y294612D01*
X76699Y294673D01*
X76618Y294731D01*
X76534Y294786D01*
X76449Y294838D01*
X63251Y302458D02*
X63164Y302506D01*
X63074Y302551D01*
X62984Y302592D01*
X62891Y302629D01*
X62797Y302663D01*
X62702Y302693D01*
X62606Y302720D01*
X62509Y302742D01*
X62411Y302761D01*
X62313Y302776D01*
X62213Y302787D01*
X62114Y302795D01*
X62014Y302798D01*
X61915Y302797D01*
X61815Y302793D01*
X61715Y302784D01*
X61617Y302772D01*
X61518Y302755D01*
X61420Y302735D01*
X61324Y302711D01*
X61228Y302684D01*
X61133Y302652D01*
X61040Y302617D01*
X60948Y302578D01*
X60858Y302536D01*
X60769Y302490D01*
X60682Y302441D01*
X60598Y302388D01*
X60515Y302332D01*
X60435Y302273D01*
X60357Y302211D01*
X60281Y302146D01*
X60209Y302077D01*
X60139Y302006D01*
X60071Y301933D01*
X60007Y301856D01*
X59946Y301778D01*
X59888Y301697D01*
X59833Y301613D01*
X59781Y301528D01*
X36921Y261933D02*
X36873Y261846D01*
X36828Y261756D01*
X36787Y261666D01*
X36750Y261573D01*
X36716Y261479D01*
X36686Y261384D01*
X36659Y261288D01*
X36637Y261191D01*
X36618Y261093D01*
X36603Y260995D01*
X36592Y260895D01*
X36584Y260796D01*
X36581Y260696D01*
X36582Y260597D01*
X36586Y260497D01*
X36595Y260397D01*
X36607Y260299D01*
X36624Y260200D01*
X36644Y260102D01*
X36668Y260006D01*
X36695Y259910D01*
X36727Y259815D01*
X36762Y259722D01*
X36801Y259630D01*
X36843Y259540D01*
X36889Y259451D01*
X36938Y259364D01*
X36991Y259280D01*
X37047Y259197D01*
X37106Y259117D01*
X37168Y259039D01*
X37233Y258963D01*
X37302Y258891D01*
X37373Y258821D01*
X37446Y258753D01*
X37523Y258689D01*
X37601Y258628D01*
X37682Y258570D01*
X37766Y258515D01*
X37851Y258463D01*
X51049Y250843D02*
X51136Y250795D01*
X51226Y250750D01*
X51316Y250709D01*
X51409Y250672D01*
X51503Y250638D01*
X51598Y250608D01*
X51694Y250581D01*
X51791Y250559D01*
X51889Y250540D01*
X51987Y250525D01*
X52087Y250514D01*
X52186Y250506D01*
X52286Y250503D01*
X52385Y250504D01*
X52485Y250508D01*
X52585Y250517D01*
X52683Y250529D01*
X52782Y250546D01*
X52880Y250566D01*
X52976Y250590D01*
X53072Y250617D01*
X53167Y250649D01*
X53260Y250684D01*
X53352Y250723D01*
X53442Y250765D01*
X53531Y250811D01*
X53618Y250860D01*
X53702Y250913D01*
X53785Y250969D01*
X53865Y251028D01*
X53943Y251090D01*
X54019Y251155D01*
X54091Y251224D01*
X54161Y251295D01*
X54229Y251368D01*
X54293Y251445D01*
X54354Y251523D01*
X54412Y251604D01*
X54467Y251688D01*
X54519Y251773D01*
X76449Y294837D02*
X63251Y302457D01*
X77379Y291368D02*
X75474Y288068D01*
X73739Y287603D01*
X57876Y298228D02*
X59781Y301528D01*
X57876Y298228D02*
X58341Y296493D01*
X55959Y256807D02*
X56424Y255073D01*
X55959Y256807D02*
X73739Y287603D01*
X40561Y265697D02*
X38826Y265233D01*
X40561Y265697D02*
X58341Y296493D01*
X56424Y255073D02*
X54519Y251773D01*
X36921Y261933D02*
X38826Y265233D01*
X37851Y258463D02*
X51049Y250843D01*
D17*
G36*
X40345Y252625D02*
X42250Y255923D01*
X46649Y253383D01*
X44744Y250085D01*
X40345Y252625D01*
G37*
G36*
X67650Y299918D02*
X69555Y303216D01*
X73954Y300676D01*
X72049Y297378D01*
X67650Y299918D01*
G37*
D13*
X326617Y304192D02*
X326703Y304243D01*
X326790Y304291D01*
X326880Y304335D01*
X326971Y304376D01*
X327063Y304413D01*
X327157Y304447D01*
X327252Y304477D01*
X327349Y304503D01*
X327446Y304525D01*
X327544Y304543D01*
X327642Y304558D01*
X327742Y304568D01*
X327841Y304575D01*
X327941Y304578D01*
X328041Y304577D01*
X328140Y304572D01*
X328240Y304563D01*
X328338Y304550D01*
X328437Y304533D01*
X328534Y304513D01*
X328631Y304489D01*
X328727Y304460D01*
X328821Y304429D01*
X328915Y304393D01*
X329006Y304354D01*
X329096Y304311D01*
X329185Y304265D01*
X329271Y304215D01*
X329356Y304162D01*
X329438Y304106D01*
X329518Y304046D01*
X329596Y303984D01*
X329671Y303918D01*
X329743Y303850D01*
X329813Y303778D01*
X329880Y303704D01*
X329944Y303628D01*
X330005Y303549D01*
X330063Y303468D01*
X330117Y303384D01*
X313693Y296117D02*
X313609Y296063D01*
X313528Y296005D01*
X313449Y295944D01*
X313373Y295880D01*
X313299Y295813D01*
X313227Y295743D01*
X313159Y295671D01*
X313093Y295596D01*
X313031Y295518D01*
X312971Y295438D01*
X312915Y295356D01*
X312862Y295271D01*
X312812Y295185D01*
X312766Y295096D01*
X312723Y295006D01*
X312684Y294914D01*
X312648Y294821D01*
X312617Y294727D01*
X312588Y294631D01*
X312564Y294534D01*
X312544Y294437D01*
X312527Y294338D01*
X312514Y294240D01*
X312505Y294140D01*
X312500Y294041D01*
X312499Y293941D01*
X312502Y293841D01*
X312509Y293742D01*
X312519Y293642D01*
X312534Y293544D01*
X312552Y293446D01*
X312574Y293349D01*
X312600Y293252D01*
X312630Y293157D01*
X312664Y293063D01*
X312701Y292971D01*
X312742Y292880D01*
X312786Y292790D01*
X312834Y292703D01*
X312885Y292617D01*
X337113Y253844D02*
X337167Y253760D01*
X337225Y253679D01*
X337286Y253600D01*
X337350Y253524D01*
X337417Y253450D01*
X337487Y253378D01*
X337559Y253310D01*
X337634Y253244D01*
X337712Y253182D01*
X337792Y253122D01*
X337874Y253066D01*
X337959Y253013D01*
X338045Y252963D01*
X338134Y252917D01*
X338224Y252874D01*
X338315Y252835D01*
X338409Y252799D01*
X338503Y252768D01*
X338599Y252739D01*
X338696Y252715D01*
X338793Y252695D01*
X338892Y252678D01*
X338990Y252665D01*
X339090Y252656D01*
X339189Y252651D01*
X339289Y252650D01*
X339389Y252653D01*
X339488Y252660D01*
X339588Y252670D01*
X339686Y252685D01*
X339784Y252703D01*
X339881Y252725D01*
X339978Y252751D01*
X340073Y252781D01*
X340167Y252815D01*
X340259Y252852D01*
X340350Y252893D01*
X340440Y252937D01*
X340527Y252985D01*
X340613Y253036D01*
X353537Y261112D02*
X353621Y261166D01*
X353702Y261224D01*
X353781Y261285D01*
X353857Y261349D01*
X353931Y261416D01*
X354003Y261486D01*
X354071Y261558D01*
X354137Y261633D01*
X354199Y261711D01*
X354259Y261791D01*
X354315Y261873D01*
X354368Y261958D01*
X354418Y262044D01*
X354464Y262133D01*
X354507Y262223D01*
X354546Y262315D01*
X354582Y262408D01*
X354613Y262502D01*
X354642Y262598D01*
X354666Y262695D01*
X354686Y262792D01*
X354703Y262891D01*
X354716Y262989D01*
X354725Y263089D01*
X354730Y263188D01*
X354731Y263288D01*
X354728Y263388D01*
X354721Y263487D01*
X354711Y263587D01*
X354696Y263685D01*
X354678Y263783D01*
X354656Y263880D01*
X354630Y263977D01*
X354600Y264072D01*
X354566Y264166D01*
X354529Y264258D01*
X354488Y264349D01*
X354444Y264439D01*
X354396Y264526D01*
X354345Y264612D01*
X326617Y304193D02*
X313693Y296117D01*
X330117Y303384D02*
X332136Y300153D01*
X331732Y298403D01*
X314904Y289385D02*
X312885Y292617D01*
X314904Y289385D02*
X316654Y288981D01*
X350576Y268247D02*
X352326Y267843D01*
X350576Y268247D02*
X331732Y298403D01*
X335498Y258825D02*
X335094Y257075D01*
X335498Y258825D02*
X316654Y288981D01*
X352326Y267843D02*
X354345Y264612D01*
X337113Y253844D02*
X335094Y257075D01*
X340613Y253036D02*
X353537Y261112D01*
D17*
G36*
X346941Y252497D02*
X344922Y255727D01*
X349229Y258419D01*
X351248Y255189D01*
X346941Y252497D01*
G37*
G36*
X318002Y298809D02*
X315983Y302039D01*
X320290Y304731D01*
X322309Y301501D01*
X318002Y298809D01*
G37*
M02*
