G04 EAGLE Gerber X2 export*
G75*
%MOMM*%
%FSLAX34Y34*%
%LPD*%
%AMOC8*
5,1,8,0,0,1.08239X$1,22.5*%
G01*
%ADD10C,0.150000*%
%ADD11C,1.320800*%
%ADD12P,1.429621X8X292.500000*%
%ADD13C,1.308000*%
%ADD14P,1.415766X8X333.500000*%
%ADD15P,1.415766X8X253.500000*%
%ADD16P,1.429621X8X262.500000*%
%ADD17P,1.429621X8X324.500000*%
%ADD18C,0.127000*%
%ADD19C,0.230000*%
%ADD20C,0.240000*%
%ADD21C,2.000000*%
%ADD22C,0.304800*%
%ADD23C,1.270000*%
%ADD24C,0.609600*%
%ADD25C,0.756400*%
%ADD26C,0.152400*%

G36*
X318002Y445748D02*
X318002Y445748D01*
X318068Y445747D01*
X318142Y445768D01*
X318219Y445779D01*
X318279Y445806D01*
X318342Y445824D01*
X318408Y445864D01*
X318478Y445896D01*
X318528Y445939D01*
X318584Y445973D01*
X318636Y446030D01*
X318694Y446080D01*
X318724Y446128D01*
X318775Y446184D01*
X318831Y446299D01*
X318872Y446365D01*
X319001Y446677D01*
X321323Y448999D01*
X324358Y450256D01*
X336729Y450256D01*
X336787Y450264D01*
X336845Y450262D01*
X336927Y450284D01*
X337011Y450296D01*
X337064Y450319D01*
X337120Y450334D01*
X337193Y450377D01*
X337270Y450412D01*
X337315Y450450D01*
X337365Y450479D01*
X337423Y450541D01*
X337487Y450595D01*
X337519Y450644D01*
X337559Y450687D01*
X337598Y450762D01*
X337645Y450832D01*
X337662Y450888D01*
X337689Y450940D01*
X337700Y451008D01*
X337730Y451103D01*
X337733Y451203D01*
X337744Y451271D01*
X337744Y492729D01*
X337736Y492787D01*
X337738Y492845D01*
X337716Y492927D01*
X337704Y493011D01*
X337681Y493064D01*
X337666Y493120D01*
X337623Y493193D01*
X337588Y493270D01*
X337550Y493315D01*
X337521Y493365D01*
X337459Y493423D01*
X337405Y493487D01*
X337356Y493519D01*
X337313Y493559D01*
X337238Y493598D01*
X337168Y493645D01*
X337112Y493662D01*
X337060Y493689D01*
X336992Y493700D01*
X336897Y493730D01*
X336797Y493733D01*
X336729Y493744D01*
X317280Y493744D01*
X317278Y493745D01*
X317259Y493745D01*
X317241Y493750D01*
X317117Y493746D01*
X316993Y493747D01*
X316975Y493742D01*
X316957Y493742D01*
X316839Y493704D01*
X316720Y493671D01*
X316704Y493661D01*
X316686Y493655D01*
X316583Y493586D01*
X316478Y493521D01*
X316465Y493507D01*
X316450Y493497D01*
X316370Y493402D01*
X316287Y493310D01*
X316279Y493294D01*
X316267Y493279D01*
X316216Y493166D01*
X316162Y493055D01*
X316159Y493038D01*
X316151Y493020D01*
X316112Y492738D01*
X316113Y492730D01*
X316112Y492723D01*
X316919Y446736D01*
X316931Y446660D01*
X316933Y446583D01*
X316953Y446520D01*
X316964Y446455D01*
X316997Y446385D01*
X317020Y446312D01*
X317057Y446257D01*
X317085Y446198D01*
X317135Y446140D01*
X317178Y446076D01*
X317229Y446033D01*
X317272Y445984D01*
X317337Y445942D01*
X317396Y445893D01*
X317456Y445866D01*
X317511Y445831D01*
X317585Y445809D01*
X317656Y445777D01*
X317721Y445768D01*
X317784Y445750D01*
X317861Y445749D01*
X317937Y445738D01*
X318002Y445748D01*
G37*
G36*
X80058Y443993D02*
X80058Y443993D01*
X80116Y443991D01*
X80198Y444013D01*
X80282Y444025D01*
X80335Y444049D01*
X80391Y444063D01*
X80464Y444106D01*
X80541Y444141D01*
X80586Y444179D01*
X80636Y444209D01*
X80694Y444270D01*
X80758Y444325D01*
X80790Y444373D01*
X80830Y444416D01*
X80869Y444491D01*
X80916Y444561D01*
X80933Y444617D01*
X80960Y444669D01*
X80971Y444737D01*
X81001Y444832D01*
X81004Y444932D01*
X81015Y445000D01*
X81015Y490729D01*
X81008Y490780D01*
X81009Y490803D01*
X81008Y490806D01*
X81009Y490845D01*
X80987Y490927D01*
X80975Y491011D01*
X80952Y491064D01*
X80937Y491120D01*
X80894Y491193D01*
X80859Y491270D01*
X80821Y491315D01*
X80792Y491365D01*
X80730Y491423D01*
X80676Y491487D01*
X80627Y491519D01*
X80584Y491559D01*
X80509Y491598D01*
X80439Y491645D01*
X80383Y491662D01*
X80331Y491689D01*
X80263Y491700D01*
X80168Y491730D01*
X80068Y491733D01*
X80000Y491744D01*
X64271Y491744D01*
X64213Y491736D01*
X64155Y491738D01*
X64073Y491716D01*
X63989Y491704D01*
X63936Y491681D01*
X63880Y491666D01*
X63807Y491623D01*
X63730Y491588D01*
X63685Y491550D01*
X63635Y491521D01*
X63577Y491459D01*
X63513Y491405D01*
X63481Y491356D01*
X63441Y491313D01*
X63402Y491238D01*
X63355Y491168D01*
X63338Y491112D01*
X63311Y491060D01*
X63300Y490992D01*
X63270Y490897D01*
X63267Y490797D01*
X63256Y490729D01*
X63256Y452271D01*
X63264Y452213D01*
X63262Y452155D01*
X63284Y452073D01*
X63296Y451989D01*
X63319Y451936D01*
X63334Y451880D01*
X63377Y451807D01*
X63412Y451730D01*
X63450Y451685D01*
X63479Y451635D01*
X63541Y451577D01*
X63595Y451513D01*
X63644Y451481D01*
X63687Y451441D01*
X63762Y451402D01*
X63832Y451355D01*
X63888Y451338D01*
X63940Y451311D01*
X64008Y451300D01*
X64103Y451270D01*
X64203Y451267D01*
X64271Y451256D01*
X69642Y451256D01*
X72677Y449999D01*
X74999Y447677D01*
X76268Y444611D01*
X76269Y444610D01*
X76270Y444609D01*
X76340Y444491D01*
X76413Y444367D01*
X76414Y444366D01*
X76415Y444364D01*
X76519Y444267D01*
X76620Y444172D01*
X76621Y444171D01*
X76622Y444170D01*
X76748Y444105D01*
X76872Y444041D01*
X76874Y444041D01*
X76875Y444040D01*
X76890Y444038D01*
X77151Y443986D01*
X77182Y443989D01*
X77206Y443985D01*
X80000Y443985D01*
X80058Y443993D01*
G37*
G36*
X148827Y265997D02*
X148827Y265997D01*
X148828Y265997D01*
X149128Y266297D01*
X149128Y266298D01*
X149129Y266298D01*
X149529Y266898D01*
X149528Y266899D01*
X149529Y266899D01*
X149529Y266900D01*
X149529Y266901D01*
X149530Y266905D01*
X149531Y266909D01*
X149532Y266913D01*
X149533Y266917D01*
X149533Y266918D01*
X149537Y266939D01*
X149538Y266943D01*
X149539Y266947D01*
X149540Y266951D01*
X149540Y266952D01*
X149540Y266956D01*
X149541Y266960D01*
X149542Y266964D01*
X149543Y266968D01*
X149543Y266969D01*
X149544Y266973D01*
X149548Y266994D01*
X149549Y266998D01*
X149550Y267002D01*
X149550Y267003D01*
X149550Y267007D01*
X149551Y267011D01*
X149552Y267015D01*
X149553Y267019D01*
X149553Y267020D01*
X149554Y267024D01*
X149555Y267028D01*
X149559Y267049D01*
X149560Y267053D01*
X149560Y267054D01*
X149561Y267058D01*
X149561Y267062D01*
X149562Y267066D01*
X149563Y267070D01*
X149563Y267071D01*
X149564Y267075D01*
X149565Y267079D01*
X149566Y267083D01*
X149570Y267104D01*
X149571Y267109D01*
X149571Y267113D01*
X149572Y267113D01*
X149571Y267113D01*
X149572Y267117D01*
X149573Y267121D01*
X149573Y267122D01*
X149574Y267126D01*
X149575Y267130D01*
X149576Y267134D01*
X149577Y267138D01*
X149577Y267139D01*
X149581Y267160D01*
X149582Y267164D01*
X149582Y267168D01*
X149583Y267172D01*
X149583Y267173D01*
X149584Y267177D01*
X149585Y267181D01*
X149586Y267185D01*
X149587Y267189D01*
X149587Y267190D01*
X149587Y267194D01*
X149588Y267194D01*
X149587Y267194D01*
X149588Y267198D01*
X149592Y267215D01*
X149593Y267219D01*
X149593Y267223D01*
X149593Y267224D01*
X149594Y267228D01*
X149595Y267232D01*
X149596Y267236D01*
X149597Y267240D01*
X149597Y267241D01*
X149598Y267245D01*
X149598Y267249D01*
X149599Y267253D01*
X149603Y267270D01*
X149603Y267274D01*
X149603Y267275D01*
X149604Y267279D01*
X149605Y267283D01*
X149606Y267287D01*
X149607Y267291D01*
X149607Y267292D01*
X149608Y267296D01*
X149609Y267300D01*
X149609Y267304D01*
X149610Y267308D01*
X149610Y267309D01*
X149614Y267330D01*
X149615Y267334D01*
X149616Y267338D01*
X149617Y267342D01*
X149617Y267343D01*
X149618Y267347D01*
X149619Y267351D01*
X149619Y267355D01*
X149620Y267359D01*
X149620Y267360D01*
X149621Y267364D01*
X149625Y267385D01*
X149626Y267389D01*
X149627Y267393D01*
X149627Y267394D01*
X149628Y267398D01*
X149629Y267402D01*
X149630Y267406D01*
X149630Y267410D01*
X149630Y267411D01*
X149631Y267415D01*
X149632Y267419D01*
X149636Y267440D01*
X149637Y267444D01*
X149637Y267445D01*
X149638Y267449D01*
X149639Y267453D01*
X149640Y267457D01*
X149640Y267461D01*
X149641Y267461D01*
X149640Y267462D01*
X149641Y267466D01*
X149642Y267470D01*
X149643Y267474D01*
X149647Y267495D01*
X149647Y267496D01*
X149648Y267500D01*
X149649Y267504D01*
X149650Y267508D01*
X149651Y267512D01*
X149651Y267513D01*
X149651Y267517D01*
X149652Y267521D01*
X149653Y267525D01*
X149654Y267529D01*
X149654Y267530D01*
X149658Y267551D01*
X149659Y267555D01*
X149660Y267559D01*
X149661Y267563D01*
X149661Y267564D01*
X149662Y267568D01*
X149662Y267572D01*
X149663Y267576D01*
X149664Y267580D01*
X149664Y267581D01*
X149665Y267585D01*
X149669Y267606D01*
X149670Y267610D01*
X149671Y267614D01*
X149671Y267615D01*
X149672Y267619D01*
X149672Y267623D01*
X149673Y267627D01*
X149674Y267631D01*
X149674Y267632D01*
X149675Y267636D01*
X149676Y267640D01*
X149677Y267644D01*
X149680Y267661D01*
X149681Y267665D01*
X149681Y267666D01*
X149682Y267670D01*
X149683Y267674D01*
X149683Y267678D01*
X149684Y267682D01*
X149684Y267683D01*
X149685Y267687D01*
X149686Y267691D01*
X149687Y267695D01*
X149688Y267699D01*
X149688Y267700D01*
X149691Y267716D01*
X149692Y267721D01*
X149693Y267725D01*
X149693Y267729D01*
X149694Y267729D01*
X149693Y267729D01*
X149694Y267733D01*
X149694Y267734D01*
X149695Y267738D01*
X149696Y267742D01*
X149697Y267746D01*
X149698Y267750D01*
X149698Y267751D01*
X149699Y267755D01*
X149703Y267776D01*
X149704Y267780D01*
X149704Y267784D01*
X149704Y267785D01*
X149705Y267789D01*
X149706Y267793D01*
X149707Y267797D01*
X149708Y267801D01*
X149708Y267802D01*
X149709Y267806D01*
X149709Y267810D01*
X149710Y267810D01*
X149709Y267810D01*
X149714Y267831D01*
X149715Y267835D01*
X149715Y267836D01*
X149715Y267840D01*
X149716Y267844D01*
X149717Y267848D01*
X149718Y267852D01*
X149718Y267853D01*
X149719Y267857D01*
X149720Y267861D01*
X149720Y267865D01*
X149725Y267886D01*
X149725Y267887D01*
X149725Y267891D01*
X149726Y267895D01*
X149727Y267899D01*
X149728Y267903D01*
X149728Y267904D01*
X149729Y267908D01*
X149730Y267912D01*
X149731Y267916D01*
X149731Y267920D01*
X149731Y267921D01*
X149736Y267942D01*
X149736Y267946D01*
X149737Y267950D01*
X149738Y267954D01*
X149738Y267955D01*
X149739Y267959D01*
X149740Y267963D01*
X149741Y267967D01*
X149741Y267971D01*
X149741Y267972D01*
X149742Y267976D01*
X149746Y267997D01*
X149747Y267997D01*
X149747Y268001D01*
X149748Y268005D01*
X149748Y268006D01*
X149749Y268010D01*
X149750Y268014D01*
X149751Y268018D01*
X149752Y268022D01*
X149752Y268023D01*
X149752Y268027D01*
X149753Y268031D01*
X149754Y268035D01*
X149757Y268052D01*
X149758Y268056D01*
X149758Y268057D01*
X149759Y268061D01*
X149760Y268065D01*
X149761Y268069D01*
X149762Y268073D01*
X149762Y268074D01*
X149762Y268078D01*
X149763Y268078D01*
X149762Y268078D01*
X149763Y268082D01*
X149764Y268086D01*
X149765Y268090D01*
X149765Y268091D01*
X149768Y268107D01*
X149769Y268112D01*
X149770Y268116D01*
X149771Y268120D01*
X149772Y268124D01*
X149772Y268125D01*
X149773Y268129D01*
X149773Y268133D01*
X149774Y268137D01*
X149775Y268141D01*
X149775Y268142D01*
X149776Y268146D01*
X149780Y268167D01*
X149781Y268171D01*
X149782Y268175D01*
X149782Y268176D01*
X149783Y268180D01*
X149784Y268184D01*
X149784Y268188D01*
X149785Y268192D01*
X149785Y268193D01*
X149786Y268197D01*
X149787Y268201D01*
X149791Y268222D01*
X149792Y268226D01*
X149792Y268227D01*
X149793Y268231D01*
X149794Y268235D01*
X149794Y268239D01*
X149795Y268243D01*
X149795Y268244D01*
X149796Y268248D01*
X149797Y268252D01*
X149798Y268256D01*
X149802Y268277D01*
X149802Y268278D01*
X149803Y268282D01*
X149804Y268286D01*
X149805Y268290D01*
X149805Y268294D01*
X149805Y268295D01*
X149806Y268299D01*
X149807Y268303D01*
X149808Y268307D01*
X149809Y268311D01*
X149809Y268312D01*
X149813Y268333D01*
X149814Y268337D01*
X149815Y268341D01*
X149815Y268345D01*
X149816Y268345D01*
X149815Y268346D01*
X149816Y268350D01*
X149817Y268354D01*
X149818Y268358D01*
X149819Y268362D01*
X149819Y268363D01*
X149820Y268367D01*
X149824Y268388D01*
X149825Y268392D01*
X149826Y268396D01*
X149826Y268397D01*
X149826Y268401D01*
X149827Y268405D01*
X149828Y268409D01*
X149829Y268413D01*
X149829Y268414D01*
X149830Y268418D01*
X149831Y268422D01*
X149835Y268443D01*
X149836Y268447D01*
X149836Y268448D01*
X149837Y268452D01*
X149837Y268456D01*
X149838Y268460D01*
X149839Y268464D01*
X149839Y268465D01*
X149840Y268469D01*
X149841Y268473D01*
X149842Y268477D01*
X149842Y268481D01*
X149842Y268482D01*
X149846Y268498D01*
X149847Y268503D01*
X149847Y268507D01*
X149848Y268511D01*
X149849Y268515D01*
X149849Y268516D01*
X149850Y268520D01*
X149851Y268524D01*
X149852Y268528D01*
X149853Y268532D01*
X149853Y268533D01*
X149853Y268537D01*
X149857Y268554D01*
X149858Y268558D01*
X149858Y268562D01*
X149859Y268566D01*
X149859Y268567D01*
X149860Y268571D01*
X149861Y268575D01*
X149862Y268579D01*
X149863Y268583D01*
X149863Y268584D01*
X149863Y268588D01*
X149864Y268592D01*
X149868Y268613D01*
X149869Y268613D01*
X149869Y268617D01*
X149869Y268618D01*
X149870Y268622D01*
X149871Y268626D01*
X149872Y268630D01*
X149873Y268634D01*
X149873Y268635D01*
X149874Y268639D01*
X149874Y268643D01*
X149875Y268647D01*
X149879Y268668D01*
X149879Y268669D01*
X149880Y268673D01*
X149881Y268677D01*
X149882Y268681D01*
X149883Y268685D01*
X149883Y268686D01*
X149884Y268690D01*
X149884Y268694D01*
X149885Y268694D01*
X149884Y268694D01*
X149885Y268698D01*
X149886Y268702D01*
X149886Y268703D01*
X149890Y268724D01*
X149891Y268728D01*
X149892Y268732D01*
X149893Y268736D01*
X149893Y268737D01*
X149894Y268741D01*
X149895Y268745D01*
X149895Y268749D01*
X149896Y268753D01*
X149896Y268754D01*
X149897Y268758D01*
X149901Y268779D01*
X149902Y268783D01*
X149903Y268787D01*
X149903Y268788D01*
X149904Y268792D01*
X149905Y268796D01*
X149906Y268800D01*
X149906Y268804D01*
X149906Y268805D01*
X149907Y268809D01*
X149908Y268813D01*
X149912Y268834D01*
X149913Y268838D01*
X149913Y268839D01*
X149914Y268843D01*
X149915Y268847D01*
X149916Y268851D01*
X149916Y268855D01*
X149916Y268856D01*
X149917Y268860D01*
X149918Y268864D01*
X149919Y268868D01*
X149920Y268872D01*
X149920Y268873D01*
X149923Y268889D01*
X149924Y268894D01*
X149925Y268898D01*
X149926Y268902D01*
X149927Y268906D01*
X149927Y268907D01*
X149927Y268911D01*
X149928Y268915D01*
X149929Y268919D01*
X149930Y268923D01*
X149930Y268924D01*
X149931Y268928D01*
X149934Y268945D01*
X149935Y268949D01*
X149936Y268953D01*
X149937Y268957D01*
X149937Y268958D01*
X149937Y268962D01*
X149938Y268962D01*
X149937Y268962D01*
X149938Y268966D01*
X149939Y268970D01*
X149940Y268974D01*
X149940Y268975D01*
X149941Y268979D01*
X149942Y268983D01*
X149946Y269004D01*
X149947Y269008D01*
X149947Y269009D01*
X149948Y269013D01*
X149948Y269017D01*
X149949Y269021D01*
X149950Y269025D01*
X149950Y269026D01*
X149951Y269030D01*
X149952Y269034D01*
X149953Y269038D01*
X149957Y269059D01*
X149957Y269060D01*
X149958Y269064D01*
X149959Y269068D01*
X149959Y269072D01*
X149960Y269076D01*
X149960Y269077D01*
X149961Y269081D01*
X149962Y269085D01*
X149963Y269089D01*
X149964Y269093D01*
X149964Y269094D01*
X149968Y269115D01*
X149969Y269119D01*
X149969Y269123D01*
X149970Y269127D01*
X149970Y269128D01*
X149971Y269132D01*
X149972Y269136D01*
X149973Y269140D01*
X149974Y269144D01*
X149974Y269145D01*
X149975Y269149D01*
X149979Y269170D01*
X149980Y269174D01*
X149980Y269178D01*
X149980Y269179D01*
X149981Y269183D01*
X149982Y269187D01*
X149983Y269191D01*
X149984Y269195D01*
X149984Y269196D01*
X149985Y269200D01*
X149985Y269204D01*
X149990Y269225D01*
X149990Y269229D01*
X149991Y269229D01*
X149991Y269230D01*
X149991Y269234D01*
X149992Y269238D01*
X149993Y269242D01*
X149994Y269246D01*
X149994Y269247D01*
X149995Y269251D01*
X149996Y269255D01*
X149996Y269259D01*
X150001Y269280D01*
X150001Y269285D01*
X150002Y269289D01*
X150003Y269293D01*
X150004Y269297D01*
X150004Y269298D01*
X150005Y269302D01*
X150006Y269306D01*
X150006Y269310D01*
X150007Y269310D01*
X150006Y269310D01*
X150007Y269314D01*
X150007Y269315D01*
X150008Y269319D01*
X150012Y269336D01*
X150012Y269340D01*
X150013Y269344D01*
X150014Y269348D01*
X150014Y269349D01*
X150015Y269353D01*
X150016Y269357D01*
X150017Y269361D01*
X150017Y269365D01*
X150017Y269366D01*
X150018Y269370D01*
X150019Y269374D01*
X150022Y269391D01*
X150023Y269395D01*
X150024Y269399D01*
X150024Y269400D01*
X150025Y269404D01*
X150026Y269408D01*
X150027Y269412D01*
X150028Y269416D01*
X150028Y269417D01*
X150028Y269421D01*
X150029Y269425D01*
X150030Y269429D01*
X150034Y269450D01*
X150034Y269451D01*
X150035Y269455D01*
X150036Y269459D01*
X150037Y269463D01*
X150038Y269467D01*
X150038Y269468D01*
X150038Y269472D01*
X150039Y269476D01*
X150040Y269480D01*
X150041Y269484D01*
X150041Y269485D01*
X150045Y269506D01*
X150046Y269510D01*
X150047Y269514D01*
X150048Y269518D01*
X150048Y269519D01*
X150049Y269523D01*
X150049Y269527D01*
X150050Y269531D01*
X150051Y269535D01*
X150051Y269536D01*
X150052Y269540D01*
X150056Y269561D01*
X150057Y269565D01*
X150058Y269569D01*
X150058Y269570D01*
X150059Y269574D01*
X150059Y269578D01*
X150060Y269578D01*
X150059Y269578D01*
X150060Y269582D01*
X150061Y269586D01*
X150061Y269587D01*
X150062Y269591D01*
X150063Y269595D01*
X150067Y269616D01*
X150068Y269620D01*
X150068Y269621D01*
X150069Y269625D01*
X150070Y269629D01*
X150070Y269633D01*
X150071Y269637D01*
X150071Y269638D01*
X150072Y269642D01*
X150073Y269646D01*
X150074Y269650D01*
X150078Y269671D01*
X150079Y269676D01*
X150080Y269680D01*
X150081Y269684D01*
X150081Y269688D01*
X150081Y269689D01*
X150082Y269693D01*
X150083Y269697D01*
X150084Y269701D01*
X150085Y269705D01*
X150085Y269706D01*
X150086Y269710D01*
X150089Y269727D01*
X150090Y269731D01*
X150091Y269735D01*
X150091Y269739D01*
X150091Y269740D01*
X150092Y269744D01*
X150093Y269748D01*
X150094Y269752D01*
X150095Y269756D01*
X150095Y269757D01*
X150096Y269761D01*
X150097Y269765D01*
X150100Y269782D01*
X150101Y269786D01*
X150102Y269790D01*
X150102Y269791D01*
X150102Y269795D01*
X150103Y269799D01*
X150104Y269803D01*
X150105Y269807D01*
X150105Y269808D01*
X150106Y269812D01*
X150107Y269816D01*
X150107Y269820D01*
X150112Y269841D01*
X150112Y269842D01*
X150112Y269846D01*
X150113Y269846D01*
X150112Y269846D01*
X150113Y269850D01*
X150114Y269854D01*
X150115Y269858D01*
X150115Y269859D01*
X150116Y269863D01*
X150117Y269867D01*
X150118Y269871D01*
X150118Y269875D01*
X150118Y269876D01*
X150123Y269897D01*
X150123Y269901D01*
X150124Y269905D01*
X150125Y269909D01*
X150125Y269910D01*
X150126Y269914D01*
X150127Y269918D01*
X150128Y269922D01*
X150128Y269926D01*
X150129Y269926D01*
X150128Y269927D01*
X150129Y269931D01*
X150134Y269952D01*
X150134Y269956D01*
X150135Y269960D01*
X150135Y269961D01*
X150136Y269965D01*
X150137Y269969D01*
X150138Y269973D01*
X150139Y269977D01*
X150139Y269978D01*
X150139Y269982D01*
X150140Y269986D01*
X150144Y270007D01*
X150145Y270011D01*
X150145Y270012D01*
X150146Y270016D01*
X150147Y270020D01*
X150148Y270024D01*
X150149Y270028D01*
X150149Y270029D01*
X150150Y270033D01*
X150150Y270037D01*
X150151Y270041D01*
X150155Y270062D01*
X150156Y270067D01*
X150157Y270071D01*
X150158Y270075D01*
X150159Y270079D01*
X150159Y270080D01*
X150160Y270084D01*
X150160Y270088D01*
X150161Y270092D01*
X150162Y270096D01*
X150162Y270097D01*
X150166Y270118D01*
X150167Y270122D01*
X150168Y270126D01*
X150169Y270130D01*
X150169Y270131D01*
X150170Y270135D01*
X150171Y270139D01*
X150171Y270143D01*
X150172Y270147D01*
X150172Y270148D01*
X150173Y270152D01*
X150174Y270156D01*
X150177Y270173D01*
X150178Y270177D01*
X150179Y270181D01*
X150179Y270182D01*
X150180Y270186D01*
X150181Y270190D01*
X150181Y270194D01*
X150182Y270194D01*
X150181Y270194D01*
X150182Y270198D01*
X150182Y270199D01*
X150183Y270203D01*
X150184Y270207D01*
X150185Y270211D01*
X150188Y270228D01*
X150189Y270232D01*
X150189Y270233D01*
X150190Y270237D01*
X150191Y270241D01*
X150192Y270245D01*
X150192Y270249D01*
X150192Y270250D01*
X150193Y270254D01*
X150194Y270258D01*
X150195Y270262D01*
X150196Y270266D01*
X150196Y270267D01*
X150200Y270288D01*
X150201Y270292D01*
X150202Y270296D01*
X150203Y270300D01*
X150203Y270301D01*
X150203Y270305D01*
X150204Y270309D01*
X150205Y270313D01*
X150206Y270317D01*
X150206Y270318D01*
X150207Y270322D01*
X150211Y270343D01*
X150212Y270347D01*
X150213Y270351D01*
X150213Y270352D01*
X150213Y270356D01*
X150214Y270360D01*
X150215Y270364D01*
X150216Y270368D01*
X150216Y270369D01*
X150217Y270373D01*
X150218Y270377D01*
X150222Y270398D01*
X150223Y270402D01*
X150223Y270403D01*
X150224Y270407D01*
X150224Y270411D01*
X150225Y270415D01*
X150226Y270419D01*
X150226Y270420D01*
X150227Y270424D01*
X150228Y270428D01*
X150229Y270432D01*
X150233Y270453D01*
X150234Y270458D01*
X150234Y270462D01*
X150235Y270462D01*
X150234Y270462D01*
X150235Y270466D01*
X150236Y270470D01*
X150236Y270471D01*
X150237Y270475D01*
X150238Y270479D01*
X150239Y270483D01*
X150240Y270487D01*
X150240Y270488D01*
X150244Y270509D01*
X150245Y270513D01*
X150245Y270517D01*
X150246Y270521D01*
X150246Y270522D01*
X150247Y270526D01*
X150248Y270530D01*
X150249Y270534D01*
X150250Y270538D01*
X150250Y270539D01*
X150250Y270543D01*
X150251Y270543D01*
X150250Y270543D01*
X150251Y270547D01*
X150255Y270564D01*
X150256Y270568D01*
X150256Y270572D01*
X150256Y270573D01*
X150257Y270577D01*
X150258Y270581D01*
X150259Y270585D01*
X150260Y270589D01*
X150260Y270590D01*
X150261Y270594D01*
X150261Y270598D01*
X150262Y270602D01*
X150266Y270619D01*
X150266Y270623D01*
X150266Y270624D01*
X150267Y270628D01*
X150268Y270632D01*
X150269Y270636D01*
X150270Y270640D01*
X150270Y270641D01*
X150271Y270645D01*
X150272Y270649D01*
X150272Y270653D01*
X150273Y270657D01*
X150273Y270658D01*
X150277Y270679D01*
X150278Y270683D01*
X150279Y270687D01*
X150280Y270691D01*
X150280Y270692D01*
X150281Y270696D01*
X150282Y270700D01*
X150282Y270704D01*
X150283Y270708D01*
X150283Y270709D01*
X150284Y270713D01*
X150288Y270734D01*
X150289Y270738D01*
X150290Y270742D01*
X150290Y270743D01*
X150291Y270747D01*
X150292Y270751D01*
X150293Y270755D01*
X150293Y270759D01*
X150293Y270760D01*
X150294Y270764D01*
X150295Y270768D01*
X150299Y270789D01*
X150300Y270793D01*
X150300Y270794D01*
X150301Y270798D01*
X150302Y270802D01*
X150303Y270806D01*
X150303Y270810D01*
X150304Y270810D01*
X150303Y270811D01*
X150304Y270815D01*
X150305Y270819D01*
X150306Y270823D01*
X150310Y270844D01*
X150310Y270845D01*
X150311Y270849D01*
X150312Y270853D01*
X150313Y270857D01*
X150314Y270861D01*
X150314Y270862D01*
X150314Y270866D01*
X150315Y270870D01*
X150316Y270874D01*
X150317Y270878D01*
X150317Y270879D01*
X150321Y270900D01*
X150322Y270904D01*
X150323Y270908D01*
X150324Y270912D01*
X150324Y270913D01*
X150325Y270917D01*
X150325Y270921D01*
X150326Y270925D01*
X150327Y270929D01*
X150327Y270930D01*
X150328Y270934D01*
X150332Y270955D01*
X150333Y270959D01*
X150334Y270963D01*
X150334Y270964D01*
X150335Y270968D01*
X150335Y270972D01*
X150336Y270976D01*
X150337Y270980D01*
X150337Y270981D01*
X150338Y270985D01*
X150339Y270989D01*
X150340Y270993D01*
X150343Y271010D01*
X150344Y271014D01*
X150344Y271015D01*
X150345Y271019D01*
X150346Y271023D01*
X150346Y271027D01*
X150347Y271031D01*
X150347Y271032D01*
X150348Y271036D01*
X150349Y271040D01*
X150350Y271044D01*
X150351Y271048D01*
X150351Y271049D01*
X150354Y271065D01*
X150355Y271070D01*
X150356Y271074D01*
X150356Y271078D01*
X150357Y271078D01*
X150356Y271078D01*
X150357Y271082D01*
X150357Y271083D01*
X150358Y271087D01*
X150359Y271091D01*
X150360Y271095D01*
X150361Y271099D01*
X150361Y271100D01*
X150362Y271104D01*
X150366Y271125D01*
X150367Y271129D01*
X150367Y271133D01*
X150367Y271134D01*
X150368Y271138D01*
X150369Y271142D01*
X150370Y271146D01*
X150371Y271150D01*
X150371Y271151D01*
X150372Y271155D01*
X150372Y271159D01*
X150373Y271159D01*
X150372Y271159D01*
X150377Y271180D01*
X150378Y271184D01*
X150378Y271185D01*
X150378Y271189D01*
X150379Y271193D01*
X150380Y271197D01*
X150381Y271201D01*
X150381Y271202D01*
X150382Y271206D01*
X150383Y271210D01*
X150383Y271214D01*
X150388Y271235D01*
X150388Y271236D01*
X150388Y271240D01*
X150389Y271244D01*
X150390Y271248D01*
X150391Y271252D01*
X150391Y271253D01*
X150392Y271257D01*
X150393Y271261D01*
X150394Y271265D01*
X150394Y271269D01*
X150394Y271270D01*
X150399Y271291D01*
X150399Y271295D01*
X150400Y271299D01*
X150401Y271303D01*
X150401Y271304D01*
X150402Y271308D01*
X150403Y271312D01*
X150404Y271316D01*
X150404Y271320D01*
X150404Y271321D01*
X150405Y271325D01*
X150409Y271346D01*
X150410Y271346D01*
X150410Y271350D01*
X150411Y271354D01*
X150411Y271355D01*
X150412Y271359D01*
X150413Y271363D01*
X150414Y271367D01*
X150415Y271371D01*
X150415Y271372D01*
X150415Y271376D01*
X150416Y271380D01*
X150417Y271384D01*
X150420Y271401D01*
X150421Y271405D01*
X150421Y271406D01*
X150422Y271410D01*
X150423Y271414D01*
X150424Y271418D01*
X150425Y271422D01*
X150425Y271423D01*
X150425Y271427D01*
X150426Y271427D01*
X150425Y271427D01*
X150426Y271431D01*
X150427Y271435D01*
X150428Y271439D01*
X150428Y271440D01*
X150431Y271456D01*
X150432Y271461D01*
X150433Y271465D01*
X150434Y271469D01*
X150435Y271473D01*
X150435Y271474D01*
X150436Y271478D01*
X150436Y271482D01*
X150437Y271486D01*
X150438Y271490D01*
X150438Y271491D01*
X150439Y271495D01*
X150443Y271516D01*
X150444Y271520D01*
X150445Y271524D01*
X150445Y271525D01*
X150446Y271529D01*
X150447Y271533D01*
X150447Y271537D01*
X150448Y271541D01*
X150448Y271542D01*
X150449Y271546D01*
X150450Y271550D01*
X150454Y271571D01*
X150455Y271575D01*
X150455Y271576D01*
X150456Y271580D01*
X150457Y271584D01*
X150457Y271588D01*
X150458Y271592D01*
X150458Y271593D01*
X150459Y271597D01*
X150460Y271601D01*
X150461Y271605D01*
X150465Y271626D01*
X150465Y271627D01*
X150466Y271631D01*
X150467Y271635D01*
X150468Y271639D01*
X150468Y271643D01*
X150468Y271644D01*
X150469Y271648D01*
X150470Y271652D01*
X150471Y271656D01*
X150472Y271660D01*
X150472Y271661D01*
X150476Y271682D01*
X150477Y271686D01*
X150478Y271690D01*
X150478Y271694D01*
X150479Y271694D01*
X150478Y271695D01*
X150479Y271699D01*
X150480Y271703D01*
X150481Y271707D01*
X150482Y271711D01*
X150482Y271712D01*
X150483Y271716D01*
X150487Y271737D01*
X150488Y271741D01*
X150489Y271745D01*
X150489Y271746D01*
X150489Y271750D01*
X150490Y271754D01*
X150491Y271758D01*
X150492Y271762D01*
X150492Y271763D01*
X150493Y271767D01*
X150494Y271771D01*
X150498Y271792D01*
X150499Y271796D01*
X150499Y271797D01*
X150500Y271801D01*
X150500Y271805D01*
X150501Y271809D01*
X150502Y271813D01*
X150502Y271814D01*
X150503Y271818D01*
X150504Y271822D01*
X150505Y271826D01*
X150505Y271830D01*
X150505Y271831D01*
X150509Y271847D01*
X150510Y271852D01*
X150510Y271856D01*
X150511Y271860D01*
X150512Y271864D01*
X150512Y271865D01*
X150513Y271869D01*
X150514Y271873D01*
X150515Y271877D01*
X150516Y271881D01*
X150516Y271882D01*
X150516Y271886D01*
X150520Y271903D01*
X150521Y271907D01*
X150521Y271911D01*
X150522Y271915D01*
X150522Y271916D01*
X150523Y271920D01*
X150524Y271924D01*
X150525Y271928D01*
X150526Y271932D01*
X150526Y271933D01*
X150526Y271937D01*
X150527Y271941D01*
X150531Y271962D01*
X150532Y271962D01*
X150532Y271966D01*
X150532Y271967D01*
X150533Y271971D01*
X150534Y271975D01*
X150535Y271979D01*
X150536Y271983D01*
X150536Y271984D01*
X150537Y271988D01*
X150537Y271992D01*
X150538Y271996D01*
X150542Y272017D01*
X150542Y272018D01*
X150543Y272022D01*
X150544Y272026D01*
X150545Y272030D01*
X150546Y272034D01*
X150546Y272035D01*
X150547Y272039D01*
X150547Y272043D01*
X150548Y272043D01*
X150547Y272043D01*
X150548Y272047D01*
X150549Y272051D01*
X150549Y272052D01*
X150553Y272073D01*
X150554Y272077D01*
X150555Y272081D01*
X150556Y272085D01*
X150556Y272086D01*
X150557Y272090D01*
X150558Y272094D01*
X150558Y272098D01*
X150559Y272102D01*
X150559Y272103D01*
X150560Y272107D01*
X150564Y272128D01*
X150565Y272132D01*
X150566Y272136D01*
X150566Y272137D01*
X150567Y272141D01*
X150568Y272145D01*
X150569Y272149D01*
X150569Y272153D01*
X150569Y272154D01*
X150570Y272158D01*
X150571Y272162D01*
X150575Y272183D01*
X150576Y272187D01*
X150576Y272188D01*
X150577Y272192D01*
X150578Y272196D01*
X150579Y272200D01*
X150579Y272204D01*
X150579Y272205D01*
X150580Y272209D01*
X150581Y272213D01*
X150582Y272217D01*
X150583Y272221D01*
X150583Y272222D01*
X150586Y272238D01*
X150587Y272243D01*
X150588Y272247D01*
X150589Y272251D01*
X150590Y272255D01*
X150590Y272256D01*
X150590Y272260D01*
X150591Y272264D01*
X150592Y272268D01*
X150593Y272272D01*
X150593Y272273D01*
X150594Y272277D01*
X150597Y272294D01*
X150598Y272298D01*
X150599Y272302D01*
X150600Y272306D01*
X150600Y272307D01*
X150600Y272311D01*
X150601Y272311D01*
X150600Y272311D01*
X150601Y272315D01*
X150602Y272319D01*
X150603Y272323D01*
X150603Y272324D01*
X150604Y272328D01*
X150605Y272332D01*
X150609Y272353D01*
X150610Y272357D01*
X150610Y272358D01*
X150611Y272362D01*
X150611Y272366D01*
X150612Y272370D01*
X150613Y272374D01*
X150613Y272375D01*
X150614Y272379D01*
X150615Y272383D01*
X150616Y272387D01*
X150620Y272408D01*
X150620Y272409D01*
X150621Y272413D01*
X150622Y272417D01*
X150622Y272421D01*
X150623Y272425D01*
X150623Y272426D01*
X150624Y272430D01*
X150625Y272434D01*
X150626Y272438D01*
X150627Y272442D01*
X150627Y272443D01*
X150631Y272464D01*
X150632Y272468D01*
X150632Y272472D01*
X150633Y272476D01*
X150633Y272477D01*
X150634Y272481D01*
X150635Y272485D01*
X150636Y272489D01*
X150637Y272493D01*
X150637Y272494D01*
X150638Y272498D01*
X150642Y272519D01*
X150643Y272523D01*
X150643Y272527D01*
X150643Y272528D01*
X150644Y272532D01*
X150645Y272536D01*
X150646Y272540D01*
X150647Y272544D01*
X150647Y272545D01*
X150648Y272549D01*
X150648Y272553D01*
X150653Y272574D01*
X150653Y272578D01*
X150654Y272578D01*
X150654Y272579D01*
X150654Y272583D01*
X150655Y272587D01*
X150656Y272591D01*
X150657Y272595D01*
X150657Y272596D01*
X150658Y272600D01*
X150659Y272604D01*
X150659Y272608D01*
X150664Y272629D01*
X150664Y272634D01*
X150665Y272638D01*
X150666Y272642D01*
X150667Y272646D01*
X150667Y272647D01*
X150668Y272651D01*
X150669Y272655D01*
X150669Y272659D01*
X150670Y272659D01*
X150669Y272659D01*
X150670Y272663D01*
X150670Y272664D01*
X150671Y272668D01*
X150675Y272685D01*
X150675Y272689D01*
X150676Y272693D01*
X150677Y272697D01*
X150677Y272698D01*
X150678Y272702D01*
X150679Y272706D01*
X150680Y272710D01*
X150680Y272714D01*
X150680Y272715D01*
X150681Y272719D01*
X150682Y272723D01*
X150685Y272740D01*
X150686Y272744D01*
X150687Y272748D01*
X150687Y272749D01*
X150688Y272753D01*
X150689Y272757D01*
X150690Y272761D01*
X150691Y272765D01*
X150691Y272766D01*
X150691Y272770D01*
X150692Y272774D01*
X150693Y272778D01*
X150697Y272799D01*
X150697Y272800D01*
X150698Y272804D01*
X150699Y272808D01*
X150700Y272812D01*
X150701Y272816D01*
X150701Y272817D01*
X150701Y272821D01*
X150702Y272825D01*
X150703Y272829D01*
X150704Y272833D01*
X150704Y272834D01*
X150708Y272855D01*
X150709Y272859D01*
X150710Y272863D01*
X150711Y272867D01*
X150711Y272868D01*
X150712Y272872D01*
X150712Y272876D01*
X150713Y272880D01*
X150714Y272884D01*
X150714Y272885D01*
X150715Y272889D01*
X150719Y272910D01*
X150720Y272914D01*
X150721Y272918D01*
X150721Y272919D01*
X150722Y272923D01*
X150722Y272927D01*
X150723Y272927D01*
X150722Y272927D01*
X150723Y272931D01*
X150724Y272935D01*
X150724Y272936D01*
X150725Y272940D01*
X150726Y272944D01*
X150730Y272965D01*
X150731Y272969D01*
X150731Y272970D01*
X150732Y272974D01*
X150733Y272978D01*
X150733Y272982D01*
X150734Y272986D01*
X150734Y272987D01*
X150735Y272991D01*
X150736Y272995D01*
X150737Y272999D01*
X150741Y273020D01*
X150742Y273025D01*
X150743Y273029D01*
X150744Y273033D01*
X150744Y273037D01*
X150744Y273038D01*
X150745Y273042D01*
X150746Y273046D01*
X150747Y273050D01*
X150748Y273054D01*
X150748Y273055D01*
X150749Y273059D01*
X150752Y273076D01*
X150753Y273080D01*
X150754Y273084D01*
X150754Y273088D01*
X150754Y273089D01*
X150755Y273093D01*
X150756Y273097D01*
X150757Y273101D01*
X150758Y273105D01*
X150758Y273106D01*
X150759Y273110D01*
X150760Y273114D01*
X150763Y273131D01*
X150764Y273135D01*
X150765Y273139D01*
X150765Y273140D01*
X150765Y273144D01*
X150766Y273148D01*
X150767Y273152D01*
X150768Y273156D01*
X150768Y273157D01*
X150769Y273161D01*
X150770Y273165D01*
X150770Y273169D01*
X150775Y273190D01*
X150775Y273191D01*
X150775Y273195D01*
X150776Y273195D01*
X150775Y273195D01*
X150776Y273199D01*
X150777Y273203D01*
X150778Y273207D01*
X150778Y273208D01*
X150779Y273212D01*
X150780Y273216D01*
X150781Y273220D01*
X150781Y273224D01*
X150781Y273225D01*
X150786Y273246D01*
X150786Y273250D01*
X150787Y273254D01*
X150788Y273258D01*
X150788Y273259D01*
X150789Y273263D01*
X150790Y273267D01*
X150791Y273271D01*
X150791Y273275D01*
X150792Y273275D01*
X150791Y273276D01*
X150792Y273280D01*
X150797Y273301D01*
X150797Y273305D01*
X150798Y273309D01*
X150798Y273310D01*
X150799Y273314D01*
X150800Y273318D01*
X150801Y273322D01*
X150802Y273326D01*
X150802Y273327D01*
X150802Y273331D01*
X150803Y273335D01*
X150807Y273356D01*
X150808Y273360D01*
X150808Y273361D01*
X150809Y273365D01*
X150810Y273369D01*
X150811Y273373D01*
X150812Y273377D01*
X150812Y273378D01*
X150813Y273382D01*
X150813Y273386D01*
X150814Y273390D01*
X150818Y273411D01*
X150819Y273416D01*
X150820Y273420D01*
X150821Y273424D01*
X150822Y273428D01*
X150822Y273429D01*
X150823Y273433D01*
X150823Y273437D01*
X150824Y273441D01*
X150825Y273445D01*
X150825Y273446D01*
X150829Y273467D01*
X150830Y273471D01*
X150831Y273475D01*
X150832Y273479D01*
X150832Y273480D01*
X150833Y273484D01*
X150834Y273488D01*
X150834Y273492D01*
X150835Y273496D01*
X150835Y273497D01*
X150836Y273501D01*
X150837Y273505D01*
X150840Y273522D01*
X150841Y273526D01*
X150842Y273530D01*
X150842Y273531D01*
X150843Y273535D01*
X150844Y273539D01*
X150844Y273543D01*
X150845Y273543D01*
X150844Y273543D01*
X150845Y273547D01*
X150845Y273548D01*
X150846Y273552D01*
X150847Y273556D01*
X150848Y273560D01*
X150851Y273577D01*
X150852Y273581D01*
X150852Y273582D01*
X150853Y273586D01*
X150854Y273590D01*
X150855Y273594D01*
X150855Y273598D01*
X150855Y273599D01*
X150856Y273603D01*
X150857Y273607D01*
X150858Y273611D01*
X150859Y273615D01*
X150859Y273616D01*
X150863Y273637D01*
X150864Y273641D01*
X150865Y273645D01*
X150866Y273649D01*
X150866Y273650D01*
X150866Y273654D01*
X150867Y273658D01*
X150868Y273662D01*
X150869Y273666D01*
X150869Y273667D01*
X150870Y273671D01*
X150874Y273692D01*
X150875Y273696D01*
X150876Y273700D01*
X150876Y273701D01*
X150876Y273705D01*
X150877Y273709D01*
X150878Y273713D01*
X150879Y273717D01*
X150879Y273718D01*
X150880Y273722D01*
X150881Y273726D01*
X150885Y273747D01*
X150886Y273751D01*
X150886Y273752D01*
X150887Y273756D01*
X150887Y273760D01*
X150888Y273764D01*
X150889Y273768D01*
X150889Y273769D01*
X150890Y273773D01*
X150891Y273777D01*
X150892Y273781D01*
X150896Y273802D01*
X150897Y273807D01*
X150897Y273811D01*
X150898Y273811D01*
X150897Y273811D01*
X150898Y273815D01*
X150899Y273819D01*
X150899Y273820D01*
X150900Y273824D01*
X150901Y273828D01*
X150902Y273832D01*
X150903Y273836D01*
X150903Y273837D01*
X150907Y273858D01*
X150908Y273862D01*
X150908Y273866D01*
X150909Y273870D01*
X150909Y273871D01*
X150910Y273875D01*
X150911Y273879D01*
X150912Y273883D01*
X150913Y273887D01*
X150913Y273888D01*
X150913Y273892D01*
X150914Y273892D01*
X150913Y273892D01*
X150914Y273896D01*
X150918Y273913D01*
X150919Y273917D01*
X150919Y273921D01*
X150919Y273922D01*
X150920Y273926D01*
X150921Y273930D01*
X150922Y273934D01*
X150923Y273938D01*
X150923Y273939D01*
X150924Y273943D01*
X150924Y273947D01*
X150925Y273951D01*
X150929Y273968D01*
X150929Y273972D01*
X150929Y273973D01*
X150930Y273977D01*
X150931Y273981D01*
X150932Y273985D01*
X150933Y273989D01*
X150933Y273990D01*
X150934Y273994D01*
X150935Y273998D01*
X150935Y274002D01*
X150936Y274006D01*
X150936Y274007D01*
X150940Y274028D01*
X150941Y274032D01*
X150942Y274036D01*
X150943Y274040D01*
X150943Y274041D01*
X150944Y274045D01*
X150945Y274049D01*
X150945Y274053D01*
X150946Y274057D01*
X150946Y274058D01*
X150947Y274062D01*
X150951Y274083D01*
X150952Y274087D01*
X150953Y274091D01*
X150953Y274092D01*
X150954Y274096D01*
X150955Y274100D01*
X150956Y274104D01*
X150956Y274108D01*
X150956Y274109D01*
X150957Y274113D01*
X150958Y274117D01*
X150962Y274138D01*
X150963Y274142D01*
X150963Y274143D01*
X150964Y274147D01*
X150965Y274151D01*
X150966Y274155D01*
X150966Y274159D01*
X150967Y274159D01*
X150966Y274160D01*
X150967Y274164D01*
X150968Y274168D01*
X150969Y274172D01*
X150973Y274193D01*
X150973Y274194D01*
X150974Y274198D01*
X150975Y274202D01*
X150976Y274206D01*
X150977Y274210D01*
X150977Y274211D01*
X150977Y274215D01*
X150978Y274219D01*
X150979Y274223D01*
X150980Y274227D01*
X150980Y274228D01*
X150984Y274249D01*
X150985Y274253D01*
X150986Y274257D01*
X150987Y274261D01*
X150987Y274262D01*
X150988Y274266D01*
X150988Y274270D01*
X150989Y274274D01*
X150990Y274278D01*
X150990Y274279D01*
X150991Y274283D01*
X150995Y274304D01*
X150996Y274308D01*
X150997Y274312D01*
X150997Y274313D01*
X150998Y274317D01*
X150998Y274321D01*
X150999Y274325D01*
X151000Y274329D01*
X151000Y274330D01*
X151001Y274334D01*
X151002Y274338D01*
X151003Y274342D01*
X151006Y274359D01*
X151007Y274363D01*
X151007Y274364D01*
X151008Y274368D01*
X151009Y274372D01*
X151009Y274376D01*
X151010Y274380D01*
X151010Y274381D01*
X151011Y274385D01*
X151012Y274389D01*
X151013Y274393D01*
X151014Y274397D01*
X151014Y274398D01*
X151017Y274414D01*
X151018Y274419D01*
X151019Y274423D01*
X151019Y274427D01*
X151020Y274427D01*
X151019Y274427D01*
X151020Y274431D01*
X151020Y274432D01*
X151021Y274436D01*
X151022Y274440D01*
X151023Y274444D01*
X151024Y274448D01*
X151024Y274449D01*
X151025Y274453D01*
X151029Y274474D01*
X151030Y274478D01*
X151030Y274482D01*
X151030Y274483D01*
X151031Y274487D01*
X151032Y274491D01*
X151033Y274495D01*
X151034Y274499D01*
X151034Y274500D01*
X151035Y274504D01*
X151035Y274508D01*
X151036Y274508D01*
X151035Y274508D01*
X151040Y274529D01*
X151041Y274533D01*
X151041Y274534D01*
X151041Y274538D01*
X151042Y274542D01*
X151043Y274546D01*
X151044Y274550D01*
X151044Y274551D01*
X151045Y274555D01*
X151046Y274559D01*
X151046Y274563D01*
X151051Y274584D01*
X151051Y274585D01*
X151051Y274589D01*
X151052Y274593D01*
X151053Y274597D01*
X151054Y274601D01*
X151054Y274602D01*
X151055Y274606D01*
X151056Y274610D01*
X151057Y274614D01*
X151057Y274618D01*
X151057Y274619D01*
X151062Y274640D01*
X151062Y274644D01*
X151063Y274648D01*
X151064Y274652D01*
X151064Y274653D01*
X151065Y274657D01*
X151066Y274661D01*
X151067Y274665D01*
X151067Y274669D01*
X151067Y274670D01*
X151068Y274674D01*
X151072Y274695D01*
X151073Y274695D01*
X151073Y274699D01*
X151074Y274703D01*
X151074Y274704D01*
X151075Y274708D01*
X151076Y274712D01*
X151077Y274716D01*
X151078Y274720D01*
X151078Y274721D01*
X151078Y274725D01*
X151079Y274729D01*
X151080Y274733D01*
X151083Y274750D01*
X151084Y274754D01*
X151084Y274755D01*
X151085Y274759D01*
X151086Y274763D01*
X151087Y274767D01*
X151088Y274771D01*
X151088Y274772D01*
X151088Y274776D01*
X151089Y274776D01*
X151088Y274776D01*
X151089Y274780D01*
X151090Y274784D01*
X151091Y274788D01*
X151091Y274789D01*
X151094Y274805D01*
X151095Y274810D01*
X151096Y274814D01*
X151097Y274818D01*
X151098Y274822D01*
X151098Y274823D01*
X151099Y274827D01*
X151099Y274831D01*
X151100Y274835D01*
X151101Y274839D01*
X151101Y274840D01*
X151102Y274844D01*
X151106Y274865D01*
X151107Y274869D01*
X151108Y274873D01*
X151108Y274874D01*
X151109Y274878D01*
X151110Y274882D01*
X151110Y274886D01*
X151111Y274890D01*
X151111Y274891D01*
X151112Y274895D01*
X151113Y274899D01*
X151117Y274920D01*
X151118Y274924D01*
X151118Y274925D01*
X151119Y274929D01*
X151120Y274933D01*
X151120Y274937D01*
X151121Y274941D01*
X151121Y274942D01*
X151122Y274946D01*
X151123Y274950D01*
X151124Y274954D01*
X151128Y274975D01*
X151128Y274976D01*
X151129Y274980D01*
X151130Y274984D01*
X151131Y274988D01*
X151131Y274992D01*
X151131Y274993D01*
X151132Y274997D01*
X151133Y275001D01*
X151134Y275005D01*
X151135Y275009D01*
X151135Y275010D01*
X151139Y275031D01*
X151140Y275035D01*
X151141Y275039D01*
X151141Y275043D01*
X151142Y275043D01*
X151141Y275044D01*
X151142Y275048D01*
X151143Y275052D01*
X151144Y275056D01*
X151145Y275060D01*
X151145Y275061D01*
X151146Y275065D01*
X151150Y275086D01*
X151151Y275090D01*
X151152Y275094D01*
X151152Y275095D01*
X151152Y275099D01*
X151153Y275103D01*
X151154Y275107D01*
X151155Y275111D01*
X151155Y275112D01*
X151156Y275116D01*
X151157Y275120D01*
X151161Y275141D01*
X151162Y275145D01*
X151162Y275146D01*
X151163Y275150D01*
X151163Y275154D01*
X151164Y275158D01*
X151165Y275162D01*
X151165Y275163D01*
X151166Y275167D01*
X151167Y275171D01*
X151168Y275175D01*
X151168Y275179D01*
X151168Y275180D01*
X151172Y275196D01*
X151173Y275201D01*
X151173Y275205D01*
X151174Y275209D01*
X151175Y275213D01*
X151175Y275214D01*
X151176Y275218D01*
X151177Y275222D01*
X151178Y275226D01*
X151179Y275230D01*
X151179Y275231D01*
X151179Y275235D01*
X151183Y275252D01*
X151184Y275256D01*
X151184Y275260D01*
X151185Y275264D01*
X151185Y275265D01*
X151186Y275269D01*
X151187Y275273D01*
X151188Y275277D01*
X151189Y275281D01*
X151189Y275282D01*
X151189Y275286D01*
X151190Y275290D01*
X151194Y275311D01*
X151195Y275311D01*
X151195Y275315D01*
X151195Y275316D01*
X151196Y275320D01*
X151197Y275324D01*
X151198Y275328D01*
X151199Y275332D01*
X151199Y275333D01*
X151200Y275337D01*
X151200Y275341D01*
X151201Y275345D01*
X151205Y275366D01*
X151205Y275367D01*
X151206Y275371D01*
X151207Y275375D01*
X151208Y275379D01*
X151209Y275383D01*
X151209Y275384D01*
X151210Y275388D01*
X151210Y275392D01*
X151211Y275392D01*
X151210Y275392D01*
X151211Y275396D01*
X151212Y275400D01*
X151212Y275401D01*
X151216Y275422D01*
X151217Y275426D01*
X151218Y275430D01*
X151219Y275434D01*
X151219Y275435D01*
X151220Y275439D01*
X151221Y275443D01*
X151221Y275447D01*
X151222Y275451D01*
X151222Y275452D01*
X151223Y275456D01*
X151227Y275477D01*
X151228Y275481D01*
X151229Y275485D01*
X151229Y275486D01*
X151230Y275490D01*
X151231Y275494D01*
X151232Y275498D01*
X151232Y275502D01*
X151232Y275503D01*
X151233Y275507D01*
X151234Y275511D01*
X151238Y275532D01*
X151239Y275536D01*
X151239Y275537D01*
X151240Y275541D01*
X151241Y275545D01*
X151242Y275549D01*
X151242Y275553D01*
X151242Y275554D01*
X151243Y275558D01*
X151244Y275562D01*
X151245Y275566D01*
X151246Y275570D01*
X151246Y275571D01*
X151249Y275587D01*
X151250Y275592D01*
X151251Y275596D01*
X151252Y275600D01*
X151253Y275604D01*
X151253Y275605D01*
X151253Y275609D01*
X151254Y275613D01*
X151255Y275617D01*
X151256Y275621D01*
X151256Y275622D01*
X151257Y275626D01*
X151260Y275643D01*
X151261Y275647D01*
X151262Y275651D01*
X151263Y275655D01*
X151263Y275656D01*
X151263Y275660D01*
X151264Y275660D01*
X151263Y275660D01*
X151264Y275664D01*
X151265Y275668D01*
X151266Y275672D01*
X151266Y275673D01*
X151267Y275677D01*
X151268Y275681D01*
X151272Y275702D01*
X151273Y275706D01*
X151273Y275707D01*
X151274Y275711D01*
X151274Y275715D01*
X151275Y275719D01*
X151276Y275723D01*
X151276Y275724D01*
X151277Y275728D01*
X151278Y275732D01*
X151279Y275736D01*
X151283Y275757D01*
X151283Y275758D01*
X151284Y275762D01*
X151285Y275766D01*
X151285Y275770D01*
X151286Y275774D01*
X151286Y275775D01*
X151287Y275779D01*
X151288Y275783D01*
X151289Y275787D01*
X151290Y275791D01*
X151290Y275792D01*
X151294Y275813D01*
X151295Y275817D01*
X151295Y275821D01*
X151296Y275825D01*
X151296Y275826D01*
X151297Y275830D01*
X151298Y275834D01*
X151299Y275838D01*
X151300Y275842D01*
X151300Y275843D01*
X151301Y275847D01*
X151305Y275868D01*
X151306Y275872D01*
X151306Y275876D01*
X151306Y275877D01*
X151307Y275881D01*
X151308Y275885D01*
X151309Y275889D01*
X151310Y275893D01*
X151310Y275894D01*
X151311Y275898D01*
X151311Y275902D01*
X151316Y275923D01*
X151316Y275927D01*
X151317Y275927D01*
X151317Y275928D01*
X151317Y275932D01*
X151318Y275936D01*
X151319Y275940D01*
X151320Y275944D01*
X151320Y275945D01*
X151321Y275949D01*
X151322Y275953D01*
X151322Y275957D01*
X151327Y275978D01*
X151327Y275983D01*
X151328Y275987D01*
X151329Y275991D01*
X151330Y275995D01*
X151330Y275996D01*
X151331Y276000D01*
X151332Y276004D01*
X151332Y276008D01*
X151333Y276008D01*
X151332Y276008D01*
X151333Y276012D01*
X151333Y276013D01*
X151334Y276017D01*
X151338Y276034D01*
X151338Y276038D01*
X151339Y276042D01*
X151340Y276046D01*
X151340Y276047D01*
X151341Y276051D01*
X151342Y276055D01*
X151343Y276059D01*
X151343Y276063D01*
X151343Y276064D01*
X151344Y276068D01*
X151345Y276072D01*
X151348Y276089D01*
X151349Y276093D01*
X151350Y276097D01*
X151350Y276098D01*
X151351Y276102D01*
X151352Y276106D01*
X151353Y276110D01*
X151354Y276114D01*
X151354Y276115D01*
X151354Y276119D01*
X151355Y276123D01*
X151356Y276127D01*
X151360Y276148D01*
X151360Y276149D01*
X151361Y276153D01*
X151362Y276157D01*
X151363Y276161D01*
X151364Y276165D01*
X151364Y276166D01*
X151364Y276170D01*
X151365Y276174D01*
X151366Y276178D01*
X151367Y276182D01*
X151367Y276183D01*
X151371Y276204D01*
X151372Y276208D01*
X151373Y276212D01*
X151374Y276216D01*
X151374Y276217D01*
X151375Y276221D01*
X151375Y276225D01*
X151376Y276229D01*
X151377Y276233D01*
X151377Y276234D01*
X151378Y276238D01*
X151382Y276259D01*
X151383Y276263D01*
X151384Y276267D01*
X151384Y276268D01*
X151385Y276272D01*
X151385Y276276D01*
X151386Y276276D01*
X151385Y276276D01*
X151386Y276280D01*
X151387Y276284D01*
X151387Y276285D01*
X151388Y276289D01*
X151389Y276293D01*
X151393Y276314D01*
X151394Y276318D01*
X151394Y276319D01*
X151395Y276323D01*
X151396Y276327D01*
X151396Y276331D01*
X151397Y276335D01*
X151397Y276336D01*
X151398Y276340D01*
X151399Y276344D01*
X151400Y276348D01*
X151404Y276369D01*
X151405Y276374D01*
X151406Y276378D01*
X151407Y276382D01*
X151407Y276386D01*
X151407Y276387D01*
X151408Y276391D01*
X151409Y276395D01*
X151410Y276399D01*
X151411Y276403D01*
X151411Y276404D01*
X151412Y276408D01*
X151415Y276425D01*
X151416Y276429D01*
X151417Y276433D01*
X151417Y276437D01*
X151417Y276438D01*
X151418Y276442D01*
X151419Y276446D01*
X151420Y276450D01*
X151421Y276454D01*
X151421Y276455D01*
X151422Y276459D01*
X151423Y276463D01*
X151426Y276480D01*
X151427Y276484D01*
X151428Y276488D01*
X151428Y276489D01*
X151428Y276493D01*
X151429Y276497D01*
X151430Y276501D01*
X151431Y276505D01*
X151431Y276506D01*
X151432Y276510D01*
X151433Y276514D01*
X151433Y276518D01*
X151438Y276539D01*
X151438Y276540D01*
X151438Y276544D01*
X151439Y276544D01*
X151438Y276544D01*
X151439Y276548D01*
X151440Y276552D01*
X151441Y276556D01*
X151441Y276557D01*
X151442Y276561D01*
X151443Y276565D01*
X151444Y276569D01*
X151444Y276573D01*
X151444Y276574D01*
X151449Y276595D01*
X151449Y276599D01*
X151450Y276603D01*
X151451Y276607D01*
X151451Y276608D01*
X151452Y276612D01*
X151453Y276616D01*
X151454Y276620D01*
X151454Y276624D01*
X151455Y276624D01*
X151454Y276625D01*
X151455Y276629D01*
X151460Y276650D01*
X151460Y276654D01*
X151461Y276658D01*
X151461Y276659D01*
X151462Y276663D01*
X151463Y276667D01*
X151464Y276671D01*
X151465Y276675D01*
X151465Y276676D01*
X151465Y276680D01*
X151466Y276684D01*
X151470Y276705D01*
X151471Y276709D01*
X151471Y276710D01*
X151472Y276714D01*
X151473Y276718D01*
X151474Y276722D01*
X151475Y276726D01*
X151475Y276727D01*
X151476Y276731D01*
X151476Y276735D01*
X151477Y276739D01*
X151481Y276760D01*
X151482Y276765D01*
X151483Y276769D01*
X151484Y276773D01*
X151485Y276777D01*
X151485Y276778D01*
X151486Y276782D01*
X151486Y276786D01*
X151487Y276790D01*
X151488Y276794D01*
X151488Y276795D01*
X151492Y276816D01*
X151493Y276820D01*
X151494Y276824D01*
X151495Y276828D01*
X151495Y276829D01*
X151496Y276833D01*
X151497Y276837D01*
X151497Y276841D01*
X151498Y276845D01*
X151498Y276846D01*
X151499Y276850D01*
X151500Y276854D01*
X151503Y276871D01*
X151504Y276875D01*
X151505Y276879D01*
X151505Y276880D01*
X151506Y276884D01*
X151507Y276888D01*
X151507Y276892D01*
X151508Y276892D01*
X151507Y276892D01*
X151508Y276896D01*
X151508Y276897D01*
X151509Y276901D01*
X151510Y276905D01*
X151511Y276909D01*
X151514Y276926D01*
X151515Y276930D01*
X151515Y276931D01*
X151516Y276935D01*
X151517Y276939D01*
X151518Y276943D01*
X151518Y276947D01*
X151518Y276948D01*
X151519Y276952D01*
X151520Y276956D01*
X151521Y276960D01*
X151522Y276964D01*
X151522Y276965D01*
X151526Y276986D01*
X151527Y276990D01*
X151528Y276994D01*
X151529Y276998D01*
X151529Y276999D01*
X151529Y277003D01*
X151530Y277007D01*
X151531Y277011D01*
X151532Y277015D01*
X151532Y277016D01*
X151533Y277020D01*
X151537Y277041D01*
X151538Y277045D01*
X151539Y277049D01*
X151539Y277050D01*
X151539Y277054D01*
X151540Y277058D01*
X151541Y277062D01*
X151542Y277066D01*
X151542Y277067D01*
X151543Y277071D01*
X151544Y277075D01*
X151548Y277096D01*
X151549Y277100D01*
X151549Y277101D01*
X151550Y277105D01*
X151550Y277109D01*
X151551Y277113D01*
X151552Y277117D01*
X151552Y277118D01*
X151553Y277122D01*
X151554Y277126D01*
X151555Y277130D01*
X151559Y277151D01*
X151560Y277156D01*
X151560Y277160D01*
X151561Y277160D01*
X151560Y277160D01*
X151561Y277164D01*
X151562Y277168D01*
X151562Y277169D01*
X151563Y277173D01*
X151564Y277177D01*
X151565Y277181D01*
X151566Y277185D01*
X151566Y277186D01*
X151570Y277207D01*
X151571Y277211D01*
X151571Y277215D01*
X151572Y277219D01*
X151572Y277220D01*
X151573Y277224D01*
X151574Y277228D01*
X151575Y277232D01*
X151576Y277236D01*
X151576Y277237D01*
X151576Y277241D01*
X151577Y277241D01*
X151576Y277241D01*
X151577Y277245D01*
X151581Y277262D01*
X151582Y277266D01*
X151582Y277270D01*
X151582Y277271D01*
X151583Y277275D01*
X151584Y277279D01*
X151585Y277283D01*
X151586Y277287D01*
X151586Y277288D01*
X151587Y277292D01*
X151587Y277296D01*
X151588Y277300D01*
X151592Y277317D01*
X151592Y277321D01*
X151592Y277322D01*
X151593Y277326D01*
X151594Y277330D01*
X151595Y277334D01*
X151596Y277338D01*
X151596Y277339D01*
X151597Y277343D01*
X151598Y277347D01*
X151598Y277351D01*
X151599Y277355D01*
X151599Y277356D01*
X151603Y277377D01*
X151604Y277381D01*
X151605Y277385D01*
X151606Y277389D01*
X151606Y277390D01*
X151607Y277394D01*
X151608Y277398D01*
X151608Y277402D01*
X151609Y277406D01*
X151609Y277407D01*
X151610Y277411D01*
X151614Y277432D01*
X151615Y277436D01*
X151616Y277440D01*
X151616Y277441D01*
X151617Y277445D01*
X151618Y277449D01*
X151619Y277453D01*
X151619Y277457D01*
X151619Y277458D01*
X151620Y277462D01*
X151621Y277466D01*
X151625Y277487D01*
X151626Y277491D01*
X151626Y277492D01*
X151627Y277496D01*
X151628Y277500D01*
X151629Y277504D01*
X151629Y277508D01*
X151630Y277508D01*
X151629Y277509D01*
X151630Y277513D01*
X151631Y277517D01*
X151632Y277521D01*
X151636Y277542D01*
X151636Y277543D01*
X151637Y277547D01*
X151638Y277551D01*
X151639Y277555D01*
X151640Y277559D01*
X151640Y277560D01*
X151640Y277564D01*
X151641Y277568D01*
X151642Y277572D01*
X151643Y277576D01*
X151643Y277577D01*
X151647Y277598D01*
X151648Y277602D01*
X151649Y277606D01*
X151650Y277610D01*
X151650Y277611D01*
X151651Y277615D01*
X151651Y277619D01*
X151652Y277623D01*
X151653Y277627D01*
X151653Y277628D01*
X151654Y277632D01*
X151658Y277653D01*
X151659Y277657D01*
X151660Y277661D01*
X151660Y277662D01*
X151661Y277666D01*
X151661Y277670D01*
X151662Y277674D01*
X151663Y277678D01*
X151663Y277679D01*
X151664Y277683D01*
X151665Y277687D01*
X151666Y277691D01*
X151669Y277708D01*
X151670Y277712D01*
X151670Y277713D01*
X151671Y277717D01*
X151672Y277721D01*
X151672Y277725D01*
X151673Y277729D01*
X151673Y277730D01*
X151674Y277734D01*
X151675Y277738D01*
X151676Y277742D01*
X151677Y277746D01*
X151677Y277747D01*
X151680Y277763D01*
X151681Y277768D01*
X151682Y277772D01*
X151682Y277776D01*
X151683Y277776D01*
X151682Y277776D01*
X151683Y277780D01*
X151683Y277781D01*
X151684Y277785D01*
X151685Y277789D01*
X151686Y277793D01*
X151687Y277797D01*
X151687Y277798D01*
X151688Y277802D01*
X151692Y277823D01*
X151693Y277827D01*
X151693Y277831D01*
X151693Y277832D01*
X151694Y277836D01*
X151695Y277840D01*
X151696Y277844D01*
X151697Y277848D01*
X151697Y277849D01*
X151698Y277853D01*
X151698Y277857D01*
X151699Y277857D01*
X151698Y277857D01*
X151703Y277878D01*
X151704Y277882D01*
X151704Y277883D01*
X151704Y277887D01*
X151705Y277891D01*
X151706Y277895D01*
X151707Y277899D01*
X151707Y277900D01*
X151708Y277904D01*
X151709Y277908D01*
X151709Y277912D01*
X151714Y277933D01*
X151714Y277934D01*
X151714Y277938D01*
X151715Y277942D01*
X151716Y277946D01*
X151717Y277950D01*
X151717Y277951D01*
X151718Y277955D01*
X151719Y277959D01*
X151720Y277963D01*
X151720Y277967D01*
X151720Y277968D01*
X151725Y277989D01*
X151725Y277993D01*
X151726Y277997D01*
X151727Y278001D01*
X151727Y278002D01*
X151728Y278006D01*
X151729Y278010D01*
X151730Y278014D01*
X151730Y278018D01*
X151730Y278019D01*
X151731Y278023D01*
X151735Y278044D01*
X151736Y278044D01*
X151736Y278048D01*
X151737Y278052D01*
X151737Y278053D01*
X151738Y278057D01*
X151739Y278061D01*
X151740Y278065D01*
X151741Y278069D01*
X151741Y278070D01*
X151741Y278074D01*
X151742Y278078D01*
X151743Y278082D01*
X151746Y278099D01*
X151747Y278103D01*
X151747Y278104D01*
X151748Y278108D01*
X151749Y278112D01*
X151750Y278116D01*
X151751Y278120D01*
X151751Y278121D01*
X151751Y278125D01*
X151752Y278125D01*
X151751Y278125D01*
X151752Y278129D01*
X151753Y278133D01*
X151754Y278137D01*
X151754Y278138D01*
X151757Y278154D01*
X151758Y278159D01*
X151759Y278163D01*
X151760Y278167D01*
X151761Y278171D01*
X151761Y278172D01*
X151762Y278176D01*
X151762Y278180D01*
X151763Y278184D01*
X151764Y278188D01*
X151764Y278189D01*
X151765Y278193D01*
X151769Y278214D01*
X151770Y278218D01*
X151771Y278222D01*
X151771Y278223D01*
X151772Y278227D01*
X151773Y278231D01*
X151773Y278235D01*
X151774Y278239D01*
X151774Y278240D01*
X151775Y278244D01*
X151776Y278248D01*
X151780Y278269D01*
X151781Y278273D01*
X151781Y278274D01*
X151782Y278278D01*
X151783Y278282D01*
X151783Y278286D01*
X151784Y278290D01*
X151784Y278291D01*
X151785Y278295D01*
X151786Y278299D01*
X151787Y278303D01*
X151791Y278324D01*
X151791Y278325D01*
X151792Y278329D01*
X151793Y278333D01*
X151794Y278337D01*
X151794Y278341D01*
X151794Y278342D01*
X151795Y278346D01*
X151796Y278350D01*
X151797Y278354D01*
X151798Y278358D01*
X151798Y278359D01*
X151802Y278380D01*
X151803Y278384D01*
X151804Y278388D01*
X151804Y278392D01*
X151805Y278392D01*
X151804Y278393D01*
X151805Y278397D01*
X151806Y278401D01*
X151807Y278405D01*
X151808Y278409D01*
X151808Y278410D01*
X151809Y278414D01*
X151813Y278435D01*
X151814Y278439D01*
X151815Y278443D01*
X151815Y278444D01*
X151815Y278448D01*
X151816Y278452D01*
X151817Y278456D01*
X151818Y278460D01*
X151818Y278461D01*
X151819Y278465D01*
X151820Y278469D01*
X151824Y278490D01*
X151825Y278494D01*
X151825Y278495D01*
X151826Y278499D01*
X151826Y278503D01*
X151827Y278507D01*
X151828Y278511D01*
X151828Y278512D01*
X151829Y278516D01*
X151830Y278520D01*
X151831Y278524D01*
X151831Y278528D01*
X151831Y278529D01*
X151835Y278545D01*
X151836Y278550D01*
X151836Y278554D01*
X151837Y278558D01*
X151838Y278562D01*
X151838Y278563D01*
X151839Y278567D01*
X151840Y278571D01*
X151841Y278575D01*
X151842Y278579D01*
X151842Y278580D01*
X151842Y278584D01*
X151846Y278601D01*
X151847Y278605D01*
X151847Y278609D01*
X151848Y278613D01*
X151848Y278614D01*
X151849Y278618D01*
X151850Y278622D01*
X151851Y278626D01*
X151852Y278630D01*
X151852Y278631D01*
X151852Y278635D01*
X151853Y278639D01*
X151857Y278660D01*
X151858Y278660D01*
X151858Y278664D01*
X151858Y278665D01*
X151859Y278669D01*
X151860Y278673D01*
X151861Y278677D01*
X151862Y278681D01*
X151862Y278682D01*
X151863Y278686D01*
X151863Y278690D01*
X151864Y278694D01*
X151868Y278715D01*
X151868Y278716D01*
X151869Y278720D01*
X151870Y278724D01*
X151871Y278728D01*
X151872Y278732D01*
X151872Y278733D01*
X151873Y278737D01*
X151873Y278741D01*
X151874Y278741D01*
X151873Y278741D01*
X151874Y278745D01*
X151875Y278749D01*
X151875Y278750D01*
X151879Y278771D01*
X151880Y278775D01*
X151881Y278779D01*
X151882Y278783D01*
X151882Y278784D01*
X151883Y278788D01*
X151884Y278792D01*
X151884Y278796D01*
X151885Y278800D01*
X151885Y278801D01*
X151886Y278805D01*
X151890Y278826D01*
X151891Y278830D01*
X151892Y278834D01*
X151892Y278835D01*
X151893Y278839D01*
X151894Y278843D01*
X151895Y278847D01*
X151895Y278851D01*
X151895Y278852D01*
X151896Y278856D01*
X151897Y278860D01*
X151901Y278881D01*
X151902Y278885D01*
X151902Y278886D01*
X151903Y278890D01*
X151904Y278894D01*
X151905Y278898D01*
X151905Y278902D01*
X151905Y278903D01*
X151906Y278907D01*
X151907Y278911D01*
X151908Y278915D01*
X151909Y278919D01*
X151909Y278920D01*
X151912Y278936D01*
X151913Y278941D01*
X151914Y278945D01*
X151915Y278949D01*
X151916Y278953D01*
X151916Y278954D01*
X151916Y278958D01*
X151917Y278962D01*
X151918Y278966D01*
X151919Y278970D01*
X151919Y278971D01*
X151920Y278975D01*
X151923Y278992D01*
X151924Y278996D01*
X151925Y279000D01*
X151926Y279004D01*
X151926Y279005D01*
X151926Y279009D01*
X151927Y279009D01*
X151926Y279009D01*
X151927Y279013D01*
X151928Y279017D01*
X151929Y279021D01*
X151929Y279022D01*
X151930Y279026D01*
X151931Y279030D01*
X151935Y279051D01*
X151936Y279055D01*
X151936Y279056D01*
X151937Y279060D01*
X151937Y279064D01*
X151938Y279068D01*
X151939Y279072D01*
X151939Y279073D01*
X151940Y279077D01*
X151941Y279081D01*
X151942Y279085D01*
X151946Y279106D01*
X151946Y279107D01*
X151947Y279111D01*
X151948Y279115D01*
X151948Y279119D01*
X151949Y279123D01*
X151949Y279124D01*
X151950Y279128D01*
X151951Y279132D01*
X151952Y279136D01*
X151953Y279140D01*
X151953Y279141D01*
X151957Y279162D01*
X151958Y279166D01*
X151958Y279170D01*
X151959Y279174D01*
X151959Y279175D01*
X151960Y279179D01*
X151961Y279183D01*
X151962Y279187D01*
X151963Y279191D01*
X151963Y279192D01*
X151964Y279196D01*
X151968Y279217D01*
X151969Y279221D01*
X151969Y279225D01*
X151969Y279226D01*
X151970Y279230D01*
X151971Y279234D01*
X151972Y279238D01*
X151973Y279242D01*
X151973Y279243D01*
X151974Y279247D01*
X151974Y279251D01*
X151979Y279272D01*
X151979Y279276D01*
X151980Y279276D01*
X151980Y279277D01*
X151980Y279281D01*
X151981Y279285D01*
X151982Y279289D01*
X151983Y279293D01*
X151983Y279294D01*
X151984Y279298D01*
X151985Y279302D01*
X151985Y279306D01*
X151990Y279327D01*
X151990Y279332D01*
X151991Y279336D01*
X151992Y279340D01*
X151993Y279344D01*
X151993Y279345D01*
X151994Y279349D01*
X151995Y279353D01*
X151995Y279357D01*
X151996Y279357D01*
X151995Y279357D01*
X151996Y279361D01*
X151996Y279362D01*
X151997Y279366D01*
X152001Y279383D01*
X152001Y279387D01*
X152002Y279391D01*
X152003Y279395D01*
X152003Y279396D01*
X152004Y279400D01*
X152005Y279404D01*
X152006Y279408D01*
X152006Y279412D01*
X152006Y279413D01*
X152007Y279417D01*
X152008Y279421D01*
X152011Y279438D01*
X152012Y279442D01*
X152013Y279446D01*
X152013Y279447D01*
X152014Y279451D01*
X152015Y279455D01*
X152016Y279459D01*
X152017Y279463D01*
X152017Y279464D01*
X152017Y279468D01*
X152018Y279472D01*
X152019Y279476D01*
X152023Y279497D01*
X152023Y279498D01*
X152024Y279502D01*
X152025Y279506D01*
X152026Y279510D01*
X152027Y279514D01*
X152027Y279515D01*
X152027Y279519D01*
X152028Y279523D01*
X152029Y279527D01*
X152030Y279531D01*
X152030Y279532D01*
X152034Y279553D01*
X152035Y279557D01*
X152036Y279561D01*
X152037Y279565D01*
X152037Y279566D01*
X152038Y279570D01*
X152038Y279574D01*
X152039Y279578D01*
X152040Y279582D01*
X152040Y279583D01*
X152041Y279587D01*
X152045Y279608D01*
X152046Y279612D01*
X152047Y279616D01*
X152047Y279617D01*
X152048Y279621D01*
X152048Y279625D01*
X152049Y279625D01*
X152048Y279625D01*
X152049Y279629D01*
X152050Y279633D01*
X152050Y279634D01*
X152051Y279638D01*
X152052Y279642D01*
X152056Y279663D01*
X152057Y279667D01*
X152057Y279668D01*
X152058Y279672D01*
X152059Y279676D01*
X152059Y279680D01*
X152060Y279684D01*
X152060Y279685D01*
X152061Y279689D01*
X152062Y279693D01*
X152063Y279697D01*
X152067Y279718D01*
X152068Y279723D01*
X152069Y279727D01*
X152070Y279731D01*
X152070Y279735D01*
X152070Y279736D01*
X152071Y279740D01*
X152072Y279744D01*
X152073Y279748D01*
X152074Y279752D01*
X152074Y279753D01*
X152075Y279757D01*
X152078Y279774D01*
X152079Y279778D01*
X152080Y279782D01*
X152080Y279786D01*
X152080Y279787D01*
X152081Y279791D01*
X152082Y279795D01*
X152083Y279799D01*
X152084Y279803D01*
X152084Y279804D01*
X152085Y279808D01*
X152086Y279812D01*
X152089Y279829D01*
X152090Y279833D01*
X152091Y279837D01*
X152091Y279838D01*
X152091Y279842D01*
X152092Y279846D01*
X152093Y279850D01*
X152094Y279854D01*
X152094Y279855D01*
X152095Y279859D01*
X152096Y279863D01*
X152096Y279867D01*
X152101Y279888D01*
X152101Y279889D01*
X152101Y279893D01*
X152102Y279893D01*
X152101Y279893D01*
X152102Y279897D01*
X152103Y279901D01*
X152104Y279905D01*
X152104Y279906D01*
X152105Y279910D01*
X152106Y279914D01*
X152107Y279918D01*
X152107Y279922D01*
X152107Y279923D01*
X152112Y279944D01*
X152112Y279948D01*
X152113Y279952D01*
X152114Y279956D01*
X152114Y279957D01*
X152115Y279961D01*
X152116Y279965D01*
X152117Y279969D01*
X152117Y279973D01*
X152118Y279973D01*
X152117Y279974D01*
X152118Y279978D01*
X152123Y279999D01*
X152123Y280003D01*
X152124Y280007D01*
X152124Y280008D01*
X152125Y280012D01*
X152126Y280016D01*
X152127Y280020D01*
X152128Y280024D01*
X152128Y280025D01*
X152128Y280029D01*
X152129Y280033D01*
X152133Y280054D01*
X152134Y280058D01*
X152134Y280059D01*
X152135Y280063D01*
X152136Y280067D01*
X152137Y280071D01*
X152138Y280075D01*
X152138Y280076D01*
X152139Y280080D01*
X152139Y280084D01*
X152140Y280088D01*
X152144Y280109D01*
X152145Y280114D01*
X152146Y280118D01*
X152147Y280122D01*
X152148Y280126D01*
X152148Y280127D01*
X152149Y280131D01*
X152149Y280135D01*
X152150Y280139D01*
X152151Y280143D01*
X152151Y280144D01*
X152155Y280165D01*
X152156Y280169D01*
X152157Y280173D01*
X152158Y280177D01*
X152158Y280178D01*
X152159Y280182D01*
X152160Y280186D01*
X152160Y280190D01*
X152161Y280194D01*
X152161Y280195D01*
X152162Y280199D01*
X152163Y280203D01*
X152166Y280220D01*
X152167Y280224D01*
X152168Y280228D01*
X152168Y280229D01*
X152169Y280233D01*
X152170Y280237D01*
X152170Y280241D01*
X152171Y280241D01*
X152170Y280241D01*
X152171Y280245D01*
X152171Y280246D01*
X152172Y280250D01*
X152173Y280254D01*
X152174Y280258D01*
X152177Y280275D01*
X152178Y280279D01*
X152178Y280280D01*
X152179Y280284D01*
X152180Y280288D01*
X152181Y280292D01*
X152181Y280296D01*
X152181Y280297D01*
X152182Y280301D01*
X152183Y280305D01*
X152184Y280309D01*
X152185Y280313D01*
X152185Y280314D01*
X152189Y280335D01*
X152190Y280339D01*
X152191Y280343D01*
X152192Y280347D01*
X152192Y280348D01*
X152192Y280352D01*
X152193Y280356D01*
X152194Y280360D01*
X152195Y280364D01*
X152195Y280365D01*
X152196Y280369D01*
X152200Y280390D01*
X152201Y280394D01*
X152202Y280398D01*
X152202Y280399D01*
X152202Y280403D01*
X152203Y280407D01*
X152204Y280411D01*
X152205Y280415D01*
X152205Y280416D01*
X152206Y280420D01*
X152207Y280424D01*
X152211Y280445D01*
X152212Y280449D01*
X152212Y280450D01*
X152213Y280454D01*
X152213Y280458D01*
X152214Y280462D01*
X152215Y280466D01*
X152215Y280467D01*
X152216Y280471D01*
X152217Y280475D01*
X152218Y280479D01*
X152222Y280500D01*
X152223Y280505D01*
X152223Y280509D01*
X152224Y280509D01*
X152223Y280509D01*
X152224Y280513D01*
X152225Y280517D01*
X152225Y280518D01*
X152226Y280522D01*
X152227Y280526D01*
X152228Y280530D01*
X152229Y280534D01*
X152229Y280535D01*
X152233Y280556D01*
X152234Y280560D01*
X152234Y280564D01*
X152235Y280568D01*
X152235Y280569D01*
X152236Y280573D01*
X152237Y280577D01*
X152238Y280581D01*
X152239Y280585D01*
X152239Y280586D01*
X152239Y280590D01*
X152240Y280590D01*
X152239Y280590D01*
X152240Y280594D01*
X152244Y280611D01*
X152245Y280615D01*
X152245Y280619D01*
X152245Y280620D01*
X152246Y280624D01*
X152247Y280628D01*
X152248Y280632D01*
X152249Y280636D01*
X152249Y280637D01*
X152250Y280641D01*
X152250Y280645D01*
X152251Y280649D01*
X152255Y280666D01*
X152255Y280670D01*
X152255Y280671D01*
X152256Y280675D01*
X152257Y280679D01*
X152258Y280683D01*
X152259Y280687D01*
X152259Y280688D01*
X152260Y280692D01*
X152261Y280696D01*
X152261Y280700D01*
X152262Y280704D01*
X152262Y280705D01*
X152266Y280726D01*
X152267Y280730D01*
X152268Y280734D01*
X152269Y280738D01*
X152269Y280739D01*
X152270Y280743D01*
X152271Y280747D01*
X152271Y280751D01*
X152272Y280755D01*
X152272Y280756D01*
X152273Y280760D01*
X152277Y280781D01*
X152278Y280785D01*
X152279Y280789D01*
X152279Y280790D01*
X152280Y280794D01*
X152281Y280798D01*
X152282Y280802D01*
X152282Y280806D01*
X152282Y280807D01*
X152283Y280811D01*
X152284Y280815D01*
X152288Y280836D01*
X152289Y280840D01*
X152289Y280841D01*
X152290Y280845D01*
X152291Y280849D01*
X152292Y280853D01*
X152292Y280857D01*
X152293Y280857D01*
X152292Y280858D01*
X152293Y280862D01*
X152294Y280866D01*
X152295Y280870D01*
X152299Y280891D01*
X152299Y280892D01*
X152300Y280896D01*
X152301Y280900D01*
X152302Y280904D01*
X152303Y280908D01*
X152303Y280909D01*
X152303Y280913D01*
X152304Y280917D01*
X152305Y280921D01*
X152306Y280925D01*
X152306Y280926D01*
X152310Y280947D01*
X152311Y280951D01*
X152312Y280955D01*
X152313Y280959D01*
X152313Y280960D01*
X152314Y280964D01*
X152314Y280968D01*
X152315Y280972D01*
X152316Y280976D01*
X152316Y280977D01*
X152317Y280981D01*
X152321Y281002D01*
X152322Y281006D01*
X152323Y281010D01*
X152323Y281011D01*
X152324Y281015D01*
X152324Y281019D01*
X152325Y281023D01*
X152326Y281027D01*
X152326Y281028D01*
X152327Y281032D01*
X152328Y281036D01*
X152329Y281040D01*
X152332Y281057D01*
X152333Y281061D01*
X152333Y281062D01*
X152334Y281066D01*
X152335Y281070D01*
X152335Y281074D01*
X152336Y281078D01*
X152336Y281079D01*
X152337Y281083D01*
X152338Y281087D01*
X152339Y281091D01*
X152340Y281095D01*
X152340Y281096D01*
X152343Y281112D01*
X152344Y281117D01*
X152345Y281121D01*
X152345Y281125D01*
X152346Y281125D01*
X152345Y281125D01*
X152346Y281129D01*
X152346Y281130D01*
X152347Y281134D01*
X152348Y281138D01*
X152349Y281142D01*
X152350Y281146D01*
X152350Y281147D01*
X152351Y281151D01*
X152355Y281172D01*
X152356Y281176D01*
X152356Y281180D01*
X152356Y281181D01*
X152357Y281185D01*
X152358Y281189D01*
X152359Y281193D01*
X152360Y281197D01*
X152360Y281198D01*
X152361Y281202D01*
X152361Y281206D01*
X152362Y281206D01*
X152361Y281206D01*
X152366Y281227D01*
X152367Y281231D01*
X152367Y281232D01*
X152367Y281236D01*
X152368Y281240D01*
X152369Y281244D01*
X152370Y281248D01*
X152370Y281249D01*
X152371Y281253D01*
X152372Y281257D01*
X152372Y281261D01*
X152377Y281282D01*
X152377Y281283D01*
X152377Y281287D01*
X152378Y281291D01*
X152379Y281295D01*
X152380Y281299D01*
X152380Y281300D01*
X152381Y281304D01*
X152382Y281308D01*
X152383Y281312D01*
X152383Y281316D01*
X152383Y281317D01*
X152388Y281338D01*
X152388Y281342D01*
X152389Y281346D01*
X152390Y281350D01*
X152390Y281351D01*
X152391Y281355D01*
X152392Y281359D01*
X152393Y281363D01*
X152393Y281367D01*
X152393Y281368D01*
X152394Y281372D01*
X152398Y281393D01*
X152399Y281393D01*
X152399Y281397D01*
X152400Y281401D01*
X152400Y281402D01*
X152401Y281406D01*
X152402Y281410D01*
X152403Y281414D01*
X152404Y281418D01*
X152404Y281419D01*
X152404Y281423D01*
X152405Y281427D01*
X152406Y281431D01*
X152409Y281448D01*
X152410Y281452D01*
X152410Y281453D01*
X152411Y281457D01*
X152412Y281461D01*
X152413Y281465D01*
X152414Y281469D01*
X152414Y281470D01*
X152414Y281474D01*
X152415Y281474D01*
X152414Y281474D01*
X152415Y281478D01*
X152416Y281482D01*
X152417Y281486D01*
X152417Y281487D01*
X152420Y281503D01*
X152421Y281508D01*
X152422Y281512D01*
X152423Y281516D01*
X152424Y281520D01*
X152424Y281521D01*
X152425Y281525D01*
X152425Y281529D01*
X152426Y281533D01*
X152427Y281537D01*
X152427Y281538D01*
X152428Y281542D01*
X152432Y281563D01*
X152433Y281567D01*
X152434Y281571D01*
X152434Y281572D01*
X152435Y281576D01*
X152436Y281580D01*
X152436Y281584D01*
X152437Y281588D01*
X152437Y281589D01*
X152438Y281593D01*
X152439Y281597D01*
X152443Y281618D01*
X152444Y281622D01*
X152444Y281623D01*
X152445Y281627D01*
X152446Y281631D01*
X152446Y281635D01*
X152447Y281639D01*
X152447Y281640D01*
X152448Y281644D01*
X152449Y281648D01*
X152450Y281652D01*
X152454Y281673D01*
X152454Y281674D01*
X152455Y281678D01*
X152456Y281682D01*
X152457Y281686D01*
X152457Y281690D01*
X152457Y281691D01*
X152458Y281695D01*
X152459Y281699D01*
X152460Y281703D01*
X152461Y281707D01*
X152461Y281708D01*
X152465Y281729D01*
X152466Y281733D01*
X152467Y281737D01*
X152467Y281741D01*
X152468Y281741D01*
X152467Y281742D01*
X152468Y281746D01*
X152469Y281750D01*
X152470Y281754D01*
X152471Y281758D01*
X152471Y281759D01*
X152472Y281763D01*
X152476Y281784D01*
X152477Y281788D01*
X152478Y281792D01*
X152478Y281793D01*
X152478Y281797D01*
X152479Y281801D01*
X152480Y281805D01*
X152481Y281809D01*
X152481Y281810D01*
X152482Y281814D01*
X152483Y281818D01*
X152487Y281839D01*
X152488Y281843D01*
X152488Y281844D01*
X152489Y281848D01*
X152489Y281852D01*
X152490Y281856D01*
X152491Y281860D01*
X152491Y281861D01*
X152492Y281865D01*
X152493Y281869D01*
X152494Y281873D01*
X152494Y281877D01*
X152494Y281878D01*
X152498Y281894D01*
X152499Y281899D01*
X152499Y281903D01*
X152500Y281907D01*
X152501Y281911D01*
X152501Y281912D01*
X152502Y281916D01*
X152503Y281920D01*
X152504Y281924D01*
X152505Y281928D01*
X152505Y281929D01*
X152505Y281933D01*
X152509Y281950D01*
X152510Y281954D01*
X152510Y281958D01*
X152511Y281962D01*
X152511Y281963D01*
X152512Y281967D01*
X152513Y281971D01*
X152514Y281975D01*
X152515Y281979D01*
X152515Y281980D01*
X152515Y281984D01*
X152516Y281988D01*
X152520Y282009D01*
X152521Y282009D01*
X152521Y282013D01*
X152521Y282014D01*
X152522Y282018D01*
X152523Y282022D01*
X152524Y282026D01*
X152525Y282030D01*
X152525Y282031D01*
X152526Y282035D01*
X152526Y282039D01*
X152527Y282043D01*
X152531Y282064D01*
X152531Y282065D01*
X152532Y282069D01*
X152533Y282073D01*
X152534Y282077D01*
X152535Y282081D01*
X152535Y282082D01*
X152536Y282086D01*
X152536Y282090D01*
X152537Y282090D01*
X152536Y282090D01*
X152537Y282094D01*
X152538Y282098D01*
X152538Y282099D01*
X152542Y282120D01*
X152543Y282124D01*
X152544Y282128D01*
X152545Y282132D01*
X152545Y282133D01*
X152546Y282137D01*
X152547Y282141D01*
X152547Y282145D01*
X152548Y282149D01*
X152548Y282150D01*
X152549Y282154D01*
X152553Y282175D01*
X152554Y282179D01*
X152555Y282183D01*
X152555Y282184D01*
X152556Y282188D01*
X152557Y282192D01*
X152558Y282196D01*
X152558Y282200D01*
X152558Y282201D01*
X152559Y282205D01*
X152560Y282209D01*
X152564Y282230D01*
X152565Y282234D01*
X152565Y282235D01*
X152566Y282239D01*
X152567Y282243D01*
X152568Y282247D01*
X152568Y282251D01*
X152568Y282252D01*
X152569Y282256D01*
X152570Y282260D01*
X152571Y282264D01*
X152572Y282268D01*
X152572Y282269D01*
X152575Y282285D01*
X152576Y282290D01*
X152577Y282294D01*
X152578Y282298D01*
X152579Y282302D01*
X152579Y282303D01*
X152579Y282307D01*
X152580Y282311D01*
X152581Y282315D01*
X152582Y282319D01*
X152582Y282320D01*
X152583Y282324D01*
X152586Y282341D01*
X152587Y282345D01*
X152588Y282349D01*
X152589Y282353D01*
X152589Y282354D01*
X152589Y282358D01*
X152590Y282358D01*
X152589Y282358D01*
X152590Y282362D01*
X152591Y282366D01*
X152592Y282370D01*
X152592Y282371D01*
X152593Y282375D01*
X152594Y282379D01*
X152598Y282400D01*
X152599Y282404D01*
X152599Y282405D01*
X152600Y282409D01*
X152600Y282413D01*
X152601Y282417D01*
X152602Y282421D01*
X152602Y282422D01*
X152603Y282426D01*
X152604Y282430D01*
X152605Y282434D01*
X152609Y282455D01*
X152609Y282456D01*
X152610Y282460D01*
X152611Y282464D01*
X152611Y282468D01*
X152612Y282472D01*
X152612Y282473D01*
X152613Y282477D01*
X152614Y282481D01*
X152615Y282485D01*
X152616Y282489D01*
X152616Y282490D01*
X152620Y282511D01*
X152621Y282515D01*
X152621Y282519D01*
X152622Y282523D01*
X152622Y282524D01*
X152623Y282528D01*
X152624Y282532D01*
X152625Y282536D01*
X152626Y282540D01*
X152626Y282541D01*
X152627Y282545D01*
X152631Y282566D01*
X152632Y282570D01*
X152632Y282574D01*
X152632Y282575D01*
X152633Y282579D01*
X152634Y282583D01*
X152635Y282587D01*
X152636Y282591D01*
X152636Y282592D01*
X152637Y282596D01*
X152637Y282600D01*
X152642Y282621D01*
X152642Y282625D01*
X152643Y282625D01*
X152643Y282626D01*
X152643Y282630D01*
X152644Y282634D01*
X152645Y282638D01*
X152646Y282642D01*
X152646Y282643D01*
X152647Y282647D01*
X152648Y282651D01*
X152648Y282655D01*
X152653Y282676D01*
X152653Y282681D01*
X152654Y282685D01*
X152655Y282689D01*
X152656Y282693D01*
X152656Y282694D01*
X152657Y282698D01*
X152658Y282702D01*
X152658Y282706D01*
X152659Y282706D01*
X152658Y282706D01*
X152659Y282710D01*
X152659Y282711D01*
X152660Y282715D01*
X152664Y282732D01*
X152664Y282736D01*
X152665Y282740D01*
X152666Y282744D01*
X152666Y282745D01*
X152667Y282749D01*
X152668Y282753D01*
X152669Y282757D01*
X152669Y282761D01*
X152669Y282762D01*
X152670Y282766D01*
X152671Y282770D01*
X152674Y282787D01*
X152675Y282791D01*
X152676Y282795D01*
X152676Y282796D01*
X152677Y282800D01*
X152678Y282804D01*
X152679Y282808D01*
X152680Y282812D01*
X152680Y282813D01*
X152680Y282817D01*
X152681Y282821D01*
X152682Y282825D01*
X152686Y282846D01*
X152686Y282847D01*
X152687Y282851D01*
X152688Y282855D01*
X152689Y282859D01*
X152690Y282863D01*
X152690Y282864D01*
X152690Y282868D01*
X152691Y282872D01*
X152692Y282876D01*
X152693Y282880D01*
X152693Y282881D01*
X152697Y282902D01*
X152698Y282906D01*
X152699Y282910D01*
X152700Y282914D01*
X152700Y282915D01*
X152701Y282919D01*
X152701Y282923D01*
X152702Y282927D01*
X152703Y282931D01*
X152703Y282932D01*
X152704Y282936D01*
X152708Y282957D01*
X152709Y282961D01*
X152710Y282965D01*
X152710Y282966D01*
X152711Y282970D01*
X152711Y282974D01*
X152712Y282974D01*
X152711Y282974D01*
X152712Y282978D01*
X152713Y282982D01*
X152713Y282983D01*
X152714Y282987D01*
X152715Y282991D01*
X152719Y283012D01*
X152720Y283016D01*
X152720Y283017D01*
X152721Y283021D01*
X152722Y283025D01*
X152722Y283029D01*
X152723Y283033D01*
X152723Y283034D01*
X152724Y283038D01*
X152725Y283042D01*
X152726Y283046D01*
X152730Y283067D01*
X152731Y283072D01*
X152732Y283076D01*
X152733Y283080D01*
X152733Y283084D01*
X152733Y283085D01*
X152734Y283089D01*
X152735Y283093D01*
X152736Y283097D01*
X152737Y283101D01*
X152737Y283102D01*
X152738Y283106D01*
X152741Y283123D01*
X152742Y283127D01*
X152743Y283131D01*
X152743Y283135D01*
X152743Y283136D01*
X152744Y283140D01*
X152745Y283144D01*
X152746Y283148D01*
X152747Y283152D01*
X152747Y283153D01*
X152748Y283157D01*
X152749Y283161D01*
X152752Y283178D01*
X152753Y283182D01*
X152754Y283186D01*
X152754Y283187D01*
X152754Y283191D01*
X152755Y283195D01*
X152756Y283199D01*
X152757Y283203D01*
X152757Y283204D01*
X152758Y283208D01*
X152759Y283212D01*
X152759Y283216D01*
X152764Y283237D01*
X152764Y283238D01*
X152764Y283242D01*
X152765Y283242D01*
X152764Y283242D01*
X152765Y283246D01*
X152766Y283250D01*
X152767Y283254D01*
X152767Y283255D01*
X152768Y283259D01*
X152769Y283263D01*
X152770Y283267D01*
X152770Y283271D01*
X152770Y283272D01*
X152775Y283293D01*
X152775Y283297D01*
X152776Y283301D01*
X152777Y283305D01*
X152777Y283306D01*
X152778Y283310D01*
X152779Y283314D01*
X152780Y283318D01*
X152780Y283322D01*
X152781Y283322D01*
X152780Y283323D01*
X152781Y283327D01*
X152786Y283348D01*
X152786Y283352D01*
X152787Y283356D01*
X152787Y283357D01*
X152788Y283361D01*
X152789Y283365D01*
X152790Y283369D01*
X152791Y283373D01*
X152791Y283374D01*
X152791Y283378D01*
X152792Y283382D01*
X152796Y283403D01*
X152797Y283407D01*
X152797Y283408D01*
X152798Y283412D01*
X152799Y283416D01*
X152800Y283420D01*
X152801Y283424D01*
X152801Y283425D01*
X152802Y283429D01*
X152802Y283433D01*
X152803Y283437D01*
X152807Y283458D01*
X152808Y283463D01*
X152809Y283467D01*
X152810Y283471D01*
X152811Y283475D01*
X152811Y283476D01*
X152812Y283480D01*
X152812Y283484D01*
X152813Y283488D01*
X152814Y283492D01*
X152814Y283493D01*
X152818Y283514D01*
X152819Y283518D01*
X152820Y283522D01*
X152821Y283526D01*
X152821Y283527D01*
X152822Y283531D01*
X152823Y283535D01*
X152823Y283539D01*
X152824Y283543D01*
X152824Y283544D01*
X152825Y283548D01*
X152826Y283552D01*
X152829Y283569D01*
X152830Y283573D01*
X152831Y283577D01*
X152831Y283578D01*
X152832Y283582D01*
X152833Y283586D01*
X152833Y283590D01*
X152834Y283590D01*
X152833Y283590D01*
X152834Y283594D01*
X152834Y283595D01*
X152835Y283599D01*
X152836Y283603D01*
X152837Y283607D01*
X152840Y283624D01*
X152841Y283628D01*
X152841Y283629D01*
X152842Y283633D01*
X152843Y283637D01*
X152844Y283641D01*
X152844Y283645D01*
X152844Y283646D01*
X152845Y283650D01*
X152846Y283654D01*
X152847Y283658D01*
X152848Y283662D01*
X152848Y283663D01*
X152852Y283684D01*
X152853Y283688D01*
X152854Y283692D01*
X152855Y283696D01*
X152855Y283697D01*
X152855Y283701D01*
X152856Y283705D01*
X152857Y283709D01*
X152858Y283713D01*
X152858Y283714D01*
X152859Y283718D01*
X152863Y283739D01*
X152864Y283743D01*
X152865Y283747D01*
X152865Y283748D01*
X152865Y283752D01*
X152866Y283756D01*
X152867Y283760D01*
X152868Y283764D01*
X152868Y283765D01*
X152869Y283769D01*
X152870Y283773D01*
X152874Y283794D01*
X152875Y283798D01*
X152875Y283799D01*
X152876Y283803D01*
X152876Y283807D01*
X152877Y283811D01*
X152878Y283815D01*
X152878Y283816D01*
X152879Y283820D01*
X152880Y283824D01*
X152881Y283828D01*
X152885Y283849D01*
X152886Y283854D01*
X152886Y283858D01*
X152887Y283858D01*
X152886Y283858D01*
X152887Y283862D01*
X152888Y283866D01*
X152888Y283867D01*
X152889Y283871D01*
X152890Y283875D01*
X152891Y283879D01*
X152892Y283883D01*
X152892Y283884D01*
X152896Y283905D01*
X152897Y283909D01*
X152897Y283913D01*
X152898Y283917D01*
X152898Y283918D01*
X152899Y283922D01*
X152900Y283926D01*
X152901Y283930D01*
X152902Y283934D01*
X152902Y283935D01*
X152902Y283939D01*
X152903Y283939D01*
X152902Y283939D01*
X152903Y283943D01*
X152907Y283960D01*
X152908Y283964D01*
X152908Y283968D01*
X152908Y283969D01*
X152909Y283973D01*
X152910Y283977D01*
X152911Y283981D01*
X152912Y283985D01*
X152912Y283986D01*
X152913Y283990D01*
X152913Y283994D01*
X152914Y283998D01*
X152918Y284015D01*
X152918Y284019D01*
X152918Y284020D01*
X152919Y284024D01*
X152920Y284028D01*
X152921Y284032D01*
X152922Y284036D01*
X152922Y284037D01*
X152923Y284041D01*
X152924Y284045D01*
X152924Y284049D01*
X152925Y284053D01*
X152925Y284054D01*
X152929Y284075D01*
X152930Y284079D01*
X152931Y284083D01*
X152932Y284087D01*
X152932Y284088D01*
X152933Y284092D01*
X152934Y284096D01*
X152934Y284100D01*
X152935Y284104D01*
X152935Y284105D01*
X152936Y284109D01*
X152940Y284130D01*
X152941Y284134D01*
X152942Y284138D01*
X152942Y284139D01*
X152943Y284143D01*
X152944Y284147D01*
X152945Y284151D01*
X152945Y284155D01*
X152945Y284156D01*
X152946Y284160D01*
X152947Y284164D01*
X152951Y284185D01*
X152952Y284189D01*
X152952Y284190D01*
X152953Y284194D01*
X152954Y284198D01*
X152955Y284202D01*
X152955Y284206D01*
X152956Y284206D01*
X152955Y284207D01*
X152956Y284211D01*
X152957Y284215D01*
X152958Y284219D01*
X152962Y284240D01*
X152962Y284241D01*
X152963Y284245D01*
X152964Y284249D01*
X152965Y284253D01*
X152966Y284257D01*
X152966Y284258D01*
X152966Y284262D01*
X152967Y284266D01*
X152968Y284270D01*
X152969Y284274D01*
X152969Y284275D01*
X152973Y284296D01*
X152974Y284300D01*
X152975Y284304D01*
X152976Y284308D01*
X152976Y284309D01*
X152977Y284313D01*
X152977Y284317D01*
X152978Y284321D01*
X152979Y284325D01*
X152979Y284326D01*
X152980Y284330D01*
X152984Y284351D01*
X152985Y284355D01*
X152986Y284359D01*
X152986Y284360D01*
X152987Y284364D01*
X152987Y284368D01*
X152988Y284372D01*
X152989Y284376D01*
X152989Y284377D01*
X152990Y284381D01*
X152991Y284385D01*
X152992Y284389D01*
X152995Y284406D01*
X152996Y284410D01*
X152996Y284411D01*
X152997Y284415D01*
X152998Y284419D01*
X152998Y284423D01*
X152999Y284427D01*
X152999Y284428D01*
X153000Y284432D01*
X153001Y284436D01*
X153002Y284440D01*
X153003Y284444D01*
X153003Y284445D01*
X153006Y284461D01*
X153007Y284466D01*
X153008Y284470D01*
X153008Y284474D01*
X153009Y284474D01*
X153008Y284474D01*
X153009Y284478D01*
X153009Y284479D01*
X153010Y284483D01*
X153011Y284487D01*
X153012Y284491D01*
X153013Y284495D01*
X153013Y284496D01*
X153014Y284500D01*
X153018Y284521D01*
X153019Y284525D01*
X153019Y284529D01*
X153019Y284530D01*
X153020Y284534D01*
X153021Y284538D01*
X153022Y284542D01*
X153023Y284546D01*
X153023Y284547D01*
X153024Y284551D01*
X153024Y284555D01*
X153025Y284555D01*
X153024Y284555D01*
X153029Y284576D01*
X153030Y284580D01*
X153030Y284581D01*
X153030Y284585D01*
X153031Y284589D01*
X153032Y284593D01*
X153033Y284597D01*
X153033Y284598D01*
X153034Y284602D01*
X153035Y284606D01*
X153035Y284610D01*
X153040Y284631D01*
X153040Y284632D01*
X153040Y284636D01*
X153041Y284640D01*
X153042Y284644D01*
X153043Y284648D01*
X153043Y284649D01*
X153044Y284653D01*
X153045Y284657D01*
X153046Y284661D01*
X153046Y284665D01*
X153046Y284666D01*
X153051Y284687D01*
X153051Y284691D01*
X153052Y284695D01*
X153053Y284699D01*
X153053Y284700D01*
X153054Y284704D01*
X153055Y284708D01*
X153056Y284712D01*
X153056Y284716D01*
X153056Y284717D01*
X153057Y284721D01*
X153061Y284742D01*
X153062Y284742D01*
X153062Y284746D01*
X153063Y284750D01*
X153063Y284751D01*
X153064Y284755D01*
X153065Y284759D01*
X153066Y284763D01*
X153067Y284767D01*
X153067Y284768D01*
X153067Y284772D01*
X153068Y284776D01*
X153069Y284780D01*
X153072Y284797D01*
X153073Y284801D01*
X153073Y284802D01*
X153074Y284806D01*
X153075Y284810D01*
X153076Y284814D01*
X153077Y284818D01*
X153077Y284819D01*
X153077Y284823D01*
X153078Y284823D01*
X153077Y284823D01*
X153078Y284827D01*
X153079Y284831D01*
X153080Y284835D01*
X153080Y284836D01*
X153083Y284852D01*
X153084Y284857D01*
X153085Y284861D01*
X153086Y284865D01*
X153087Y284869D01*
X153087Y284870D01*
X153088Y284874D01*
X153088Y284878D01*
X153089Y284882D01*
X153090Y284886D01*
X153090Y284887D01*
X153091Y284891D01*
X153095Y284912D01*
X153096Y284916D01*
X153097Y284920D01*
X153097Y284921D01*
X153098Y284925D01*
X153099Y284929D01*
X153099Y284933D01*
X153100Y284937D01*
X153100Y284938D01*
X153101Y284942D01*
X153102Y284946D01*
X153106Y284967D01*
X153107Y284971D01*
X153107Y284972D01*
X153108Y284976D01*
X153109Y284980D01*
X153109Y284984D01*
X153110Y284988D01*
X153110Y284989D01*
X153111Y284993D01*
X153112Y284997D01*
X153113Y285001D01*
X153117Y285022D01*
X153117Y285023D01*
X153118Y285027D01*
X153119Y285031D01*
X153120Y285035D01*
X153120Y285039D01*
X153120Y285040D01*
X153121Y285044D01*
X153122Y285048D01*
X153123Y285052D01*
X153124Y285056D01*
X153124Y285057D01*
X153128Y285078D01*
X153129Y285082D01*
X153130Y285086D01*
X153130Y285090D01*
X153131Y285090D01*
X153130Y285091D01*
X153131Y285095D01*
X153132Y285099D01*
X153133Y285103D01*
X153134Y285107D01*
X153134Y285108D01*
X153135Y285112D01*
X153139Y285133D01*
X153140Y285137D01*
X153141Y285141D01*
X153141Y285142D01*
X153141Y285146D01*
X153142Y285150D01*
X153143Y285154D01*
X153144Y285158D01*
X153144Y285159D01*
X153145Y285163D01*
X153146Y285167D01*
X153150Y285188D01*
X153151Y285192D01*
X153151Y285193D01*
X153152Y285197D01*
X153152Y285201D01*
X153153Y285205D01*
X153154Y285209D01*
X153154Y285210D01*
X153155Y285214D01*
X153156Y285218D01*
X153157Y285222D01*
X153157Y285226D01*
X153157Y285227D01*
X153161Y285243D01*
X153162Y285248D01*
X153162Y285252D01*
X153163Y285256D01*
X153164Y285260D01*
X153164Y285261D01*
X153165Y285265D01*
X153166Y285269D01*
X153167Y285273D01*
X153168Y285277D01*
X153168Y285278D01*
X153168Y285282D01*
X153172Y285299D01*
X153173Y285303D01*
X153173Y285307D01*
X153174Y285311D01*
X153174Y285312D01*
X153175Y285316D01*
X153176Y285320D01*
X153177Y285324D01*
X153178Y285328D01*
X153178Y285329D01*
X153178Y285333D01*
X153179Y285337D01*
X153183Y285358D01*
X153184Y285358D01*
X153184Y285362D01*
X153184Y285363D01*
X153185Y285367D01*
X153186Y285371D01*
X153187Y285375D01*
X153188Y285379D01*
X153188Y285380D01*
X153189Y285384D01*
X153189Y285388D01*
X153190Y285392D01*
X153194Y285413D01*
X153194Y285414D01*
X153195Y285418D01*
X153196Y285422D01*
X153197Y285426D01*
X153198Y285430D01*
X153198Y285431D01*
X153199Y285435D01*
X153199Y285439D01*
X153200Y285439D01*
X153199Y285439D01*
X153200Y285443D01*
X153201Y285447D01*
X153201Y285448D01*
X153205Y285469D01*
X153206Y285473D01*
X153207Y285477D01*
X153208Y285481D01*
X153208Y285482D01*
X153209Y285486D01*
X153210Y285490D01*
X153210Y285494D01*
X153211Y285498D01*
X153211Y285499D01*
X153212Y285503D01*
X153216Y285524D01*
X153217Y285528D01*
X153218Y285532D01*
X153218Y285533D01*
X153219Y285537D01*
X153220Y285541D01*
X153221Y285545D01*
X153221Y285549D01*
X153221Y285550D01*
X153222Y285554D01*
X153223Y285558D01*
X153227Y285579D01*
X153228Y285583D01*
X153228Y285584D01*
X153229Y285588D01*
X153230Y285592D01*
X153231Y285596D01*
X153231Y285600D01*
X153231Y285601D01*
X153232Y285605D01*
X153233Y285609D01*
X153234Y285613D01*
X153235Y285617D01*
X153235Y285618D01*
X153238Y285634D01*
X153239Y285639D01*
X153240Y285643D01*
X153241Y285647D01*
X153242Y285651D01*
X153242Y285652D01*
X153242Y285656D01*
X153243Y285660D01*
X153244Y285664D01*
X153245Y285668D01*
X153245Y285669D01*
X153246Y285673D01*
X153249Y285690D01*
X153250Y285694D01*
X153251Y285698D01*
X153252Y285702D01*
X153252Y285703D01*
X153252Y285707D01*
X153253Y285707D01*
X153252Y285707D01*
X153253Y285711D01*
X153254Y285715D01*
X153255Y285719D01*
X153255Y285720D01*
X153256Y285724D01*
X153257Y285728D01*
X153261Y285749D01*
X153262Y285753D01*
X153262Y285754D01*
X153263Y285758D01*
X153263Y285762D01*
X153264Y285766D01*
X153265Y285770D01*
X153265Y285771D01*
X153266Y285775D01*
X153267Y285779D01*
X153268Y285783D01*
X153272Y285804D01*
X153272Y285805D01*
X153273Y285809D01*
X153274Y285813D01*
X153274Y285817D01*
X153275Y285821D01*
X153275Y285822D01*
X153276Y285826D01*
X153277Y285830D01*
X153278Y285834D01*
X153279Y285838D01*
X153279Y285839D01*
X153283Y285860D01*
X153284Y285864D01*
X153284Y285868D01*
X153285Y285872D01*
X153285Y285873D01*
X153286Y285877D01*
X153287Y285881D01*
X153288Y285885D01*
X153289Y285889D01*
X153289Y285890D01*
X153290Y285894D01*
X153294Y285915D01*
X153295Y285919D01*
X153295Y285923D01*
X153295Y285924D01*
X153296Y285928D01*
X153297Y285932D01*
X153298Y285936D01*
X153299Y285940D01*
X153299Y285941D01*
X153300Y285945D01*
X153300Y285949D01*
X153305Y285970D01*
X153305Y285974D01*
X153306Y285974D01*
X153306Y285975D01*
X153306Y285979D01*
X153307Y285983D01*
X153308Y285987D01*
X153309Y285991D01*
X153309Y285992D01*
X153310Y285996D01*
X153311Y286000D01*
X153311Y286004D01*
X153316Y286025D01*
X153316Y286030D01*
X153317Y286034D01*
X153318Y286038D01*
X153319Y286042D01*
X153319Y286043D01*
X153320Y286047D01*
X153321Y286051D01*
X153321Y286055D01*
X153322Y286055D01*
X153321Y286055D01*
X153322Y286059D01*
X153322Y286060D01*
X153323Y286064D01*
X153327Y286081D01*
X153327Y286085D01*
X153328Y286089D01*
X153329Y286093D01*
X153329Y286094D01*
X153330Y286098D01*
X153331Y286102D01*
X153332Y286106D01*
X153332Y286110D01*
X153332Y286111D01*
X153333Y286115D01*
X153334Y286119D01*
X153337Y286136D01*
X153338Y286140D01*
X153339Y286144D01*
X153339Y286145D01*
X153340Y286149D01*
X153341Y286153D01*
X153342Y286157D01*
X153343Y286161D01*
X153343Y286162D01*
X153343Y286166D01*
X153344Y286170D01*
X153345Y286174D01*
X153349Y286195D01*
X153349Y286196D01*
X153350Y286200D01*
X153351Y286204D01*
X153352Y286208D01*
X153353Y286212D01*
X153353Y286213D01*
X153353Y286217D01*
X153354Y286221D01*
X153355Y286225D01*
X153356Y286229D01*
X153356Y286230D01*
X153360Y286251D01*
X153361Y286255D01*
X153362Y286259D01*
X153363Y286263D01*
X153363Y286264D01*
X153364Y286268D01*
X153364Y286272D01*
X153365Y286276D01*
X153366Y286280D01*
X153366Y286281D01*
X153367Y286285D01*
X153371Y286306D01*
X153372Y286310D01*
X153373Y286314D01*
X153373Y286315D01*
X153374Y286319D01*
X153374Y286323D01*
X153375Y286323D01*
X153374Y286323D01*
X153375Y286327D01*
X153376Y286331D01*
X153376Y286332D01*
X153377Y286336D01*
X153378Y286340D01*
X153382Y286361D01*
X153383Y286365D01*
X153383Y286366D01*
X153384Y286370D01*
X153385Y286374D01*
X153385Y286378D01*
X153386Y286382D01*
X153386Y286383D01*
X153387Y286387D01*
X153388Y286391D01*
X153389Y286395D01*
X153393Y286416D01*
X153394Y286421D01*
X153395Y286425D01*
X153396Y286429D01*
X153396Y286433D01*
X153396Y286434D01*
X153397Y286438D01*
X153398Y286442D01*
X153399Y286446D01*
X153400Y286450D01*
X153400Y286451D01*
X153401Y286455D01*
X153404Y286472D01*
X153405Y286476D01*
X153406Y286480D01*
X153406Y286484D01*
X153406Y286485D01*
X153407Y286489D01*
X153408Y286493D01*
X153409Y286497D01*
X153410Y286501D01*
X153410Y286502D01*
X153411Y286506D01*
X153412Y286510D01*
X153415Y286527D01*
X153416Y286531D01*
X153417Y286535D01*
X153417Y286536D01*
X153417Y286540D01*
X153418Y286544D01*
X153419Y286548D01*
X153420Y286552D01*
X153420Y286553D01*
X153421Y286557D01*
X153422Y286561D01*
X153422Y286565D01*
X153427Y286586D01*
X153427Y286587D01*
X153427Y286591D01*
X153428Y286591D01*
X153427Y286591D01*
X153428Y286595D01*
X153429Y286599D01*
X153429Y286600D01*
X153428Y286600D01*
X153426Y286604D01*
X153425Y286604D01*
X149725Y286504D01*
X149722Y286501D01*
X149721Y286501D01*
X147223Y273411D01*
X141029Y282802D01*
X141028Y282803D01*
X140628Y283103D01*
X140627Y283103D01*
X140626Y283104D01*
X139926Y283304D01*
X139925Y283304D01*
X139924Y283304D01*
X139124Y283104D01*
X139123Y283103D01*
X139122Y283103D01*
X138522Y282603D01*
X138522Y282602D01*
X138521Y282602D01*
X132727Y273211D01*
X129929Y286601D01*
X129926Y286604D01*
X129925Y286604D01*
X126325Y286604D01*
X126324Y286604D01*
X126321Y286601D01*
X126321Y286600D01*
X126321Y286599D01*
X130021Y266899D01*
X130022Y266898D01*
X130022Y266897D01*
X130322Y266597D01*
X130722Y266297D01*
X130723Y266297D01*
X130723Y266296D01*
X131123Y266096D01*
X131124Y266096D01*
X131524Y265996D01*
X131525Y265996D01*
X131526Y265996D01*
X132526Y266196D01*
X132527Y266198D01*
X132529Y266198D01*
X139725Y277892D01*
X146821Y266698D01*
X146822Y266698D01*
X146822Y266697D01*
X147122Y266297D01*
X147123Y266297D01*
X147123Y266296D01*
X147823Y265996D01*
X147824Y265996D01*
X147825Y265996D01*
X148825Y265996D01*
X148827Y265997D01*
G37*
G36*
X159529Y266199D02*
X159529Y266199D01*
X159529Y266200D01*
X159429Y271196D01*
X172421Y271196D01*
X172421Y266300D01*
X172424Y266296D01*
X172425Y266296D01*
X176125Y266296D01*
X176129Y266299D01*
X176129Y266300D01*
X176129Y274900D01*
X176126Y274904D01*
X176125Y274904D01*
X159529Y274904D01*
X159529Y276900D01*
X159532Y276914D01*
X159533Y276918D01*
X159536Y276935D01*
X159537Y276939D01*
X159541Y276956D01*
X159541Y276960D01*
X159541Y276961D01*
X159545Y276977D01*
X159545Y276978D01*
X159546Y276982D01*
X159549Y276999D01*
X159550Y277003D01*
X159553Y277020D01*
X159554Y277024D01*
X159558Y277041D01*
X159558Y277045D01*
X159558Y277046D01*
X159562Y277062D01*
X159562Y277063D01*
X159563Y277067D01*
X159566Y277084D01*
X159567Y277088D01*
X159570Y277105D01*
X159571Y277109D01*
X159575Y277126D01*
X159575Y277130D01*
X159575Y277131D01*
X159579Y277147D01*
X159579Y277148D01*
X159580Y277152D01*
X159583Y277169D01*
X159584Y277173D01*
X159587Y277190D01*
X159588Y277194D01*
X159592Y277211D01*
X159592Y277215D01*
X159592Y277216D01*
X159596Y277232D01*
X159596Y277233D01*
X159597Y277237D01*
X159600Y277254D01*
X159601Y277258D01*
X159604Y277275D01*
X159605Y277279D01*
X159609Y277296D01*
X159609Y277300D01*
X159609Y277301D01*
X159613Y277317D01*
X159613Y277318D01*
X159614Y277322D01*
X159617Y277339D01*
X159618Y277343D01*
X159621Y277360D01*
X159622Y277364D01*
X159626Y277381D01*
X159626Y277385D01*
X159626Y277386D01*
X159630Y277402D01*
X159630Y277403D01*
X159631Y277407D01*
X159634Y277424D01*
X159635Y277428D01*
X159638Y277445D01*
X159639Y277449D01*
X159643Y277466D01*
X159643Y277470D01*
X159643Y277471D01*
X159647Y277487D01*
X159647Y277488D01*
X159648Y277492D01*
X159651Y277509D01*
X159652Y277513D01*
X159655Y277530D01*
X159656Y277534D01*
X159660Y277551D01*
X159660Y277555D01*
X159660Y277556D01*
X159664Y277572D01*
X159664Y277573D01*
X159665Y277577D01*
X159668Y277594D01*
X159669Y277598D01*
X159672Y277615D01*
X159673Y277619D01*
X159677Y277636D01*
X159677Y277640D01*
X159677Y277641D01*
X159681Y277657D01*
X159681Y277658D01*
X159682Y277662D01*
X159685Y277679D01*
X159686Y277683D01*
X159689Y277700D01*
X159690Y277704D01*
X159694Y277721D01*
X159694Y277725D01*
X159694Y277726D01*
X159698Y277742D01*
X159698Y277743D01*
X159699Y277747D01*
X159702Y277764D01*
X159703Y277768D01*
X159706Y277785D01*
X159707Y277789D01*
X159711Y277806D01*
X159711Y277810D01*
X159711Y277811D01*
X159715Y277827D01*
X159715Y277828D01*
X159716Y277832D01*
X159719Y277849D01*
X159720Y277853D01*
X159723Y277870D01*
X159724Y277874D01*
X159728Y277891D01*
X159728Y277895D01*
X159728Y277896D01*
X159729Y277899D01*
X160129Y279198D01*
X160729Y280198D01*
X161728Y281397D01*
X163627Y282496D01*
X165525Y282796D01*
X172324Y282896D01*
X172521Y282797D01*
X172521Y275900D01*
X172524Y275896D01*
X172525Y275896D01*
X176125Y275896D01*
X176129Y275899D01*
X176129Y275900D01*
X176229Y284800D01*
X176229Y284801D01*
X176129Y285201D01*
X176129Y285202D01*
X175929Y285702D01*
X175928Y285702D01*
X175928Y285703D01*
X175628Y286103D01*
X175627Y286103D01*
X175627Y286104D01*
X175027Y286404D01*
X175026Y286404D01*
X174026Y286604D01*
X174025Y286604D01*
X167425Y286604D01*
X164125Y286404D01*
X164124Y286404D01*
X164123Y286404D01*
X161623Y285304D01*
X159023Y283704D01*
X159022Y283703D01*
X159022Y283702D01*
X157722Y281802D01*
X157721Y281802D01*
X156321Y279302D01*
X156321Y279301D01*
X155921Y277501D01*
X155921Y277500D01*
X155821Y266300D01*
X155824Y266296D01*
X155825Y266296D01*
X159525Y266196D01*
X159529Y266199D01*
G37*
G36*
X272401Y266396D02*
X272401Y266396D01*
X273601Y266796D01*
X273602Y266796D01*
X274702Y267296D01*
X274702Y267297D01*
X274703Y267297D01*
X275403Y268097D01*
X276203Y269097D01*
X276203Y269099D01*
X276204Y269099D01*
X276604Y270699D01*
X276604Y270700D01*
X276604Y270701D01*
X276605Y270705D01*
X276605Y270709D01*
X276606Y270717D01*
X276606Y270718D01*
X276606Y270722D01*
X276607Y270726D01*
X276607Y270730D01*
X276608Y270739D01*
X276609Y270743D01*
X276609Y270747D01*
X276609Y270751D01*
X276609Y270752D01*
X276610Y270760D01*
X276611Y270764D01*
X276611Y270768D01*
X276611Y270769D01*
X276612Y270773D01*
X276612Y270781D01*
X276613Y270785D01*
X276613Y270786D01*
X276613Y270790D01*
X276614Y270794D01*
X276615Y270802D01*
X276615Y270803D01*
X276615Y270807D01*
X276615Y270811D01*
X276616Y270815D01*
X276617Y270824D01*
X276617Y270828D01*
X276617Y270832D01*
X276618Y270832D01*
X276618Y270836D01*
X276618Y270837D01*
X276619Y270845D01*
X276619Y270849D01*
X276620Y270853D01*
X276620Y270854D01*
X276620Y270858D01*
X276621Y270866D01*
X276621Y270870D01*
X276621Y270871D01*
X276622Y270875D01*
X276622Y270879D01*
X276623Y270887D01*
X276623Y270888D01*
X276623Y270892D01*
X276624Y270896D01*
X276624Y270900D01*
X276625Y270909D01*
X276626Y270913D01*
X276626Y270917D01*
X276626Y270921D01*
X276626Y270922D01*
X276627Y270930D01*
X276628Y270934D01*
X276628Y270938D01*
X276628Y270939D01*
X276629Y270943D01*
X276629Y270951D01*
X276630Y270955D01*
X276630Y270956D01*
X276630Y270960D01*
X276631Y270964D01*
X276632Y270972D01*
X276632Y270973D01*
X276632Y270977D01*
X276632Y270981D01*
X276633Y270985D01*
X276634Y270994D01*
X276634Y270998D01*
X276634Y271002D01*
X276635Y271002D01*
X276635Y271006D01*
X276635Y271007D01*
X276636Y271015D01*
X276636Y271019D01*
X276637Y271023D01*
X276637Y271024D01*
X276637Y271028D01*
X276638Y271036D01*
X276638Y271040D01*
X276638Y271041D01*
X276639Y271045D01*
X276639Y271049D01*
X276640Y271057D01*
X276640Y271058D01*
X276640Y271062D01*
X276641Y271066D01*
X276641Y271070D01*
X276642Y271079D01*
X276643Y271083D01*
X276643Y271087D01*
X276643Y271091D01*
X276643Y271092D01*
X276644Y271100D01*
X276645Y271104D01*
X276645Y271108D01*
X276645Y271109D01*
X276646Y271113D01*
X276646Y271121D01*
X276647Y271125D01*
X276647Y271126D01*
X276647Y271130D01*
X276648Y271134D01*
X276649Y271142D01*
X276649Y271143D01*
X276649Y271147D01*
X276649Y271151D01*
X276650Y271155D01*
X276651Y271164D01*
X276651Y271168D01*
X276651Y271172D01*
X276652Y271172D01*
X276652Y271176D01*
X276652Y271177D01*
X276653Y271185D01*
X276653Y271189D01*
X276654Y271193D01*
X276654Y271194D01*
X276654Y271198D01*
X276655Y271206D01*
X276655Y271210D01*
X276655Y271211D01*
X276656Y271215D01*
X276656Y271219D01*
X276657Y271227D01*
X276657Y271228D01*
X276657Y271232D01*
X276658Y271236D01*
X276658Y271240D01*
X276659Y271249D01*
X276660Y271253D01*
X276660Y271257D01*
X276660Y271261D01*
X276660Y271262D01*
X276661Y271270D01*
X276662Y271274D01*
X276662Y271278D01*
X276662Y271279D01*
X276663Y271283D01*
X276663Y271291D01*
X276664Y271295D01*
X276664Y271296D01*
X276664Y271300D01*
X276665Y271304D01*
X276666Y271312D01*
X276666Y271313D01*
X276666Y271317D01*
X276666Y271321D01*
X276667Y271325D01*
X276668Y271334D01*
X276668Y271338D01*
X276668Y271342D01*
X276669Y271342D01*
X276669Y271346D01*
X276669Y271347D01*
X276670Y271355D01*
X276670Y271359D01*
X276671Y271363D01*
X276671Y271364D01*
X276671Y271368D01*
X276672Y271376D01*
X276672Y271380D01*
X276672Y271381D01*
X276673Y271385D01*
X276673Y271389D01*
X276674Y271397D01*
X276674Y271398D01*
X276674Y271402D01*
X276675Y271406D01*
X276675Y271410D01*
X276676Y271419D01*
X276677Y271423D01*
X276677Y271427D01*
X276677Y271431D01*
X276677Y271432D01*
X276678Y271440D01*
X276679Y271444D01*
X276679Y271448D01*
X276679Y271449D01*
X276680Y271453D01*
X276680Y271461D01*
X276681Y271465D01*
X276681Y271466D01*
X276681Y271470D01*
X276682Y271474D01*
X276683Y271482D01*
X276683Y271483D01*
X276683Y271487D01*
X276683Y271491D01*
X276684Y271495D01*
X276685Y271504D01*
X276685Y271508D01*
X276685Y271512D01*
X276686Y271512D01*
X276686Y271516D01*
X276686Y271517D01*
X276687Y271525D01*
X276687Y271529D01*
X276688Y271533D01*
X276688Y271534D01*
X276688Y271538D01*
X276689Y271546D01*
X276689Y271550D01*
X276689Y271551D01*
X276690Y271555D01*
X276690Y271559D01*
X276691Y271567D01*
X276691Y271568D01*
X276691Y271572D01*
X276692Y271576D01*
X276692Y271580D01*
X276693Y271589D01*
X276694Y271593D01*
X276694Y271597D01*
X276694Y271601D01*
X276694Y271602D01*
X276695Y271610D01*
X276696Y271614D01*
X276696Y271618D01*
X276696Y271619D01*
X276697Y271623D01*
X276697Y271631D01*
X276698Y271635D01*
X276698Y271636D01*
X276698Y271640D01*
X276699Y271644D01*
X276700Y271652D01*
X276700Y271653D01*
X276700Y271657D01*
X276700Y271661D01*
X276701Y271665D01*
X276702Y271674D01*
X276702Y271678D01*
X276702Y271682D01*
X276703Y271682D01*
X276703Y271686D01*
X276703Y271687D01*
X276704Y271695D01*
X276704Y271699D01*
X276704Y271700D01*
X276704Y276600D01*
X276704Y276601D01*
X276504Y277801D01*
X276504Y277802D01*
X275904Y279002D01*
X275903Y279002D01*
X275903Y279003D01*
X274903Y280303D01*
X274902Y280303D01*
X274902Y280304D01*
X273702Y281104D01*
X273701Y281103D01*
X273701Y281104D01*
X272301Y281504D01*
X272300Y281504D01*
X265000Y281504D01*
X264996Y281501D01*
X264996Y281500D01*
X264896Y277900D01*
X264899Y277896D01*
X264900Y277896D01*
X271899Y277896D01*
X272697Y277597D01*
X272996Y276999D01*
X272996Y271401D01*
X272796Y270602D01*
X272497Y270204D01*
X271999Y270004D01*
X264301Y270004D01*
X263903Y270303D01*
X263504Y270702D01*
X263404Y271500D01*
X263304Y288100D01*
X263301Y288104D01*
X263300Y288104D01*
X259800Y288104D01*
X259796Y288101D01*
X259796Y288100D01*
X259796Y270200D01*
X259797Y270199D01*
X259796Y270198D01*
X260396Y268898D01*
X260397Y268898D01*
X260397Y268897D01*
X261297Y267697D01*
X261298Y267697D01*
X261298Y267696D01*
X262598Y266896D01*
X263898Y266396D01*
X263899Y266396D01*
X263900Y266396D01*
X272400Y266396D01*
X272401Y266396D01*
G37*
G36*
X253126Y266297D02*
X253126Y266297D01*
X253127Y266296D01*
X254027Y266696D01*
X254027Y266697D01*
X254027Y266696D01*
X254927Y267296D01*
X254928Y267297D01*
X256228Y268797D01*
X256228Y268798D01*
X256228Y268799D01*
X256229Y268799D01*
X256629Y270399D01*
X256629Y270400D01*
X256629Y278000D01*
X256629Y278001D01*
X256329Y278901D01*
X256328Y278902D01*
X256328Y278903D01*
X255028Y280303D01*
X254328Y281003D01*
X254327Y281003D01*
X254327Y281004D01*
X253927Y281204D01*
X253926Y281204D01*
X253226Y281404D01*
X253225Y281404D01*
X252225Y281504D01*
X243525Y281504D01*
X243521Y281501D01*
X243521Y281500D01*
X243521Y278100D01*
X243524Y278096D01*
X243525Y278096D01*
X251824Y278096D01*
X252423Y277896D01*
X252822Y277597D01*
X253221Y277099D01*
X253221Y271000D01*
X253219Y270993D01*
X253218Y270988D01*
X253215Y270971D01*
X253214Y270967D01*
X253211Y270950D01*
X253210Y270946D01*
X253206Y270929D01*
X253206Y270925D01*
X253202Y270908D01*
X253201Y270903D01*
X253198Y270886D01*
X253197Y270882D01*
X253194Y270865D01*
X253193Y270861D01*
X253189Y270844D01*
X253189Y270840D01*
X253185Y270823D01*
X253184Y270818D01*
X253181Y270801D01*
X253180Y270797D01*
X253177Y270780D01*
X253176Y270776D01*
X253172Y270759D01*
X253172Y270755D01*
X253168Y270738D01*
X253167Y270733D01*
X253164Y270716D01*
X253163Y270712D01*
X253160Y270695D01*
X253159Y270691D01*
X253155Y270674D01*
X253155Y270670D01*
X253151Y270653D01*
X253150Y270648D01*
X253147Y270631D01*
X253146Y270627D01*
X253143Y270610D01*
X253142Y270606D01*
X253138Y270589D01*
X253138Y270585D01*
X253134Y270568D01*
X253133Y270563D01*
X253130Y270546D01*
X253129Y270542D01*
X253126Y270525D01*
X253125Y270521D01*
X253121Y270504D01*
X253121Y270502D01*
X252822Y270103D01*
X252124Y269704D01*
X244726Y269704D01*
X243728Y270103D01*
X243329Y270801D01*
X243329Y271799D01*
X243529Y272298D01*
X243828Y272597D01*
X244326Y272896D01*
X251525Y272896D01*
X251529Y272899D01*
X251529Y272900D01*
X251529Y276400D01*
X251526Y276404D01*
X251525Y276404D01*
X243925Y276404D01*
X243924Y276404D01*
X243124Y276204D01*
X243123Y276204D01*
X242223Y275704D01*
X242223Y275703D01*
X242222Y275703D01*
X241322Y274903D01*
X240522Y274003D01*
X240522Y274002D01*
X240521Y274002D01*
X239921Y273102D01*
X239922Y273101D01*
X239921Y273101D01*
X239921Y273100D01*
X239921Y269900D01*
X239921Y269899D01*
X240021Y269299D01*
X240022Y269298D01*
X240022Y269297D01*
X241922Y267197D01*
X242422Y266797D01*
X242423Y266797D01*
X242424Y266796D01*
X243224Y266496D01*
X244324Y266296D01*
X244325Y266296D01*
X253125Y266296D01*
X253126Y266297D01*
G37*
G36*
X238429Y266299D02*
X238429Y266299D01*
X238429Y266300D01*
X238429Y269900D01*
X238426Y269904D01*
X238425Y269904D01*
X223529Y269904D01*
X223529Y286600D01*
X223526Y286604D01*
X223525Y286604D01*
X219925Y286604D01*
X219921Y286601D01*
X219921Y286600D01*
X219921Y267900D01*
X219921Y267899D01*
X220121Y267199D01*
X220122Y267198D01*
X220122Y267197D01*
X220622Y266597D01*
X220623Y266597D01*
X220623Y266596D01*
X221223Y266296D01*
X221224Y266297D01*
X221225Y266296D01*
X238425Y266296D01*
X238429Y266299D01*
G37*
G36*
X201526Y266297D02*
X201526Y266297D01*
X201528Y266297D01*
X201528Y266298D01*
X201529Y266299D01*
X201528Y266301D01*
X201528Y266303D01*
X191331Y276400D01*
X201628Y286497D01*
X201628Y286498D01*
X201629Y286499D01*
X201628Y286501D01*
X201628Y286503D01*
X201626Y286503D01*
X201625Y286504D01*
X196525Y286504D01*
X196523Y286503D01*
X196522Y286503D01*
X188323Y278204D01*
X185625Y278204D01*
X185621Y278201D01*
X185621Y278200D01*
X185621Y274600D01*
X185624Y274596D01*
X185625Y274596D01*
X188223Y274596D01*
X196322Y266297D01*
X196324Y266297D01*
X196325Y266296D01*
X201525Y266296D01*
X201526Y266297D01*
G37*
G36*
X184129Y266299D02*
X184129Y266299D01*
X184129Y266300D01*
X184129Y286600D01*
X184126Y286604D01*
X184125Y286604D01*
X180525Y286604D01*
X180521Y286601D01*
X180521Y286600D01*
X180521Y266300D01*
X180524Y266296D01*
X180525Y266296D01*
X184125Y266296D01*
X184129Y266299D01*
G37*
G36*
X216029Y274699D02*
X216029Y274699D01*
X216029Y274700D01*
X216029Y278000D01*
X216026Y278004D01*
X216025Y278004D01*
X202925Y278104D01*
X202921Y278101D01*
X202921Y278100D01*
X202821Y274800D01*
X202824Y274796D01*
X202825Y274796D01*
X216025Y274696D01*
X216029Y274699D01*
G37*
D10*
X129613Y293800D02*
X129615Y293877D01*
X129621Y293953D01*
X129631Y294029D01*
X129644Y294104D01*
X129662Y294179D01*
X129683Y294252D01*
X129709Y294325D01*
X129737Y294395D01*
X129770Y294465D01*
X129806Y294532D01*
X129845Y294598D01*
X129888Y294662D01*
X129934Y294723D01*
X129983Y294782D01*
X130035Y294838D01*
X130090Y294891D01*
X130147Y294942D01*
X130207Y294989D01*
X130270Y295034D01*
X130335Y295075D01*
X130401Y295113D01*
X130470Y295147D01*
X130540Y295177D01*
X130611Y295204D01*
X130684Y295228D01*
X130758Y295247D01*
X130833Y295263D01*
X130909Y295275D01*
X130985Y295283D01*
X131062Y295287D01*
X131138Y295287D01*
X131215Y295283D01*
X131291Y295275D01*
X131367Y295263D01*
X131442Y295247D01*
X131516Y295228D01*
X131589Y295204D01*
X131660Y295177D01*
X131730Y295147D01*
X131799Y295113D01*
X131865Y295075D01*
X131930Y295034D01*
X131993Y294989D01*
X132053Y294942D01*
X132110Y294891D01*
X132165Y294838D01*
X132217Y294782D01*
X132266Y294723D01*
X132312Y294662D01*
X132355Y294598D01*
X132394Y294532D01*
X132430Y294465D01*
X132463Y294395D01*
X132491Y294325D01*
X132517Y294252D01*
X132538Y294179D01*
X132556Y294104D01*
X132569Y294029D01*
X132579Y293953D01*
X132585Y293877D01*
X132587Y293800D01*
X132585Y293723D01*
X132579Y293647D01*
X132569Y293571D01*
X132556Y293496D01*
X132538Y293421D01*
X132517Y293348D01*
X132491Y293275D01*
X132463Y293205D01*
X132430Y293135D01*
X132394Y293068D01*
X132355Y293002D01*
X132312Y292938D01*
X132266Y292877D01*
X132217Y292818D01*
X132165Y292762D01*
X132110Y292709D01*
X132053Y292658D01*
X131993Y292611D01*
X131930Y292566D01*
X131865Y292525D01*
X131799Y292487D01*
X131730Y292453D01*
X131660Y292423D01*
X131589Y292396D01*
X131516Y292372D01*
X131442Y292353D01*
X131367Y292337D01*
X131291Y292325D01*
X131215Y292317D01*
X131138Y292313D01*
X131062Y292313D01*
X130985Y292317D01*
X130909Y292325D01*
X130833Y292337D01*
X130758Y292353D01*
X130684Y292372D01*
X130611Y292396D01*
X130540Y292423D01*
X130470Y292453D01*
X130401Y292487D01*
X130335Y292525D01*
X130270Y292566D01*
X130207Y292611D01*
X130147Y292658D01*
X130090Y292709D01*
X130035Y292762D01*
X129983Y292818D01*
X129934Y292877D01*
X129888Y292938D01*
X129845Y293002D01*
X129806Y293068D01*
X129770Y293135D01*
X129737Y293205D01*
X129709Y293275D01*
X129683Y293348D01*
X129662Y293421D01*
X129644Y293496D01*
X129631Y293571D01*
X129621Y293647D01*
X129615Y293723D01*
X129613Y293800D01*
X146213Y298100D02*
X146215Y298177D01*
X146221Y298253D01*
X146231Y298329D01*
X146244Y298404D01*
X146262Y298479D01*
X146283Y298552D01*
X146309Y298625D01*
X146337Y298695D01*
X146370Y298765D01*
X146406Y298832D01*
X146445Y298898D01*
X146488Y298962D01*
X146534Y299023D01*
X146583Y299082D01*
X146635Y299138D01*
X146690Y299191D01*
X146747Y299242D01*
X146807Y299289D01*
X146870Y299334D01*
X146935Y299375D01*
X147001Y299413D01*
X147070Y299447D01*
X147140Y299477D01*
X147211Y299504D01*
X147284Y299528D01*
X147358Y299547D01*
X147433Y299563D01*
X147509Y299575D01*
X147585Y299583D01*
X147662Y299587D01*
X147738Y299587D01*
X147815Y299583D01*
X147891Y299575D01*
X147967Y299563D01*
X148042Y299547D01*
X148116Y299528D01*
X148189Y299504D01*
X148260Y299477D01*
X148330Y299447D01*
X148399Y299413D01*
X148465Y299375D01*
X148530Y299334D01*
X148593Y299289D01*
X148653Y299242D01*
X148710Y299191D01*
X148765Y299138D01*
X148817Y299082D01*
X148866Y299023D01*
X148912Y298962D01*
X148955Y298898D01*
X148994Y298832D01*
X149030Y298765D01*
X149063Y298695D01*
X149091Y298625D01*
X149117Y298552D01*
X149138Y298479D01*
X149156Y298404D01*
X149169Y298329D01*
X149179Y298253D01*
X149185Y298177D01*
X149187Y298100D01*
X149185Y298023D01*
X149179Y297947D01*
X149169Y297871D01*
X149156Y297796D01*
X149138Y297721D01*
X149117Y297648D01*
X149091Y297575D01*
X149063Y297505D01*
X149030Y297435D01*
X148994Y297368D01*
X148955Y297302D01*
X148912Y297238D01*
X148866Y297177D01*
X148817Y297118D01*
X148765Y297062D01*
X148710Y297009D01*
X148653Y296958D01*
X148593Y296911D01*
X148530Y296866D01*
X148465Y296825D01*
X148399Y296787D01*
X148330Y296753D01*
X148260Y296723D01*
X148189Y296696D01*
X148116Y296672D01*
X148042Y296653D01*
X147967Y296637D01*
X147891Y296625D01*
X147815Y296617D01*
X147738Y296613D01*
X147662Y296613D01*
X147585Y296617D01*
X147509Y296625D01*
X147433Y296637D01*
X147358Y296653D01*
X147284Y296672D01*
X147211Y296696D01*
X147140Y296723D01*
X147070Y296753D01*
X147001Y296787D01*
X146935Y296825D01*
X146870Y296866D01*
X146807Y296911D01*
X146747Y296958D01*
X146690Y297009D01*
X146635Y297062D01*
X146583Y297118D01*
X146534Y297177D01*
X146488Y297238D01*
X146445Y297302D01*
X146406Y297368D01*
X146370Y297435D01*
X146337Y297505D01*
X146309Y297575D01*
X146283Y297648D01*
X146262Y297721D01*
X146244Y297796D01*
X146231Y297871D01*
X146221Y297947D01*
X146215Y298023D01*
X146213Y298100D01*
X183413Y315300D02*
X183415Y315377D01*
X183421Y315453D01*
X183431Y315529D01*
X183444Y315604D01*
X183462Y315679D01*
X183483Y315752D01*
X183509Y315825D01*
X183537Y315895D01*
X183570Y315965D01*
X183606Y316032D01*
X183645Y316098D01*
X183688Y316162D01*
X183734Y316223D01*
X183783Y316282D01*
X183835Y316338D01*
X183890Y316391D01*
X183947Y316442D01*
X184007Y316489D01*
X184070Y316534D01*
X184135Y316575D01*
X184201Y316613D01*
X184270Y316647D01*
X184340Y316677D01*
X184411Y316704D01*
X184484Y316728D01*
X184558Y316747D01*
X184633Y316763D01*
X184709Y316775D01*
X184785Y316783D01*
X184862Y316787D01*
X184938Y316787D01*
X185015Y316783D01*
X185091Y316775D01*
X185167Y316763D01*
X185242Y316747D01*
X185316Y316728D01*
X185389Y316704D01*
X185460Y316677D01*
X185530Y316647D01*
X185599Y316613D01*
X185665Y316575D01*
X185730Y316534D01*
X185793Y316489D01*
X185853Y316442D01*
X185910Y316391D01*
X185965Y316338D01*
X186017Y316282D01*
X186066Y316223D01*
X186112Y316162D01*
X186155Y316098D01*
X186194Y316032D01*
X186230Y315965D01*
X186263Y315895D01*
X186291Y315825D01*
X186317Y315752D01*
X186338Y315679D01*
X186356Y315604D01*
X186369Y315529D01*
X186379Y315453D01*
X186385Y315377D01*
X186387Y315300D01*
X186385Y315223D01*
X186379Y315147D01*
X186369Y315071D01*
X186356Y314996D01*
X186338Y314921D01*
X186317Y314848D01*
X186291Y314775D01*
X186263Y314705D01*
X186230Y314635D01*
X186194Y314568D01*
X186155Y314502D01*
X186112Y314438D01*
X186066Y314377D01*
X186017Y314318D01*
X185965Y314262D01*
X185910Y314209D01*
X185853Y314158D01*
X185793Y314111D01*
X185730Y314066D01*
X185665Y314025D01*
X185599Y313987D01*
X185530Y313953D01*
X185460Y313923D01*
X185389Y313896D01*
X185316Y313872D01*
X185242Y313853D01*
X185167Y313837D01*
X185091Y313825D01*
X185015Y313817D01*
X184938Y313813D01*
X184862Y313813D01*
X184785Y313817D01*
X184709Y313825D01*
X184633Y313837D01*
X184558Y313853D01*
X184484Y313872D01*
X184411Y313896D01*
X184340Y313923D01*
X184270Y313953D01*
X184201Y313987D01*
X184135Y314025D01*
X184070Y314066D01*
X184007Y314111D01*
X183947Y314158D01*
X183890Y314209D01*
X183835Y314262D01*
X183783Y314318D01*
X183734Y314377D01*
X183688Y314438D01*
X183645Y314502D01*
X183606Y314568D01*
X183570Y314635D01*
X183537Y314705D01*
X183509Y314775D01*
X183483Y314848D01*
X183462Y314921D01*
X183444Y314996D01*
X183431Y315071D01*
X183421Y315147D01*
X183415Y315223D01*
X183413Y315300D01*
X192513Y316400D02*
X192515Y316477D01*
X192521Y316553D01*
X192531Y316629D01*
X192544Y316704D01*
X192562Y316779D01*
X192583Y316852D01*
X192609Y316925D01*
X192637Y316995D01*
X192670Y317065D01*
X192706Y317132D01*
X192745Y317198D01*
X192788Y317262D01*
X192834Y317323D01*
X192883Y317382D01*
X192935Y317438D01*
X192990Y317491D01*
X193047Y317542D01*
X193107Y317589D01*
X193170Y317634D01*
X193235Y317675D01*
X193301Y317713D01*
X193370Y317747D01*
X193440Y317777D01*
X193511Y317804D01*
X193584Y317828D01*
X193658Y317847D01*
X193733Y317863D01*
X193809Y317875D01*
X193885Y317883D01*
X193962Y317887D01*
X194038Y317887D01*
X194115Y317883D01*
X194191Y317875D01*
X194267Y317863D01*
X194342Y317847D01*
X194416Y317828D01*
X194489Y317804D01*
X194560Y317777D01*
X194630Y317747D01*
X194699Y317713D01*
X194765Y317675D01*
X194830Y317634D01*
X194893Y317589D01*
X194953Y317542D01*
X195010Y317491D01*
X195065Y317438D01*
X195117Y317382D01*
X195166Y317323D01*
X195212Y317262D01*
X195255Y317198D01*
X195294Y317132D01*
X195330Y317065D01*
X195363Y316995D01*
X195391Y316925D01*
X195417Y316852D01*
X195438Y316779D01*
X195456Y316704D01*
X195469Y316629D01*
X195479Y316553D01*
X195485Y316477D01*
X195487Y316400D01*
X195485Y316323D01*
X195479Y316247D01*
X195469Y316171D01*
X195456Y316096D01*
X195438Y316021D01*
X195417Y315948D01*
X195391Y315875D01*
X195363Y315805D01*
X195330Y315735D01*
X195294Y315668D01*
X195255Y315602D01*
X195212Y315538D01*
X195166Y315477D01*
X195117Y315418D01*
X195065Y315362D01*
X195010Y315309D01*
X194953Y315258D01*
X194893Y315211D01*
X194830Y315166D01*
X194765Y315125D01*
X194699Y315087D01*
X194630Y315053D01*
X194560Y315023D01*
X194489Y314996D01*
X194416Y314972D01*
X194342Y314953D01*
X194267Y314937D01*
X194191Y314925D01*
X194115Y314917D01*
X194038Y314913D01*
X193962Y314913D01*
X193885Y314917D01*
X193809Y314925D01*
X193733Y314937D01*
X193658Y314953D01*
X193584Y314972D01*
X193511Y314996D01*
X193440Y315023D01*
X193370Y315053D01*
X193301Y315087D01*
X193235Y315125D01*
X193170Y315166D01*
X193107Y315211D01*
X193047Y315258D01*
X192990Y315309D01*
X192935Y315362D01*
X192883Y315418D01*
X192834Y315477D01*
X192788Y315538D01*
X192745Y315602D01*
X192706Y315668D01*
X192670Y315735D01*
X192637Y315805D01*
X192609Y315875D01*
X192583Y315948D01*
X192562Y316021D01*
X192544Y316096D01*
X192531Y316171D01*
X192521Y316247D01*
X192515Y316323D01*
X192513Y316400D01*
X200613Y295000D02*
X200615Y295077D01*
X200621Y295153D01*
X200631Y295229D01*
X200644Y295304D01*
X200662Y295379D01*
X200683Y295452D01*
X200709Y295525D01*
X200737Y295595D01*
X200770Y295665D01*
X200806Y295732D01*
X200845Y295798D01*
X200888Y295862D01*
X200934Y295923D01*
X200983Y295982D01*
X201035Y296038D01*
X201090Y296091D01*
X201147Y296142D01*
X201207Y296189D01*
X201270Y296234D01*
X201335Y296275D01*
X201401Y296313D01*
X201470Y296347D01*
X201540Y296377D01*
X201611Y296404D01*
X201684Y296428D01*
X201758Y296447D01*
X201833Y296463D01*
X201909Y296475D01*
X201985Y296483D01*
X202062Y296487D01*
X202138Y296487D01*
X202215Y296483D01*
X202291Y296475D01*
X202367Y296463D01*
X202442Y296447D01*
X202516Y296428D01*
X202589Y296404D01*
X202660Y296377D01*
X202730Y296347D01*
X202799Y296313D01*
X202865Y296275D01*
X202930Y296234D01*
X202993Y296189D01*
X203053Y296142D01*
X203110Y296091D01*
X203165Y296038D01*
X203217Y295982D01*
X203266Y295923D01*
X203312Y295862D01*
X203355Y295798D01*
X203394Y295732D01*
X203430Y295665D01*
X203463Y295595D01*
X203491Y295525D01*
X203517Y295452D01*
X203538Y295379D01*
X203556Y295304D01*
X203569Y295229D01*
X203579Y295153D01*
X203585Y295077D01*
X203587Y295000D01*
X203585Y294923D01*
X203579Y294847D01*
X203569Y294771D01*
X203556Y294696D01*
X203538Y294621D01*
X203517Y294548D01*
X203491Y294475D01*
X203463Y294405D01*
X203430Y294335D01*
X203394Y294268D01*
X203355Y294202D01*
X203312Y294138D01*
X203266Y294077D01*
X203217Y294018D01*
X203165Y293962D01*
X203110Y293909D01*
X203053Y293858D01*
X202993Y293811D01*
X202930Y293766D01*
X202865Y293725D01*
X202799Y293687D01*
X202730Y293653D01*
X202660Y293623D01*
X202589Y293596D01*
X202516Y293572D01*
X202442Y293553D01*
X202367Y293537D01*
X202291Y293525D01*
X202215Y293517D01*
X202138Y293513D01*
X202062Y293513D01*
X201985Y293517D01*
X201909Y293525D01*
X201833Y293537D01*
X201758Y293553D01*
X201684Y293572D01*
X201611Y293596D01*
X201540Y293623D01*
X201470Y293653D01*
X201401Y293687D01*
X201335Y293725D01*
X201270Y293766D01*
X201207Y293811D01*
X201147Y293858D01*
X201090Y293909D01*
X201035Y293962D01*
X200983Y294018D01*
X200934Y294077D01*
X200888Y294138D01*
X200845Y294202D01*
X200806Y294268D01*
X200770Y294335D01*
X200737Y294405D01*
X200709Y294475D01*
X200683Y294548D01*
X200662Y294621D01*
X200644Y294696D01*
X200631Y294771D01*
X200621Y294847D01*
X200615Y294923D01*
X200613Y295000D01*
X215913Y317700D02*
X215915Y317777D01*
X215921Y317853D01*
X215931Y317929D01*
X215944Y318004D01*
X215962Y318079D01*
X215983Y318152D01*
X216009Y318225D01*
X216037Y318295D01*
X216070Y318365D01*
X216106Y318432D01*
X216145Y318498D01*
X216188Y318562D01*
X216234Y318623D01*
X216283Y318682D01*
X216335Y318738D01*
X216390Y318791D01*
X216447Y318842D01*
X216507Y318889D01*
X216570Y318934D01*
X216635Y318975D01*
X216701Y319013D01*
X216770Y319047D01*
X216840Y319077D01*
X216911Y319104D01*
X216984Y319128D01*
X217058Y319147D01*
X217133Y319163D01*
X217209Y319175D01*
X217285Y319183D01*
X217362Y319187D01*
X217438Y319187D01*
X217515Y319183D01*
X217591Y319175D01*
X217667Y319163D01*
X217742Y319147D01*
X217816Y319128D01*
X217889Y319104D01*
X217960Y319077D01*
X218030Y319047D01*
X218099Y319013D01*
X218165Y318975D01*
X218230Y318934D01*
X218293Y318889D01*
X218353Y318842D01*
X218410Y318791D01*
X218465Y318738D01*
X218517Y318682D01*
X218566Y318623D01*
X218612Y318562D01*
X218655Y318498D01*
X218694Y318432D01*
X218730Y318365D01*
X218763Y318295D01*
X218791Y318225D01*
X218817Y318152D01*
X218838Y318079D01*
X218856Y318004D01*
X218869Y317929D01*
X218879Y317853D01*
X218885Y317777D01*
X218887Y317700D01*
X218885Y317623D01*
X218879Y317547D01*
X218869Y317471D01*
X218856Y317396D01*
X218838Y317321D01*
X218817Y317248D01*
X218791Y317175D01*
X218763Y317105D01*
X218730Y317035D01*
X218694Y316968D01*
X218655Y316902D01*
X218612Y316838D01*
X218566Y316777D01*
X218517Y316718D01*
X218465Y316662D01*
X218410Y316609D01*
X218353Y316558D01*
X218293Y316511D01*
X218230Y316466D01*
X218165Y316425D01*
X218099Y316387D01*
X218030Y316353D01*
X217960Y316323D01*
X217889Y316296D01*
X217816Y316272D01*
X217742Y316253D01*
X217667Y316237D01*
X217591Y316225D01*
X217515Y316217D01*
X217438Y316213D01*
X217362Y316213D01*
X217285Y316217D01*
X217209Y316225D01*
X217133Y316237D01*
X217058Y316253D01*
X216984Y316272D01*
X216911Y316296D01*
X216840Y316323D01*
X216770Y316353D01*
X216701Y316387D01*
X216635Y316425D01*
X216570Y316466D01*
X216507Y316511D01*
X216447Y316558D01*
X216390Y316609D01*
X216335Y316662D01*
X216283Y316718D01*
X216234Y316777D01*
X216188Y316838D01*
X216145Y316902D01*
X216106Y316968D01*
X216070Y317035D01*
X216037Y317105D01*
X216009Y317175D01*
X215983Y317248D01*
X215962Y317321D01*
X215944Y317396D01*
X215931Y317471D01*
X215921Y317547D01*
X215915Y317623D01*
X215913Y317700D01*
X250613Y308400D02*
X250615Y308477D01*
X250621Y308553D01*
X250631Y308629D01*
X250644Y308704D01*
X250662Y308779D01*
X250683Y308852D01*
X250709Y308925D01*
X250737Y308995D01*
X250770Y309065D01*
X250806Y309132D01*
X250845Y309198D01*
X250888Y309262D01*
X250934Y309323D01*
X250983Y309382D01*
X251035Y309438D01*
X251090Y309491D01*
X251147Y309542D01*
X251207Y309589D01*
X251270Y309634D01*
X251335Y309675D01*
X251401Y309713D01*
X251470Y309747D01*
X251540Y309777D01*
X251611Y309804D01*
X251684Y309828D01*
X251758Y309847D01*
X251833Y309863D01*
X251909Y309875D01*
X251985Y309883D01*
X252062Y309887D01*
X252138Y309887D01*
X252215Y309883D01*
X252291Y309875D01*
X252367Y309863D01*
X252442Y309847D01*
X252516Y309828D01*
X252589Y309804D01*
X252660Y309777D01*
X252730Y309747D01*
X252799Y309713D01*
X252865Y309675D01*
X252930Y309634D01*
X252993Y309589D01*
X253053Y309542D01*
X253110Y309491D01*
X253165Y309438D01*
X253217Y309382D01*
X253266Y309323D01*
X253312Y309262D01*
X253355Y309198D01*
X253394Y309132D01*
X253430Y309065D01*
X253463Y308995D01*
X253491Y308925D01*
X253517Y308852D01*
X253538Y308779D01*
X253556Y308704D01*
X253569Y308629D01*
X253579Y308553D01*
X253585Y308477D01*
X253587Y308400D01*
X253585Y308323D01*
X253579Y308247D01*
X253569Y308171D01*
X253556Y308096D01*
X253538Y308021D01*
X253517Y307948D01*
X253491Y307875D01*
X253463Y307805D01*
X253430Y307735D01*
X253394Y307668D01*
X253355Y307602D01*
X253312Y307538D01*
X253266Y307477D01*
X253217Y307418D01*
X253165Y307362D01*
X253110Y307309D01*
X253053Y307258D01*
X252993Y307211D01*
X252930Y307166D01*
X252865Y307125D01*
X252799Y307087D01*
X252730Y307053D01*
X252660Y307023D01*
X252589Y306996D01*
X252516Y306972D01*
X252442Y306953D01*
X252367Y306937D01*
X252291Y306925D01*
X252215Y306917D01*
X252138Y306913D01*
X252062Y306913D01*
X251985Y306917D01*
X251909Y306925D01*
X251833Y306937D01*
X251758Y306953D01*
X251684Y306972D01*
X251611Y306996D01*
X251540Y307023D01*
X251470Y307053D01*
X251401Y307087D01*
X251335Y307125D01*
X251270Y307166D01*
X251207Y307211D01*
X251147Y307258D01*
X251090Y307309D01*
X251035Y307362D01*
X250983Y307418D01*
X250934Y307477D01*
X250888Y307538D01*
X250845Y307602D01*
X250806Y307668D01*
X250770Y307735D01*
X250737Y307805D01*
X250709Y307875D01*
X250683Y307948D01*
X250662Y308021D01*
X250644Y308096D01*
X250631Y308171D01*
X250621Y308247D01*
X250615Y308323D01*
X250613Y308400D01*
X270413Y293100D02*
X270415Y293177D01*
X270421Y293253D01*
X270431Y293329D01*
X270444Y293404D01*
X270462Y293479D01*
X270483Y293552D01*
X270509Y293625D01*
X270537Y293695D01*
X270570Y293765D01*
X270606Y293832D01*
X270645Y293898D01*
X270688Y293962D01*
X270734Y294023D01*
X270783Y294082D01*
X270835Y294138D01*
X270890Y294191D01*
X270947Y294242D01*
X271007Y294289D01*
X271070Y294334D01*
X271135Y294375D01*
X271201Y294413D01*
X271270Y294447D01*
X271340Y294477D01*
X271411Y294504D01*
X271484Y294528D01*
X271558Y294547D01*
X271633Y294563D01*
X271709Y294575D01*
X271785Y294583D01*
X271862Y294587D01*
X271938Y294587D01*
X272015Y294583D01*
X272091Y294575D01*
X272167Y294563D01*
X272242Y294547D01*
X272316Y294528D01*
X272389Y294504D01*
X272460Y294477D01*
X272530Y294447D01*
X272599Y294413D01*
X272665Y294375D01*
X272730Y294334D01*
X272793Y294289D01*
X272853Y294242D01*
X272910Y294191D01*
X272965Y294138D01*
X273017Y294082D01*
X273066Y294023D01*
X273112Y293962D01*
X273155Y293898D01*
X273194Y293832D01*
X273230Y293765D01*
X273263Y293695D01*
X273291Y293625D01*
X273317Y293552D01*
X273338Y293479D01*
X273356Y293404D01*
X273369Y293329D01*
X273379Y293253D01*
X273385Y293177D01*
X273387Y293100D01*
X273385Y293023D01*
X273379Y292947D01*
X273369Y292871D01*
X273356Y292796D01*
X273338Y292721D01*
X273317Y292648D01*
X273291Y292575D01*
X273263Y292505D01*
X273230Y292435D01*
X273194Y292368D01*
X273155Y292302D01*
X273112Y292238D01*
X273066Y292177D01*
X273017Y292118D01*
X272965Y292062D01*
X272910Y292009D01*
X272853Y291958D01*
X272793Y291911D01*
X272730Y291866D01*
X272665Y291825D01*
X272599Y291787D01*
X272530Y291753D01*
X272460Y291723D01*
X272389Y291696D01*
X272316Y291672D01*
X272242Y291653D01*
X272167Y291637D01*
X272091Y291625D01*
X272015Y291617D01*
X271938Y291613D01*
X271862Y291613D01*
X271785Y291617D01*
X271709Y291625D01*
X271633Y291637D01*
X271558Y291653D01*
X271484Y291672D01*
X271411Y291696D01*
X271340Y291723D01*
X271270Y291753D01*
X271201Y291787D01*
X271135Y291825D01*
X271070Y291866D01*
X271007Y291911D01*
X270947Y291958D01*
X270890Y292009D01*
X270835Y292062D01*
X270783Y292118D01*
X270734Y292177D01*
X270688Y292238D01*
X270645Y292302D01*
X270606Y292368D01*
X270570Y292435D01*
X270537Y292505D01*
X270509Y292575D01*
X270483Y292648D01*
X270462Y292721D01*
X270444Y292796D01*
X270431Y292871D01*
X270421Y292947D01*
X270415Y293023D01*
X270413Y293100D01*
D11*
X244729Y215900D02*
X231521Y215900D01*
X231521Y241300D02*
X244729Y241300D01*
X168529Y241300D02*
X155321Y241300D01*
X155321Y215900D02*
X168529Y215900D01*
D12*
X100013Y504825D03*
X100013Y428625D03*
X300038Y506413D03*
X300038Y430213D03*
D13*
X365581Y214159D03*
D14*
X382940Y229249D03*
D13*
X8405Y225489D03*
D15*
X26280Y211015D03*
D16*
X76200Y309646D03*
X38100Y243655D03*
D17*
X313425Y310925D03*
X353805Y246303D03*
D18*
X214400Y357100D02*
X212300Y357100D01*
X213400Y358100D02*
X213500Y350300D01*
D19*
X271900Y329500D02*
X271900Y295000D01*
X271900Y329500D02*
X260800Y329500D01*
X260400Y325500D01*
X226100Y318000D02*
X219100Y317800D01*
X226100Y318000D02*
X226200Y325000D01*
X260400Y325500D01*
X147600Y338800D02*
X147600Y299600D01*
X202100Y297000D02*
X202100Y335600D01*
X147900Y335400D01*
D20*
X105600Y302800D02*
X104000Y301300D01*
X105601Y302800D02*
X105745Y302932D01*
X105893Y303061D01*
X106043Y303186D01*
X106196Y303308D01*
X106353Y303426D01*
X106512Y303540D01*
X106673Y303651D01*
X106838Y303758D01*
X107004Y303860D01*
X107174Y303959D01*
X107345Y304054D01*
X107518Y304144D01*
X107694Y304231D01*
X107872Y304313D01*
X108051Y304392D01*
X108233Y304465D01*
X108416Y304535D01*
X108600Y304600D01*
X110800Y304900D01*
X113200Y305000D01*
X131200Y296300D02*
X130600Y326300D01*
X130600Y324300D01*
X114200Y306200D02*
X113200Y305000D01*
X114200Y306200D02*
X115300Y307300D01*
X125700Y324500D02*
X130600Y324300D01*
X125700Y324500D02*
X125700Y325700D01*
X116700Y308200D02*
X115300Y307300D01*
X116700Y308200D02*
X118500Y308700D01*
X125800Y324500D02*
X125700Y325700D01*
X120800Y325700D02*
X120800Y324300D01*
X125800Y324500D01*
X120500Y308900D02*
X118500Y308700D01*
X120500Y308900D02*
X120800Y308900D01*
X120800Y324300D01*
D19*
X136500Y315300D02*
X183100Y315300D01*
X136500Y315300D02*
X136600Y309000D01*
X130800Y308600D01*
X193900Y318000D02*
X193900Y328800D01*
X207100Y328900D01*
X207000Y352000D01*
X207000Y350300D01*
X211300Y350400D01*
X211200Y352200D01*
X211300Y350400D02*
X215800Y350400D01*
X215900Y350400D01*
X215800Y352200D01*
X215800Y350400D01*
X220100Y350500D01*
X220000Y352000D01*
X220200Y328800D01*
X233100Y328800D01*
X233100Y308600D01*
X250100Y308400D01*
X272100Y313200D02*
X275700Y314800D01*
X278200Y315800D01*
X281700Y316700D01*
X285500Y317300D01*
X289700Y317500D01*
X292800Y317400D01*
X295500Y316900D01*
X298300Y315900D01*
D21*
X267000Y191000D02*
X226000Y191000D01*
X152400Y166000D02*
X133000Y166000D01*
X152400Y166000D02*
X174000Y166000D01*
X152400Y140000D02*
X133000Y140000D01*
X152400Y140000D02*
X174000Y140000D01*
X174000Y191000D02*
X133000Y191000D01*
X226000Y166000D02*
X244475Y166000D01*
X267000Y166000D01*
X244475Y141000D02*
X226000Y141000D01*
X244475Y141000D02*
X267000Y141000D01*
D22*
X139700Y184300D02*
X133000Y191000D01*
X139700Y184300D02*
X139700Y184150D01*
X152400Y184150D01*
X152400Y166000D01*
X133350Y165650D02*
X133000Y166000D01*
X133350Y165650D02*
X133350Y161925D01*
X152400Y161925D01*
X152400Y140000D01*
X226000Y191000D02*
X228600Y188400D01*
X228600Y187325D01*
X244475Y187325D01*
X244475Y166000D01*
X228600Y163400D02*
X226000Y166000D01*
X228600Y163400D02*
X228600Y161925D01*
X244475Y161925D01*
X244475Y141000D01*
X180975Y197975D02*
X174000Y191000D01*
X180975Y197975D02*
X180975Y203200D01*
X193675Y215900D01*
X219075Y203200D02*
X219075Y190500D01*
X225500Y190500D01*
X226000Y191000D01*
X206375Y215900D02*
X193675Y215900D01*
X206375Y215900D02*
X219075Y203200D01*
D23*
X72413Y287238D02*
X61413Y294238D01*
X52413Y280825D02*
X62413Y274825D01*
X55413Y259825D02*
X45413Y265825D01*
X334000Y261000D02*
X347588Y268413D01*
X339588Y282413D02*
X325000Y274000D01*
X316000Y287000D02*
X332588Y297413D01*
D24*
X235000Y389000D02*
X163000Y389000D01*
D25*
X114300Y228600D03*
D24*
X200025Y228600D01*
D25*
X285750Y228600D03*
D24*
X200025Y228600D01*
X200025Y241300D01*
D25*
X200025Y241300D03*
X177800Y377825D03*
X219075Y377825D03*
D24*
X177800Y377825D02*
X168275Y377825D01*
X177800Y377825D02*
X219075Y377825D01*
X231775Y377825D01*
X38100Y243655D02*
X30930Y243655D01*
X12764Y225489D02*
X8405Y225489D01*
X12764Y225489D02*
X30930Y243655D01*
D26*
X38100Y243655D02*
X38100Y243840D01*
D24*
X365581Y228144D02*
X365581Y214159D01*
X353805Y239920D02*
X353805Y246303D01*
X353805Y239920D02*
X365581Y228144D01*
X402000Y229000D02*
X404000Y227000D01*
X404000Y223000D01*
X409000Y223000D01*
X410000Y222000D01*
X410000Y218000D01*
X411000Y217000D01*
X415000Y217000D01*
X416000Y216000D01*
X416000Y212000D01*
X417000Y211000D01*
X421000Y211000D01*
X421000Y207000D01*
X422000Y206000D01*
X425000Y206000D01*
X425000Y202000D01*
X368000Y190000D02*
X363000Y190000D01*
X368000Y190000D02*
X368000Y186000D01*
X369000Y185000D01*
X373000Y185000D01*
X373000Y181000D01*
X376000Y178000D01*
X379000Y178000D01*
X380000Y177000D01*
X380000Y174000D01*
X381000Y173000D01*
X384000Y173000D01*
X388000Y169000D01*
M02*
